<svg width="155" height="135" viewBox="0 0 155 135" fill="none" xmlns="http://www.w3.org/2000/svg">
<path fill-rule="evenodd" clip-rule="evenodd" d="M2.43393 1.98333L2.4339 1.98337L2.43389 1.98338L2.43378 1.98353C2.3627 2.08271 2.28858 2.18612 2.20928 2.29489C1.24004 1.84322 0.98136 1.86458 0.505564 2.60573L0.474922 2.65334C0.245105 3.01001 0.000948909 3.38894 0.0722335 3.89333C0.106988 4.13796 0.0969863 4.38859 0.0869714 4.63956C0.0774241 4.87882 0.0678644 5.11838 0.097055 5.35335C0.218172 6.32229 0.45921 7.25421 1.21642 7.95864C1.4598 8.18481 1.69198 8.42307 1.9325 8.66988L1.93251 8.66989C2.04368 8.78397 2.15662 8.89987 2.27328 9.01725H2.67281C2.72101 9.01725 2.76923 9.01678 2.81747 9.01632H2.81751H2.81754H2.81757H2.81761H2.81764H2.81767H2.8177H2.81774H2.81777H2.8178H2.81784H2.81787H2.8179H2.81793H2.81797H2.818H2.81803H2.81807H2.8181H2.81813H2.81816H2.8182H2.81824H2.81828H2.81832H2.81836H2.8184H2.81844H2.81848H2.81852H2.81856H2.81861H2.81865H2.81869H2.81873H2.81877H2.81881H2.81885H2.81889H2.81893H2.81897H2.81901H2.81905H2.81909C2.91579 9.01538 3.01253 9.01444 3.10913 9.01725C3.86413 9.03905 3.86488 9.04129 4.16559 9.9424L4.17257 9.96332C4.20066 10.0477 4.25242 10.1314 4.30321 10.2136C4.38005 10.3378 4.45468 10.4585 4.44172 10.5727C4.36427 11.2494 4.75453 11.5915 5.23302 11.9132L5.47557 11.1181L5.7453 10.2338L5.95942 10.2766V11.9015C6.96545 12.1318 7.06432 11.467 7.15656 10.8467C7.16229 10.8082 7.16799 10.7698 7.17388 10.7318C7.77917 11.0054 8.24719 11.0505 8.53937 10.4535C8.77441 9.97336 8.97478 10.1798 9.17909 10.3902L9.17912 10.3902L9.17915 10.3903C9.20722 10.4192 9.23536 10.4482 9.26368 10.4755C9.85395 9.57695 10.1196 8.50168 10.0161 7.42964C9.96872 6.59496 9.97855 5.75726 9.98838 4.9194V4.91932V4.91925V4.91917V4.9191V4.91902V4.91894V4.91887V4.91879V4.91872V4.91864V4.91857V4.91849V4.91841V4.91834V4.91826V4.91819V4.91811V4.91803V4.91796V4.91788V4.91781V4.91773C9.99344 4.48691 9.99851 4.05604 9.99576 3.62552C9.98265 3.37451 9.9569 3.12433 9.91861 2.87595L9.76908 2.88257L9.62822 4.29264C9.46499 3.9329 9.39119 3.5386 9.4132 3.14376C9.40531 2.76634 9.36852 2.39008 9.30315 2.01835C9.20836 1.68177 9.09055 1.35219 8.95057 1.03196L8.717 1.70931C8.22009 0.802945 8.21878 0.803262 7.29899 1.02718L7.29171 1.02895C7.16581 1.05935 6.96395 1.10448 6.90952 1.0443C6.61286 0.710288 6.4098 0.784914 6.06918 1.03166C5.98951 1.08928 5.83706 1.02348 5.66912 0.950996C5.51428 0.884168 5.34628 0.811655 5.20999 0.824935C4.85422 0.878664 4.5146 1.01069 4.21534 1.21161C4.0159 1.33527 3.85393 1.24689 3.69617 1.16081C3.55066 1.08141 3.40874 1.00397 3.24431 1.09666C3.11938 1.15697 3.00655 1.2399 2.91146 1.3413C2.7505 1.54164 2.60055 1.75086 2.43393 1.98333ZM29.9596 15.4066C29.7909 15.4601 29.5699 15.3488 29.1362 15.1303C29.0519 15.254 28.94 15.354 28.8269 15.4549C28.5861 15.67 28.3404 15.8893 28.3481 16.3526C28.3487 16.9614 28.5769 17.5478 28.9872 17.9952C29.0329 18.0473 29.078 18.1039 29.1235 18.1609C29.2694 18.3438 29.4199 18.5324 29.6084 18.5998C30.1608 18.7976 30.5222 19.2039 30.8829 19.6093C31.0581 19.8063 31.2332 20.0031 31.4299 20.1757C32.1267 20.7877 32.3639 21.6763 32.4258 22.5282C32.5763 24.5962 33.6629 26.2158 34.7486 27.8341L34.8364 27.965C35.1884 28.4886 35.7843 28.5823 36.3894 28.6774C36.4927 28.6937 36.5963 28.71 36.6989 28.7285L36.7493 28.7375C37.8632 28.938 38.1249 28.9851 38.5495 28.1736L38.5959 28.0843C38.8606 27.5733 39.033 27.2403 39.639 27.7755C39.6839 27.8164 39.8817 27.6975 40.0348 27.6055L40.0576 27.5918C40.0762 27.5806 40.094 27.57 40.1106 27.5603C40.1728 27.5238 40.2469 27.4616 40.3149 27.4047L40.3149 27.4047C40.4064 27.328 40.4866 27.2608 40.5113 27.2781C41.1073 27.7073 41.1532 27.1425 41.1761 26.8597L41.1773 26.8454C41.1851 26.7497 41.1938 26.6533 41.2025 26.5563V26.5562V26.5562V26.5562L41.2025 26.5559C41.2599 25.916 41.3194 25.2536 41.1579 24.6631C41.1009 24.4556 41.0639 24.2376 41.0267 24.0185L41.0267 24.0184L41.0267 24.0184L41.0266 24.0183L41.0266 24.0183L41.0266 24.0182L41.0266 24.0181L41.0266 24.0181L41.0266 24.018L41.0266 24.0179L41.0266 24.0179L41.0266 24.0178L41.0265 24.0178L41.0265 24.0177L41.0265 24.0176L41.0265 24.0176L41.0265 24.0175L41.0265 24.0174L41.0265 24.0174L41.0265 24.0173L41.0265 24.0173L41.0264 24.0172L41.0264 24.0171L41.0264 24.0171L41.0264 24.017C40.933 23.4672 40.8384 22.9102 40.4273 22.4927C40.1343 22.2426 39.9814 21.8643 40.0179 21.4795C40.0004 21.2986 39.9317 21.1266 39.8199 20.9839C39.7574 20.8816 39.6953 20.7789 39.6332 20.6762C39.364 20.231 39.0946 19.7854 38.7893 19.3665C38.5842 19.0853 38.3597 18.8184 38.1353 18.5515C37.9058 18.2788 37.6764 18.0061 37.4678 17.7181C37.173 17.3115 36.8428 16.9311 36.5169 16.5557L36.5168 16.5556L36.5163 16.5549C36.4517 16.4805 36.3873 16.4063 36.3233 16.3321C36.2499 16.2469 36.1773 16.1597 36.1044 16.072L36.1044 16.072C35.6115 15.4797 35.103 14.8686 34.2249 14.7472C33.6017 14.6303 32.9852 14.4796 32.3782 14.2958C32.0453 14.6357 31.6442 14.6131 31.2449 14.5906C30.9884 14.5761 30.7325 14.5617 30.496 14.6434C30.2536 15.1182 30.1347 15.3512 29.9596 15.4066ZM137.706 111.031C137.905 109.755 138.372 108.618 139.366 107.836C139.339 107.612 139.31 107.407 139.284 107.216L139.284 107.215L139.283 107.213L139.283 107.213C139.231 106.831 139.185 106.501 139.169 106.17C139.139 105.518 138.962 104.855 138.337 104.692C137.592 104.499 137.148 104.209 137.114 103.41C137.098 103.319 137.042 103.24 136.96 103.195C136.236 102.879 135.735 102.312 135.234 101.745L135.234 101.745C134.972 101.45 134.711 101.154 134.418 100.894L134.303 100.792C133.649 100.208 133.614 100.176 132.445 100.259C132.21 100.276 131.976 100.311 131.707 100.351L131.549 100.374C131.463 100.387 131.373 100.4 131.278 100.412C130.764 99.817 130.288 99.1897 129.852 98.5339C129.741 98.3469 129.593 98.179 129.446 98.0109C129.135 97.6571 128.823 97.3019 128.839 96.7634C128.4 96.7047 128.149 96.3932 127.923 96.1107C127.775 95.9268 127.637 95.7552 127.463 95.6735L125.984 95.9693V96.7817C125.812 96.6331 125.712 96.5461 125.667 96.5067L125.117 96.8678C126.127 99.0548 127.341 101.14 128.743 103.097C128.973 103.386 129.009 103.786 128.834 104.113C128.623 103.801 128.413 103.501 128.207 103.206C127.752 102.557 127.317 101.935 126.936 101.281C126.449 100.442 126.007 99.5764 125.565 98.7089L125.565 98.7086L125.565 98.7079L125.565 98.7073L125.564 98.7066L125.564 98.706C125.373 98.3322 125.183 97.9581 124.988 97.5857C124.204 98.1438 124.205 98.1464 124.508 98.8445L124.522 98.8758C125.404 100.909 126.566 102.788 127.725 104.661L127.725 104.661C127.901 104.946 128.078 105.232 128.253 105.517C129.553 107.635 130.943 109.71 132.838 111.388C133.208 111.716 133.619 111.942 134.029 112.168L134.03 112.168C134.216 112.27 134.402 112.373 134.584 112.484C134.83 112.593 135.114 112.57 135.339 112.422C135.608 112.146 135.906 112.082 136.226 112.013L136.289 111.999C136.35 111.986 136.413 111.971 136.476 111.955C136.516 111.945 136.557 111.935 136.598 111.925C137.059 111.811 137.605 111.677 137.706 111.031ZM123.62 70.6806C123.389 70.4482 123.17 70.2174 122.956 69.9915C122.5 69.5118 122.067 69.0548 121.587 68.654C119.947 67.2853 119.004 65.4569 118.062 63.6289C117.841 63.1988 117.619 62.7686 117.388 62.3445C116.93 61.5014 116.968 60.5715 117.005 59.6523L117.005 59.6511C117.012 59.4799 117.019 59.309 117.023 59.1392C117.026 59.0118 117.146 58.8869 117.27 58.7581C117.328 58.6973 117.387 58.6355 117.436 58.5723L117.45 58.6017C117.651 59.0012 117.841 59.3798 118.116 59.9264V57.9238C118.249 57.8576 118.382 57.8008 118.51 57.7458C118.79 57.626 119.049 57.5151 119.245 57.3358C119.546 57.0844 119.959 57.0163 120.324 57.1577C120.586 57.2239 120.821 57.3965 121.068 57.5771C121.177 57.6575 121.289 57.7394 121.406 57.8143C121.183 58.8654 121.594 59.7455 122.104 60.6624C122.267 60.6178 122.441 60.6312 122.619 60.6449C122.935 60.6692 123.262 60.6944 123.554 60.3916C123.722 60.2916 123.929 60.2824 124.105 60.3669C124.37 60.5272 124.649 60.6697 124.928 60.8123C125.828 61.2719 126.73 61.7324 127.161 62.7932L127.19 62.8646L127.19 62.8653C127.285 63.1022 127.395 63.3777 127.58 63.4786C127.709 63.5492 127.735 63.6824 127.761 63.8148C127.796 63.9978 127.832 64.1792 128.139 64.1909C128.429 64.2021 128.403 64.4038 128.376 64.6091C128.362 64.712 128.348 64.8157 128.374 64.8968C128.49 65.1913 128.584 65.4937 128.656 65.8017C128.683 66.0925 128.687 66.385 128.666 66.6764C127.593 67.6522 126.772 68.8767 126.276 70.2437L123.62 70.6806ZM86.811 14.1857L86.809 14.1872C86.3315 14.5161 85.8615 14.8399 85.3764 15.1381C85.3373 15.1623 85.2309 15.0764 85.0966 14.9681L85.0964 14.968L85.0962 14.9678C85.025 14.9104 84.946 14.8466 84.865 14.7896C84.7513 15.0289 84.6202 15.2593 84.4726 15.479C84.2799 15.6983 84.076 15.9075 83.862 16.1058L83.8076 16.1625C83.4161 16.571 83.0277 16.9764 82.4489 16.3589C82.4205 16.3287 82.356 16.3357 82.2883 16.3431C82.2462 16.3477 82.2027 16.3524 82.166 16.3484C81.9935 16.3296 81.823 16.3264 81.6535 16.3234C81.1531 16.3143 80.6612 16.3053 80.1492 15.8931C79.9304 15.7169 79.6877 15.5622 79.4421 15.4057C79.0682 15.1673 78.6877 14.9248 78.3749 14.5958C77.8563 14.1152 77.4088 13.5623 77.0459 12.9541C76.5247 11.9563 76.0109 10.9699 76.1963 9.79872C76.3005 9.46378 76.4443 9.14262 76.6245 8.84212L77.5289 9.58808C77.5941 9.37061 77.6377 9.14343 77.6817 8.91382L77.6818 8.91361C77.7982 8.30708 77.9178 7.68362 78.4473 7.17748L79.3543 7.85904V6.79021C79.6532 6.7387 79.9437 6.671 80.2311 6.604C80.864 6.4565 81.482 6.31244 82.1424 6.35238C82.6511 6.36186 83.1394 6.55519 83.518 6.89703C83.6711 7.04422 83.8357 7.17712 84.0006 7.31034C84.3193 7.56766 84.6395 7.82613 84.8802 8.19095C85.0467 8.44396 85.2449 8.67603 85.4449 8.91033C85.6404 9.13915 85.8376 9.37011 86.0089 9.62479C86.3643 10.1544 86.5731 10.7404 86.7816 11.3254C86.9064 11.6757 87.0311 12.0257 87.1871 12.3631C87.3244 12.659 87.2884 13.0361 87.2527 13.4094C87.2366 13.5778 87.2206 13.7453 87.2206 13.9044C87.0853 13.9968 86.9511 14.0892 86.8174 14.1813L86.811 14.1857ZM25.4835 45.0935V41.9463L25.215 41.8819C25.1499 42.1076 25.0603 42.3377 24.9707 42.5679L24.9706 42.5679L24.9706 42.568C24.7672 43.0906 24.5637 43.6133 24.6467 44.084C24.6818 44.2802 24.7076 44.4812 24.7337 44.684L24.7337 44.6842C24.8164 45.3285 24.9015 45.9918 25.2945 46.5815C25.5263 46.9293 25.7114 47.311 25.8964 47.6925C26.3252 48.5764 26.7532 49.4589 27.7593 49.9144C27.9307 50.6279 28.5041 50.8781 29.0546 51.1182C29.2025 51.1828 29.3488 51.2466 29.4852 51.3185C30.3674 51.7837 31.3115 52.2363 32.348 51.5631C33.0377 51.1152 33.7482 50.6998 34.4514 50.2887L34.4516 50.2885C34.7588 50.1089 35.0646 49.9302 35.3667 49.7498C35.3353 49.2874 35.3393 48.8232 35.3786 48.3614C35.5282 47.447 35.1155 46.6715 34.631 46.0474C34.3475 45.683 34.1954 45.2325 34.1995 44.7698C33.9652 44.3245 33.6187 44.0542 33.2824 43.792C32.9853 43.5603 32.6963 43.3349 32.4999 43.0007C32.2416 42.6782 31.8514 42.4914 31.4398 42.4934C31.2 42.5067 30.9558 42.4814 30.7107 42.456H30.7106H30.7106H30.7106H30.7105H30.7105H30.7105H30.7104H30.7104H30.7104H30.7103H30.7103H30.7103H30.7102H30.7102H30.7102H30.7101H30.7101H30.7101H30.71H30.71C30.1546 42.3985 29.5942 42.3405 29.0686 42.7293C28.9883 42.7887 28.8276 42.7264 28.6546 42.6593L28.6545 42.6593C28.535 42.6129 28.4096 42.5643 28.3009 42.552C28.2167 42.5424 28.1262 42.5891 28.0062 42.651C27.9424 42.6839 27.8704 42.7211 27.7865 42.7564C27.826 42.4668 27.8191 42.1728 27.7659 41.8855C27.6813 41.6526 27.3995 41.2996 27.25 41.3216C26.8104 41.4093 26.3868 41.5644 25.994 41.7814C25.6953 41.9292 25.717 42.2012 25.738 42.4655C25.7442 42.5439 25.7504 42.6216 25.7482 42.6953C25.7435 42.8416 25.7414 42.9881 25.7393 43.1347V43.1349C25.73 43.7887 25.7207 44.4439 25.4835 45.0935ZM53.6903 57.8179L51.6938 55.809C51.6649 55.2645 51.6736 54.7186 51.7199 54.1753C51.7483 53.9647 52.0488 53.7541 52.2734 53.6304C52.3326 53.5977 52.4566 53.6835 52.5803 53.7692C52.6342 53.8065 52.688 53.8437 52.7364 53.8711C52.7672 53.8097 52.7962 53.7451 52.8254 53.68C52.9967 53.2983 53.1762 52.8985 53.7875 53.0177C53.9251 53.0565 54.0721 53.0424 54.1999 52.978C54.557 52.6882 54.9449 52.3915 55.4009 52.5194C55.5566 52.563 55.7156 52.6031 55.8755 52.6434C56.5553 52.8148 57.2502 52.9901 57.7662 53.4495C59.0258 54.5719 60.2229 55.7915 60.85 57.4126C61.2418 58.375 61.5403 59.3732 61.7415 60.3934C61.8443 60.9289 61.6331 61.4762 61.1981 61.8016C60.8787 62.0266 60.564 62.2586 60.2493 62.4905L60.2492 62.4906L60.2489 62.4907L60.2488 62.4908L60.2486 62.491L60.2485 62.491L60.2483 62.4912L60.2481 62.4913L60.2479 62.4915L60.2478 62.4915L60.2476 62.4917L60.2475 62.4918L60.2472 62.4919L60.2471 62.492L60.2469 62.4922L60.2468 62.4923L60.2465 62.4924L60.2464 62.4925L60.2462 62.4927L60.2461 62.4928C59.7457 62.8615 59.2455 63.2302 58.7267 63.5704C58.4213 63.7721 58.0612 63.8735 57.6962 63.8605C55.5777 63.676 54.068 62.6731 53.4424 60.2655C53.4126 60.1508 53.3691 60.0346 53.3257 59.9186C53.2364 59.6799 53.1474 59.4424 53.1793 59.2216C53.2985 58.7364 53.4698 58.2657 53.6903 57.8179ZM57.1519 109.93L57.3247 110.812C57.5311 110.344 57.6074 109.945 57.2584 109.491C57.0356 109.201 56.8847 108.867 56.7327 108.531L56.7326 108.531C56.5277 108.078 56.3205 107.62 55.9324 107.257C55.6756 107.051 55.4435 106.817 55.2409 106.557C54.202 104.836 52.6137 103.864 50.8589 103.088L50.8186 103.07L50.7903 103.057C50.5889 102.966 50.3199 102.844 50.2309 102.917C49.9465 103.15 49.7148 103.061 49.4692 102.968C49.4104 102.946 49.3509 102.923 49.2897 102.904C49.1121 102.85 48.8262 102.812 48.7254 102.909C48.385 103.238 47.9734 103.401 47.5585 103.566L47.5584 103.566C47.4688 103.602 47.3791 103.638 47.29 103.675C47.179 103.722 46.9709 103.826 47.1656 104.09C47.2608 104.22 47.2832 104.403 47.3088 104.612C47.3212 104.714 47.3344 104.822 47.357 104.932C46.6434 104.574 46.0531 104.416 45.6473 105.012C45.7215 105.205 45.7827 105.4 45.8426 105.59L45.8427 105.59L45.8427 105.59L45.8427 105.59L45.8427 105.59L45.8427 105.59L45.8428 105.59L45.8428 105.591L45.8428 105.591L45.8428 105.591L45.8429 105.591L45.8429 105.591L45.8429 105.591L45.8429 105.591L45.8429 105.591L45.843 105.591L45.843 105.591L45.843 105.591L45.843 105.591C45.9712 105.998 46.093 106.385 46.3204 106.693C46.5394 106.989 46.7213 107.315 46.9033 107.641C47.2925 108.338 47.6823 109.036 48.4362 109.446C49.2824 110.994 50.7143 111.83 52.1517 112.668L52.1517 112.668L52.1526 112.669C52.2735 112.739 52.3944 112.81 52.5151 112.881C52.966 113.215 53.5796 113.216 54.0325 112.885C54.0535 112.872 54.075 112.857 54.0971 112.841C54.2832 112.712 54.5085 112.555 54.8232 112.842C54.9728 112.928 55.1526 112.942 55.3137 112.881C55.4748 112.82 55.6005 112.69 55.6566 112.526C55.7733 112.092 56.0728 111.765 56.3733 111.436C56.7606 111.013 57.1497 110.587 57.1519 109.93ZM145.812 42.4229L145.931 41.5837C145.969 41.6108 146.005 41.6322 146.037 41.6511C146.095 41.686 146.14 41.7127 146.156 41.7513C146.258 42.0014 146.366 42.2487 146.474 42.4959L146.475 42.4964C146.765 43.1583 147.055 43.8201 147.215 44.5359L147.238 44.6386C147.37 45.2202 147.496 45.7738 146.934 46.2292C146.779 46.3542 146.744 46.5688 146.708 46.7835C146.65 47.1313 146.592 47.4792 146.029 47.4467C145.61 48.1237 144.945 48.075 144.301 48.0277L144.251 48.0241C144.136 48.4741 143.991 48.9156 143.816 49.3457C143.598 49.8007 142.899 49.9295 142.15 49.7143C142.081 49.6943 142.012 49.6547 141.945 49.6159C141.846 49.5592 141.75 49.5039 141.657 49.5121L141.625 49.515C140.445 49.6184 140.442 49.6186 139.936 48.6648C139.656 48.199 139.402 47.7176 139.175 47.2231C138.967 46.6431 138.518 46.1829 137.945 45.962C137.06 45.5877 136.43 44.7786 136.281 43.8237C136.138 42.9655 136.537 42.178 137.299 41.559L137.624 41.9854L137.633 41.9973L137.696 42.0802L137.718 42.1099L137.724 42.1179L137.728 42.1226L137.744 42.1432C137.989 42.4656 138.256 42.8166 138.58 43.2423C138.58 43.0176 138.579 42.8162 138.579 42.6307V42.6255V42.6204V42.6156V42.611V42.6065C138.577 42.2179 138.576 41.8988 138.582 41.5798C138.59 41.1998 138.624 41.1861 139.016 41.0248C139.115 40.9838 139.238 40.9333 139.39 40.8648C139.57 40.783 139.779 40.7628 139.987 40.7425C140.392 40.7031 140.797 40.6637 141 40.1727L142.577 40.1125C143.548 40.074 144.41 40.1806 144.863 41.2668C144.985 41.5625 145.225 41.8081 145.474 42.062C145.589 42.1786 145.705 42.2971 145.812 42.4229ZM0.433791 47.7587C0.522474 48.664 1.20181 49.3978 2.09295 49.5509L2.60283 48.3154C2.84806 49.1035 3.19018 49.6984 4.10708 49.7986C4.24129 49.5179 4.38961 49.2442 4.55147 48.9786C4.59675 48.9108 4.6629 48.8502 4.72842 48.7903C4.91308 48.6213 5.09275 48.4569 4.78593 48.146L5.65738 48.2119C5.86492 47.759 6.14274 47.1539 6.40322 46.587C6.49402 46.6099 6.58292 46.6328 6.67044 46.6554L6.67201 46.6558C6.95144 46.728 7.21685 46.7965 7.4852 46.8494C7.53245 46.8602 7.66074 46.729 7.65686 46.6688C7.64789 46.5385 7.60572 46.3285 7.52677 46.302C7.4477 46.2754 7.35122 46.2825 7.25789 46.2894C7.14544 46.2977 7.03756 46.3057 6.97023 46.2539C6.89412 46.1961 6.8744 46.0632 6.84753 45.8822C6.83355 45.788 6.81762 45.6807 6.79079 45.5642L7.37604 46.0862C7.37604 45.7493 7.37625 45.4181 7.37645 45.0913V45.091V45.0908C7.3772 43.8912 7.3779 42.7524 7.36827 41.6138C7.3676 41.5452 7.32488 41.4789 7.28126 41.4112C7.24736 41.3586 7.2129 41.3052 7.19721 41.2491C7.11047 40.9393 6.96661 40.6444 6.82556 40.3553C6.54741 39.7851 6.28017 39.2374 6.48337 38.6414C6.20127 37.8693 5.64249 37.8249 5.11716 37.7833C4.77259 37.7559 4.44241 37.7297 4.21414 37.5C4.02846 37.5975 3.84952 37.7135 3.67511 37.8267C3.29977 38.0701 2.94535 38.2999 2.58968 38.302C2.19977 38.3043 1.9156 38.5061 1.63696 38.7039C1.35288 38.9056 1.07455 39.1032 0.695762 39.0813C0.59857 39.0756 0.392521 39.3624 0.394913 39.5128C0.399013 39.7834 0.313985 40.0273 0.227969 40.2741C0.132003 40.5495 0.0348052 40.8284 0.0587761 41.1516C0.155168 42.418 0.156768 43.69 0.0635609 44.9566C0.0122191 45.6292 0.143844 46.2678 0.27455 46.9019C0.333416 47.1875 0.392095 47.4722 0.433791 47.7587ZM109.057 116.987L109.057 116.987L109.056 116.987C108.435 116.946 107.877 116.909 107.568 117.62C106.953 116.804 106.88 116.225 107.507 115.576C107.666 115.411 107.805 115.231 107.945 115.05L107.945 115.05L107.945 115.05L107.945 115.05L107.945 115.05L107.946 115.05L107.946 115.05L107.946 115.05L107.946 115.05L107.946 115.05L107.946 115.05L107.946 115.05L107.946 115.05L107.946 115.05L107.946 115.05L107.946 115.05C108.186 114.74 108.428 114.427 108.777 114.183C109.056 113.987 109.233 113.655 109.413 113.317C109.544 113.07 109.678 112.82 109.853 112.618C110.075 112.364 110.372 112.178 110.67 111.992C110.803 111.909 110.936 111.826 111.062 111.737L111.545 112.214L110.861 112.704L110.937 112.88L111.975 112.715C112.002 112.756 112.03 112.815 112.062 112.881C112.147 113.057 112.257 113.285 112.437 113.38C113.924 114.158 114.872 115.458 115.776 116.793C115.951 117.052 116.059 117.357 116.167 117.663L116.167 117.663C116.241 117.873 116.316 118.084 116.413 118.281L116.507 118.473C117.017 119.507 117.143 119.761 116.974 120.789C116.845 121.576 116.702 122.414 116.087 123.056C115.818 123.304 115.637 123.636 115.573 123.998C115.541 124.815 115.095 124.946 114.439 124.904C114.251 124.894 114.064 124.914 113.883 124.964C112.738 125.274 112.62 125.242 112.049 124.359C111.345 123.27 110.947 122.052 110.55 120.835L110.549 120.835C110.47 120.591 110.39 120.346 110.307 120.103C110.066 119.39 109.865 118.664 109.666 117.947L109.666 117.946C109.578 117.63 109.491 117.316 109.401 117.005C109.285 117.002 109.17 116.994 109.057 116.987ZM90.4907 100.703C90.6148 100.772 90.7392 100.842 90.8634 100.913C91.0297 100.406 91.3643 99.9964 91.763 100.285C92.3315 100.698 92.423 100.298 92.4927 99.9675C92.5062 99.903 92.5145 99.8354 92.5227 99.7682C92.551 99.5365 92.5788 99.3096 92.8189 99.2317C93.1933 99.1104 93.3769 98.8207 93.558 98.5348C93.6361 98.4117 93.7136 98.2892 93.8058 98.1813C94.0537 97.8906 94.2978 97.398 94.2215 97.0712C94.0658 96.5187 93.7908 96.0077 93.4162 95.5745C93.2035 95.3127 92.9338 95.0994 92.6633 94.8854C92.4854 94.7447 92.3072 94.6037 92.1446 94.4484C91.9382 94.2517 91.7385 94.047 91.5387 93.8422C90.9719 93.2611 90.4047 92.6797 89.6842 92.2792C89.3678 92.1034 89.0726 91.8896 88.7775 91.6757L88.7775 91.6756C88.2231 91.2739 87.669 90.8723 86.9742 90.7241C86.2836 90.6275 85.6431 90.3068 85.15 89.8108C84.6162 89.2391 84.2077 89.3269 83.4753 89.8409C83.3872 89.9027 83.278 89.9648 83.1681 90.0273C82.9096 90.1745 82.6468 90.324 82.6436 90.4773C82.635 90.8754 82.4035 90.8795 82.1728 90.8835C81.9605 90.8873 81.7489 90.891 81.7123 91.2016C82.3583 92.6743 83.4417 93.9366 84.5193 95.1921C84.6426 95.3358 84.7658 95.4794 84.8883 95.6232C85.6513 96.5186 86.4982 97.3414 87.3452 98.1644L87.3454 98.1646C87.758 98.5654 88.1706 98.9663 88.5736 99.3756C89.1323 99.9429 89.806 100.32 90.4907 100.703ZM146.494 89.264L146.494 89.2639L146.467 89.2168C145.835 88.1232 145.282 86.986 144.81 85.8138C144.71 85.5589 144.592 85.307 144.474 85.0536C144.051 84.1442 143.619 83.2157 143.901 82.0647C144.451 82.4503 144.689 83.0201 144.936 83.6106C145.161 84.1482 145.393 84.7031 145.875 85.1518C145.77 84.3091 145.479 83.5748 145.176 82.8117C144.944 82.2259 144.705 81.6232 144.538 80.9414L145.495 81.4698C145.541 81.2143 145.588 80.9465 145.636 80.6796L147.02 80.4151C147.06 80.4781 147.102 80.5497 147.148 80.627L147.148 80.6271L147.149 80.6284C147.262 80.8189 147.396 81.0433 147.546 81.2553C148.365 82.4094 148.376 82.4135 149.838 82.9364L149.875 82.9494C150.042 83.0167 150.202 83.1021 150.351 83.2043C151.511 83.9421 152.568 84.7738 153.207 86.0566C153.506 86.6322 153.691 87.2609 153.751 87.9075C153.77 88.0433 153.833 88.1688 153.93 88.2647C154.024 88.3464 154.069 88.4719 154.047 88.5949C154.025 88.7179 153.94 88.8202 153.824 88.8641C153.462 89.0699 153.213 89.3854 152.965 89.7004C152.764 89.955 152.564 90.2094 152.304 90.4051C152.09 90.5919 151.967 90.8631 151.966 91.1483C151.905 91.5681 151.087 92.1113 150.706 92.0234C150.627 92.0051 150.558 91.9444 150.488 91.8835C150.35 91.7621 150.21 91.6402 149.997 91.8543C149.836 92.036 149.688 92.228 149.552 92.429C147.912 91.7495 147.195 90.493 146.494 89.264ZM101.454 58.3935L102.344 58.2455C102.532 57.9258 102.454 57.6094 102.375 57.2911C102.304 57.0032 102.233 56.7139 102.357 56.4192C102.378 56.2601 102.286 56.1079 102.137 56.0519C101.987 55.996 101.819 56.0511 101.731 56.1848C101.689 56.2271 101.56 56.1816 101.43 56.1361C101.371 56.1152 101.311 56.0943 101.26 56.0819C101.273 56.0405 101.284 55.9877 101.296 55.9348C101.321 55.8217 101.346 55.7085 101.376 55.7073C102.151 55.6763 101.92 55.0269 101.815 54.7504C101.727 54.5186 101.642 54.2845 101.557 54.05C101.211 53.0934 100.864 52.1318 100.26 51.3037L100.252 51.2926C99.9379 50.8627 99.5385 50.3153 98.864 50.874C98.8287 50.9017 98.7181 50.8765 98.6646 50.8415C98.0757 50.4573 97.7136 50.6854 97.4683 51.2697C97.2542 51.7799 97.0249 51.547 96.8454 51.3647L96.8143 51.3332L96.0134 51.9721L96.3424 53.2239C96.1856 53.1333 96.0858 52.9945 95.988 52.8585C95.8208 52.626 95.6595 52.4018 95.2296 52.4415L95.138 52.6004L95.1378 52.6008L95.1373 52.6017L95.1367 52.6026L95.1366 52.6029L95.1361 52.6038C95.0467 52.759 94.9472 52.9319 94.8453 53.1035C94.7956 53.1866 94.7498 53.2876 94.704 53.3887C94.6025 53.6124 94.5009 53.8365 94.3567 53.8678C93.76 53.9975 93.8989 54.3198 94.0244 54.611C94.0407 54.6489 94.0569 54.6863 94.0711 54.7227C94.2346 55.1415 94.4179 55.5523 94.6014 55.9633C94.7303 56.2522 94.8593 56.5412 94.9814 56.833C95.0375 57.0144 95.0752 57.201 95.0938 57.39L94.8576 57.4664C94.4156 56.4897 93.9739 55.5129 93.4778 54.4158C93.266 55.3122 93.5307 55.92 93.8268 56.5799C94.2981 57.6218 94.9012 58.5981 95.6211 59.4846C96.5293 60.6103 97.6185 61.5444 99.2534 61.2398C99.3877 61.226 99.5229 61.2249 99.6574 61.2365L101.813 59.067L101.454 58.3935ZM97.0652 26.945L97.6678 27.5516L97.7162 27.1326C97.7443 26.8897 97.7706 26.6618 97.7982 26.4211C97.9763 26.3835 98.1561 26.3431 98.3373 26.3023C98.7663 26.2058 99.2032 26.1075 99.6452 26.0419C100.029 25.9856 100.42 25.9869 100.803 26.0458C100.925 26.0647 100.955 26.1714 100.99 26.2922C101.037 26.4587 101.092 26.652 101.404 26.6796C101.692 26.7045 101.925 27.1173 102.137 27.4935L102.137 27.4939L102.138 27.4944L102.138 27.4956C102.182 27.5729 102.225 27.6485 102.267 27.7189C102.331 27.8272 102.344 27.9758 102.357 28.1263C102.384 28.4436 102.412 28.7689 102.93 28.7393L103.01 30.168C103.011 30.1999 103.017 30.2317 103.022 30.2635L103.027 30.2906L103.029 30.3058L105.196 32.4856C105.433 32.4691 105.671 32.4715 105.908 32.4929C106.27 32.5509 106.659 32.9117 106.474 33.1356C106.253 33.402 106.363 33.6247 106.467 33.8363C106.558 34.0198 106.645 34.1949 106.508 34.3829C105.38 34.7232 105.025 34.7605 104.108 34.5992C104.337 35.0991 104.537 35.5348 104.789 36.0821C104.745 36.1243 104.698 36.1843 104.647 36.2478C104.528 36.3981 104.393 36.568 104.259 36.5669C104.004 36.565 103.745 36.5774 103.486 36.5899C102.529 36.6358 101.566 36.682 100.723 36.0066C100.409 35.8059 100.119 35.5714 99.8557 35.3073C99.4157 34.7526 99.0148 34.1661 98.6143 33.5802L98.4863 33.3929L98.4104 33.2822C98.2762 33.0867 98.1535 32.8833 98.0308 32.6799C97.9416 32.532 97.8524 32.3841 97.7587 32.2392C97.6285 32.0374 97.5622 31.8022 97.4958 31.567C97.3868 31.1804 97.2777 30.7939 96.8852 30.5565C96.9582 30.0621 96.7632 29.6595 96.5639 29.2479L96.5638 29.2477C96.5027 29.1216 96.4413 28.9946 96.387 28.8639C96.2145 28.5204 96.1895 28.1208 96.3176 27.7582C96.4458 27.3957 96.716 27.1018 97.0652 26.945ZM53.4209 5.20199H52.0751C51.1955 5.10513 50.3056 5.21293 49.474 5.51705C49.118 5.64524 48.8063 5.86601 48.4921 6.08849C48.1728 6.31463 47.851 6.54252 47.4778 6.67676C47.3934 6.70685 47.3223 6.91749 47.3309 7.03786C47.3545 7.40979 47.4045 7.77955 47.4805 8.14431C47.6274 8.82434 48.0228 9.36132 48.4194 9.9C48.5386 10.0619 48.6579 10.2239 48.7706 10.39C49.7329 11.807 50.8834 12.8698 52.7235 12.8343C52.8608 12.823 52.9975 12.8626 53.1078 12.9457C53.4605 13.326 53.7452 13.1531 54.0286 12.9809C54.1835 12.8868 54.3381 12.793 54.5032 12.7898C54.8946 12.1678 55.5222 11.8482 56.1341 11.5366C56.3511 11.4261 56.5661 11.3166 56.7679 11.1949C57.4545 10.7812 57.6498 10.3455 57.5039 9.73854C57.4749 9.61789 57.4473 9.49614 57.4196 9.37407C57.2029 8.41837 56.9817 7.44308 56.075 6.8227C55.9537 6.73918 55.8548 6.62151 55.7557 6.50358C55.548 6.25652 55.3393 6.0083 54.9221 6.07043C54.7949 6.06068 54.6817 5.9853 54.6231 5.87122C54.5149 5.18577 54.0426 5.1931 53.5676 5.20047C53.5186 5.20123 53.4696 5.20199 53.4209 5.20199ZM49.738 76.3525C49.9513 76.6901 50.108 76.9384 50.4127 77.4205C50.4389 77.2235 50.459 77.0767 50.4749 76.9605L50.475 76.9599L50.4751 76.9593C50.5004 76.7745 50.515 76.6675 50.5269 76.5599L50.5272 76.5578C50.5564 76.292 50.5723 76.1482 50.6513 76.0633C50.7443 75.9633 50.9249 75.9449 51.3181 75.9047L51.32 75.9045C51.3434 75.9021 51.3699 75.9011 51.397 75.9001C51.4762 75.8971 51.5604 75.894 51.5847 75.8554C51.8607 75.3718 52.4397 75.1545 52.963 75.3382C53.5754 75.4893 54.1519 75.7609 54.6596 76.1371C56.4659 77.6687 57.5281 79.7218 58.3532 81.9001C58.4497 82.1545 58.4234 82.4558 58.3972 82.7551C58.3852 82.8928 58.3732 83.03 58.3732 83.1622L57.8167 83.1002C57.8532 83.6262 57.7351 84.0155 57.1238 84.1404C56.9004 84.2212 56.7311 84.4078 56.6716 84.639C56.635 85.0157 56.3915 85.0592 56.1526 85.1019C55.9898 85.131 55.8292 85.1597 55.7377 85.2932C55.5451 84.985 55.2785 85.0405 55.0101 85.0963C54.7762 85.145 54.5409 85.194 54.3521 85.0025C54.216 84.8641 54.0624 84.7369 53.9092 84.61C53.6252 84.3746 53.3428 84.1406 53.1763 83.8395C52.5843 82.8292 52.1026 81.7576 51.7393 80.6432C51.6275 80.1422 51.3189 79.708 50.8837 79.4396C50.1849 79.0569 49.6244 78.4616 49.2823 77.7388L49.2709 77.714C48.9938 77.1084 48.9918 77.104 49.738 76.3525ZM77.0719 58.7621C77.045 58.9376 77.041 59.1158 77.06 59.2923C77.3348 59.6823 77.6388 60.0251 77.9367 60.3611C78.0783 60.5208 78.2186 60.679 78.3537 60.8399C79.1877 61.8405 80.0466 62.8666 81.3529 63.3977C82.2252 63.7519 83.0336 63.6465 83.4902 63.0345C83.6211 62.8591 83.8089 62.7319 83.9958 62.6052C84.3302 62.3785 84.6619 62.1537 84.6598 61.659C85.4571 61.5453 85.3213 60.8818 85.1981 60.462C84.8539 59.2878 84.4744 58.1004 83.6371 57.1607C83.483 56.9876 83.2946 56.8461 83.1061 56.7044L83.106 56.7043C82.9317 56.5733 82.7572 56.4422 82.6095 56.2859C82.3652 56.0276 82.1511 55.7404 81.92 55.4304L81.9199 55.4303C81.815 55.2896 81.7066 55.1442 81.5903 54.9947L79.4479 55.4109L79.4127 55.6269L79.3891 55.7713L79.3886 55.7739C79.3586 55.9575 79.3281 56.1436 79.2918 56.3693L77.6718 55.0396C77.5599 55.1462 77.4534 55.2692 77.3531 55.3852C77.149 55.6212 76.9701 55.828 76.8213 55.8078C76.5798 55.7754 76.3795 55.8434 76.1792 55.9115C75.9826 55.9782 75.786 56.0449 75.5503 56.0169C75.6778 56.187 75.8851 56.217 76.085 56.2459C76.3946 56.2907 76.6863 56.3329 76.6356 56.8896L75.9549 56.5953C75.7257 57.2884 76.1793 57.559 76.6506 57.8401L76.6509 57.8403C76.6972 57.8679 76.7436 57.8956 76.7896 57.9238C76.7149 57.6677 76.6416 57.4114 76.5504 57.0936C76.7047 57.1117 76.8549 57.1561 76.9945 57.2248C77.1436 57.3391 77.2611 57.4899 77.3357 57.6629C77.3532 57.7104 77.315 57.7743 77.2745 57.8421C77.2374 57.9041 77.1984 57.9694 77.1984 58.0282C77.1991 58.0943 77.233 58.1621 77.2663 58.2287C77.303 58.3021 77.339 58.374 77.3288 58.4405C77.3198 58.5003 77.261 58.5514 77.2016 58.6031C77.1444 58.6529 77.0866 58.7031 77.0719 58.7621ZM101.084 78.3145L101.806 78.5621C101.835 77.8952 101.478 77.4877 101.116 77.0745C100.808 76.7233 100.497 76.3681 100.416 75.8461C100.631 75.9172 100.838 76.0124 101.032 76.1299C101.295 76.3637 101.545 76.6111 101.782 76.871C101.753 76.4264 101.568 76.0067 101.26 75.6869C101.69 75.1638 101.878 74.9341 102.121 74.8327C102.311 74.7532 102.534 74.7526 102.931 74.7514C103.082 74.9225 103.226 75.1101 103.372 75.2994L103.372 75.2994C103.706 75.734 104.047 76.1774 104.491 76.4503C104.92 76.7137 105.164 77.0905 105.407 77.4646C105.563 77.7052 105.719 77.9447 105.922 78.1523C106.396 78.7061 106.785 79.3281 107.076 79.9978C107.281 80.3559 107.377 80.7669 107.351 81.1794C107.276 81.651 107.077 82.3443 106.745 82.4785C106.365 82.6325 106.309 82.8677 106.252 83.109C106.227 83.2138 106.202 83.3197 106.15 83.4206C105.915 83.8762 105.593 84.3195 105.003 84.4173C104.878 84.438 104.744 84.4861 104.612 84.5335L104.612 84.5335C104.381 84.6167 104.156 84.6976 103.995 84.6246C103.361 84.3639 102.782 83.9827 102.291 83.5019C101.441 82.5674 100.653 81.5789 99.9302 80.5424C99.808 80.3719 99.8041 80.1157 99.7994 79.8144V79.8143V79.8141C99.797 79.661 99.7945 79.4961 99.7761 79.3249L100.325 79.7697C100.253 79.2725 100.516 78.9924 100.764 78.728C100.89 78.5947 101.011 78.4655 101.084 78.3145ZM92.6422 131.682L93.4197 132.111C93.3391 131.618 93.2253 131.131 93.0791 130.653C93.0026 130.459 92.731 130.186 92.5815 130.205C92.2534 130.248 92.0548 130.065 91.8697 129.895C91.7501 129.785 91.6361 129.68 91.4965 129.644C91.1431 129.556 90.9431 129.338 90.7444 129.121C90.6667 129.036 90.5892 128.951 90.5028 128.875C90.3277 128.72 90.1687 128.537 90.0106 128.356C89.7427 128.048 89.4772 127.743 89.1406 127.579C88.805 127.416 88.5632 127.176 88.3244 126.94C88.17 126.787 88.0169 126.636 87.8406 126.507C87.5295 126.279 87.2143 126.057 86.8999 125.836L86.8997 125.836L86.8995 125.836L86.8992 125.836L86.899 125.836L86.8981 125.835L86.8971 125.834L86.7345 125.72C86.6502 125.66 86.566 125.601 86.482 125.541H84.9033C85.0597 126.073 84.7829 126.074 84.5038 126.074C84.2856 126.075 84.0659 126.075 84.0507 126.329C84.0338 126.53 84.1824 126.662 84.3325 126.796C84.5414 126.982 84.7531 127.17 84.525 127.55C84.4472 127.483 84.3729 127.407 84.2992 127.332C84.0071 127.036 83.7242 126.749 83.2719 127.028C83.3122 127.875 83.8551 128.394 84.3984 128.913L84.4765 128.987C84.5876 129.082 84.69 129.186 84.7827 129.299C85.7159 130.605 86.7444 131.839 87.8597 132.991C87.9907 133.125 88.0894 133.29 88.1883 133.455C88.28 133.609 88.3718 133.762 88.4895 133.891L88.5383 133.944C88.971 134.419 89.4187 134.91 90.1681 134.805C90.207 134.492 90.05 134.254 89.8961 134.02C89.7103 133.737 89.5289 133.461 89.7013 133.07L91.1771 134.555L91.9502 134.104L91.2665 132.506C92.2334 132.935 92.3132 132.873 92.6422 131.682ZM83.4032 34.0074C83.5749 34.0189 83.7284 33.9958 83.8745 33.9739C84.155 33.9317 84.408 33.8937 84.7095 34.113L84.123 34.3161C84.1696 34.4752 84.2177 34.6342 84.2657 34.7932L84.2658 34.7935L84.2659 34.7938L84.266 34.7941L84.2661 34.7944C84.3955 35.2225 84.525 35.651 84.6272 36.0842C84.6634 36.2371 84.5839 36.5386 84.4777 36.5835C84.135 36.729 83.9324 37.0064 83.7319 37.2809C83.5901 37.4752 83.4493 37.668 83.2606 37.8118C83.0287 37.9538 82.7647 38.0343 82.4935 38.0456C82.4273 38.053 82.3552 38.0061 82.2832 37.9593C82.2116 37.9128 82.1401 37.8664 82.0748 37.8735C81.9011 37.9286 81.7389 38.0153 81.5963 38.1292L81.5783 38.0651C81.3466 37.2378 81.3346 37.195 80.3741 36.8654C80.008 36.74 79.8221 36.4674 79.6336 36.191C79.5186 36.0224 79.4027 35.8524 79.2443 35.7135L79.0596 36.109L78.9587 36.3253C78.9112 36.275 78.8531 36.2262 78.7963 36.1784C78.6777 36.0789 78.5647 35.9839 78.5651 35.8896C78.5729 34.1422 78.5714 34.1024 77.7783 33.0556C77.5085 33.5307 77.7112 33.8853 77.9258 34.2608C78.068 34.5096 78.2155 34.7675 78.234 35.0756C78.1649 35.0648 78.0846 35.0602 78.0065 35.0556C77.845 35.0463 77.6929 35.0375 77.6679 34.976C77.6128 34.8412 77.5534 34.7075 77.4941 34.574C77.1526 33.8052 76.814 33.0431 77.3091 32.1116C77.3319 32.0688 77.3523 32.0285 77.3715 31.9908C77.5041 31.7297 77.5734 31.5932 77.9278 31.5874C78.1963 31.5557 78.4521 31.4544 78.6701 31.2934C79.0786 31.0335 79.4766 30.7572 79.8931 30.4681L79.8932 30.468L79.8938 30.4676C80.0658 30.3481 80.241 30.2265 80.4213 30.103L80.6606 30.4641C80.8664 30.6082 81.0759 30.5275 81.2554 30.4584C81.5009 30.3638 81.6902 30.2909 81.7372 30.8448C81.7462 30.9497 81.8415 30.9178 81.9553 30.8797C82.1368 30.819 82.3652 30.7426 82.3652 31.1803C82.3652 31.3713 82.6069 31.5624 82.8394 31.7463L82.8394 31.7464L82.8395 31.7464C82.9425 31.8279 83.0436 31.9079 83.1212 31.9858C83.0714 32.1168 83.0226 32.2443 82.9744 32.3703L82.8595 32.671C82.9311 32.7214 83.0028 32.7715 83.0745 32.8215L83.2265 32.531L83.4878 32.0313C83.6734 32.3483 83.8033 32.5702 83.9343 32.7937L84.0979 33.073C83.8841 33.3613 83.6436 33.6845 83.4032 34.0074ZM33.5056 76.6826L34.4028 77.821C34.5739 77.7055 34.7314 77.5708 34.8723 77.4196C34.95 77.2576 35.0182 77.0912 35.0766 76.9212L35.0886 76.8956L35.0886 76.8955C35.1592 76.7446 35.2714 76.5045 35.3137 76.5147C35.6489 76.5963 35.8788 76.3932 36.108 76.1907C36.3538 75.9735 36.5989 75.757 36.9723 75.8924C37.0235 75.78 37.0687 75.6649 37.1078 75.5476C36.8182 75.4107 36.8727 75.2002 36.9265 74.9921C36.9548 74.8827 36.983 74.7739 36.9609 74.6768C36.8661 74.2584 36.6439 73.9245 36.4242 73.5943C36.2688 73.3609 36.1147 73.1294 36.0078 72.8713C35.5524 71.7519 34.8469 70.7531 33.9459 69.9524L30.9658 70.3737V71.8018C30.7381 71.7203 30.5798 71.5398 30.4262 71.3648C30.2058 71.1135 29.9953 70.8736 29.6039 70.9536C29.4289 71.76 29.4552 72.5391 29.8978 73.1596C30.2641 73.673 30.5861 74.2131 30.9076 74.7526C31.2178 75.2729 31.5275 75.7926 31.8764 76.2872C32.187 76.7781 32.6214 77.1772 33.1354 77.4439L33.5056 76.6826ZM66.6911 95.5612L67.2683 96.9036L67.5375 96.1895C67.5448 96.1941 67.5527 96.1985 67.5609 96.2027C67.576 96.2106 67.5923 96.2182 67.6085 96.2257C67.6615 96.2502 67.7139 96.2745 67.7235 96.3099C67.8496 96.8042 68.101 97.257 68.4532 97.6243C68.6621 97.8678 68.8367 98.1392 68.972 98.4307C69.1966 98.9331 69.6554 99.2897 70.1952 99.3816C70.2885 99.1908 70.3848 98.994 70.4293 98.9025L71.229 99.5044C71.229 99.5765 71.232 99.6324 71.2342 99.6746C71.2377 99.7392 71.2394 99.7716 71.226 99.7803C71.0175 99.9168 70.8051 100.047 70.6035 100.171L70.4458 100.268C70.5169 100.668 70.5815 101.031 70.6778 101.575L69.6581 101.075L69.34 101.72L69.0701 102.267L68.3646 102.348V103C67.6326 103.552 67.033 103.478 66.3981 102.895C66.1357 102.654 65.8606 102.428 65.5817 102.198L65.5816 102.198C65.1254 101.822 64.6589 101.438 64.2209 100.969L65.1181 100.372C64.9482 99.7719 64.6538 99.2144 64.2541 98.7367C63.9643 98.3763 63.7662 97.9414 63.5715 97.5138L63.5714 97.5136C63.4868 97.328 63.4029 97.1438 63.3124 96.9677C63.6501 96.5487 63.9317 96.7063 64.2285 96.8725C64.307 96.9165 64.3866 96.961 64.4686 96.9957C64.474 96.948 64.4847 96.8993 64.4951 96.8517C64.5172 96.7514 64.5382 96.6557 64.5065 96.5837C64.2144 95.9217 64.3406 95.5952 64.9602 95.5663C65.3635 95.548 65.768 95.5526 66.1665 95.5572C66.3427 95.5592 66.5178 95.5612 66.6911 95.5612ZM25.8944 102.393L25.2015 101.361L25.1644 101.386L25.1071 101.424C24.8403 101.599 24.6055 101.753 24.5642 102.182C24.4698 103.158 24.8541 103.982 25.2372 104.803C25.3358 105.014 25.4342 105.225 25.5245 105.439C25.7054 105.867 26.4354 106.007 27.0144 105.879C27.2468 105.834 27.4841 105.818 27.7204 105.833C28.3118 105.894 28.8451 105.474 28.9292 104.882C29.0201 104.465 29.1212 104.186 29.5545 104.062C29.9436 103.98 30.1972 103.602 30.1269 103.208C30.1241 103.168 30.1207 103.127 30.1172 103.087C30.0888 102.755 30.0596 102.414 30.3961 102.144C30.4878 101.971 30.4861 101.763 30.3916 101.591C30.3372 101.514 30.2206 101.466 30.1115 101.422C29.9964 101.376 29.8895 101.332 29.8724 101.26C29.8512 101.17 29.9147 101.065 29.9806 100.956C30.0411 100.855 30.1036 100.752 30.1045 100.654C30.1111 99.966 29.6027 99.6055 29.0674 99.3987C28.9241 99.3431 28.7652 99.3392 28.6024 99.3353C28.3569 99.3294 28.1025 99.3233 27.8795 99.1387C27.8591 99.1218 27.7391 99.2335 27.5977 99.365L27.5975 99.3652L27.5975 99.3653C27.4848 99.4701 27.3586 99.5875 27.2584 99.6626C27.1305 99.7304 26.9942 99.781 26.8532 99.8131V101.012C26.6752 100.64 26.5858 100.453 26.5126 100.299H25.6647C25.7011 100.461 25.7371 100.617 25.7722 100.769L25.7722 100.77C25.8669 101.181 25.9551 101.564 26.0275 101.95C26.0409 102.021 26.008 102.101 25.9656 102.204C25.9427 102.259 25.917 102.322 25.8944 102.393ZM71.9506 74.9719L73.1567 75.3273C73.3538 74.8549 73.4121 74.4011 72.9961 73.9786C73.2988 73.7017 73.5416 73.8364 73.7934 73.9761C73.9664 74.0722 74.1438 74.1706 74.3478 74.1393L74.4926 73.3545C74.6899 73.1427 74.8779 73.2343 75.0761 73.3308C75.2719 73.4263 75.4779 73.5266 75.7127 73.3437C76.0051 73.117 76.1657 73.322 76.3373 73.5411C76.4504 73.6854 76.5683 73.836 76.7319 73.873C76.9818 73.9734 77.1956 74.1475 77.3453 74.3725C77.5743 74.6553 77.7225 74.9871 77.8714 75.3207C78.0783 75.784 78.2866 76.2505 78.7152 76.5933C78.8331 76.6876 78.8303 76.9343 78.8272 77.216C78.8256 77.3568 78.824 77.5062 78.8372 77.6498C78.4179 77.4426 78.2006 77.685 77.9822 77.9285C77.7747 78.1598 77.5663 78.3922 77.1829 78.2417C77.11 78.3604 77.0798 78.5083 77.0489 78.6593C76.9773 79.0095 76.9023 79.3766 76.2836 79.4363L75.835 78.6662L75.6627 79.0294L75.4836 79.4062C75.0094 79.5189 74.7811 79.1315 74.6198 78.858L74.5975 78.8203C74.0745 77.9299 73.3346 77.1884 72.4476 76.6658C71.889 76.3303 71.5831 75.7835 71.9506 74.9719ZM63.0077 37.46L64.8579 36.0009C64.8242 35.8541 64.8013 35.6906 64.7776 35.5211C64.7222 35.1253 64.6622 34.6965 64.4488 34.3693C63.9204 33.5233 63.2646 32.7649 62.505 32.1212C61.6129 31.403 60.5593 30.8108 59.4403 31.864C59.3685 31.9315 59.2533 31.9522 59.1233 31.9756C59.0557 31.9878 58.9841 32.0007 58.9124 32.0213C58.9381 32.1526 58.951 32.2848 58.9633 32.4107C58.9885 32.6678 59.0111 32.8988 59.1343 33.0426C59.2172 33.1394 59.3019 33.2347 59.3864 33.3298C59.8897 33.8958 60.3857 34.4537 60.4487 35.2808C60.8879 35.6387 61.1133 36.1296 61.3369 36.6168C61.4711 36.909 61.6046 37.1999 61.7834 37.46H63.0077Z" fill="#171B1B"/>
</svg>
