<svg width="66" height="57" viewBox="0 0 66 57" fill="none" xmlns="http://www.w3.org/2000/svg">
<path fill-rule="evenodd" clip-rule="evenodd" d="M1.53967 1.17584L1.53967 1.17584C1.50985 1.21744 1.47876 1.26082 1.4455 1.30644C1.03919 1.1171 0.93075 1.12606 0.731295 1.43675L0.71845 1.4567C0.622111 1.60622 0.51976 1.76507 0.549643 1.97651C0.564212 2.07906 0.560019 2.18413 0.555821 2.28933C0.551818 2.38963 0.547811 2.49005 0.560048 2.58856C0.61082 2.99473 0.711864 3.3854 1.02929 3.6807C1.13131 3.77551 1.22864 3.87539 1.32947 3.97885L1.32947 3.97885L1.32948 3.97886L1.3295 3.97888L1.32957 3.97896C1.37614 4.02675 1.42346 4.0753 1.47232 4.12447L1.63981 4.12447C1.66012 4.12447 1.68043 4.12427 1.70076 4.12408L1.70078 4.12408H1.70078L1.70079 4.12408H1.70079H1.7008H1.7008H1.70081H1.70081H1.70082H1.70082L1.70083 4.12408L1.70083 4.12408H1.70084H1.70084H1.70084L1.70085 4.12408L1.70085 4.12408H1.70086H1.70086H1.70087H1.70087H1.70088C1.7415 4.12368 1.78213 4.12329 1.82272 4.12447C2.13921 4.13361 2.13953 4.13455 2.26559 4.51229L2.26851 4.52106C2.28029 4.55645 2.30198 4.59154 2.32327 4.62597C2.35549 4.67806 2.38678 4.72865 2.38134 4.7765C2.34887 5.0602 2.51247 5.20362 2.71305 5.33847L2.9278 4.63446L3.01756 4.65238V5.33355C3.43929 5.4301 3.48074 5.15139 3.51941 4.89137L3.52667 4.84323C3.78041 4.95789 3.9766 4.97682 4.09908 4.72655C4.19761 4.52527 4.28161 4.61179 4.36726 4.70002C4.37903 4.71215 4.39084 4.72431 4.40271 4.73576C4.65016 4.35909 4.76151 3.90834 4.71813 3.45894C4.69827 3.10904 4.70239 2.75787 4.70651 2.40663C4.70863 2.2258 4.71076 2.04495 4.70961 1.86424C4.70411 1.75902 4.69331 1.65415 4.67726 1.55002L4.61458 1.5528L4.55553 2.1439C4.4871 1.9931 4.45617 1.82781 4.4654 1.66229C4.46209 1.50407 4.44667 1.34635 4.41926 1.19052C4.37953 1.04942 4.33014 0.911258 4.27146 0.777019L4.17355 1.06097C3.96524 0.681015 3.96469 0.681148 3.57911 0.775016L3.57606 0.775758C3.52328 0.788498 3.43866 0.80742 3.41585 0.782191C3.29149 0.642173 3.20636 0.673456 3.06357 0.776893C3.03018 0.801046 2.96627 0.773464 2.89587 0.743078C2.83096 0.715064 2.76053 0.684666 2.7034 0.690233C2.55426 0.712756 2.41189 0.768102 2.28644 0.852327C2.20283 0.904166 2.13494 0.867117 2.0688 0.831031C2.00781 0.797748 1.94831 0.765284 1.87938 0.80414C1.82701 0.829422 1.77971 0.864185 1.73985 0.906694C1.67238 0.990672 1.60953 1.07837 1.53969 1.17581L1.53968 1.17582L1.53968 1.17582L1.53967 1.17583L1.53967 1.17583L1.53967 1.17584ZM13.0786 6.80293C13.0078 6.82533 12.9152 6.77868 12.7334 6.68707C12.6981 6.73896 12.6511 6.78086 12.6038 6.82316C12.5028 6.91331 12.3998 7.00525 12.403 7.19946C12.4033 7.4547 12.4989 7.7005 12.6709 7.88808C12.6901 7.90991 12.709 7.93359 12.7281 7.95751L12.7281 7.95752C12.7892 8.03418 12.8523 8.11323 12.9313 8.1415C13.1629 8.22443 13.3144 8.39476 13.4656 8.56469C13.5391 8.64728 13.6125 8.72978 13.6949 8.8021C13.987 9.05868 14.0864 9.43118 14.1124 9.78829C14.1755 10.6552 14.631 11.3341 15.0861 12.0125L15.1229 12.0674C15.2705 12.2869 15.5203 12.3262 15.7739 12.3661C15.8173 12.3729 15.8607 12.3797 15.9037 12.3875L15.9248 12.3913C16.3918 12.4753 16.5015 12.495 16.6795 12.1549L16.6989 12.1174C16.8099 11.9032 16.8822 11.7636 17.1362 11.988C17.155 12.0051 17.2379 11.9553 17.3021 11.9167L17.3339 11.8978C17.36 11.8824 17.391 11.8564 17.4195 11.8325C17.4579 11.8004 17.4915 11.7722 17.5019 11.7795C17.7517 11.9594 17.7709 11.7226 17.7806 11.604L17.781 11.5981C17.7843 11.5581 17.7879 11.5177 17.7916 11.4771L17.7916 11.4771L17.7916 11.477L17.7916 11.477L17.7916 11.4769L17.7916 11.4767C17.8157 11.2085 17.8406 10.9308 17.7729 10.6833C17.749 10.5961 17.7334 10.5045 17.7178 10.4124L17.7178 10.4124C17.6786 10.1819 17.639 9.94845 17.4666 9.7734C17.3438 9.66859 17.2797 9.50998 17.295 9.34868C17.2877 9.27287 17.2589 9.20076 17.212 9.14092C17.1858 9.09803 17.1598 9.05499 17.1338 9.01194C17.0209 8.82531 16.908 8.63849 16.78 8.46291C16.694 8.34501 16.5999 8.23313 16.5058 8.12126C16.4096 8.00692 16.3135 7.8926 16.226 7.7719C16.1024 7.60144 15.964 7.44195 15.8274 7.28457L15.7463 7.19088C15.7155 7.15517 15.685 7.11859 15.6545 7.08184C15.4479 6.83354 15.2347 6.57736 14.8666 6.52649C14.6053 6.47748 14.3469 6.41432 14.0925 6.33728C13.9529 6.47976 13.7848 6.47028 13.6173 6.46084C13.5098 6.45478 13.4026 6.44874 13.3034 6.48297C13.2018 6.682 13.152 6.77967 13.0786 6.80293ZM58.2459 46.8889C58.3295 46.3538 58.5252 45.8774 58.9419 45.5494C58.9305 45.4556 58.9186 45.3698 58.9075 45.2894L58.9075 45.2894C58.8853 45.129 58.866 44.9901 58.8593 44.8512C58.8468 44.5778 58.7724 44.2998 58.5106 44.2317C58.1983 44.1505 58.0122 44.029 57.9978 43.6943C57.9912 43.656 57.9675 43.6227 57.9334 43.6042C57.6298 43.4713 57.4197 43.2338 57.2097 42.9963C57.1002 42.8724 56.9906 42.7485 56.8678 42.6395L56.8196 42.5965C56.5455 42.3517 56.5308 42.3386 56.0404 42.3734C55.9419 42.3804 55.8439 42.3949 55.7314 42.4117L55.6423 42.4248L55.6056 42.43L55.5515 42.4375C55.336 42.1879 55.1363 41.925 54.9538 41.6501C54.9069 41.5717 54.8451 41.5013 54.7832 41.4308C54.653 41.2825 54.5222 41.1336 54.5289 40.9079C54.3448 40.8832 54.2399 40.7527 54.1448 40.6343C54.0829 40.5572 54.0251 40.4852 53.9522 40.451L53.3321 40.575V40.9155C53.2602 40.8532 53.2182 40.8168 53.1994 40.8003L52.9688 40.9516C53.3922 41.8684 53.9011 42.7427 54.4887 43.5628C54.5853 43.6841 54.6003 43.8518 54.5269 43.9886C54.4387 43.8582 54.3506 43.7324 54.2641 43.6089L54.2639 43.6087L54.2638 43.6086C54.0734 43.3366 53.8908 43.0758 53.7312 42.8015C53.5271 42.4504 53.3423 42.0877 53.1572 41.7244L53.1572 41.7244L53.1571 41.7243L53.1571 41.7243L53.1571 41.7243L53.1571 41.7242L53.157 41.7242L53.157 41.7241L53.157 41.7241L53.157 41.724L53.1569 41.724L53.1569 41.7239L53.1569 41.7239L53.1569 41.7238L53.1569 41.7238L53.1568 41.7237L53.1568 41.7237L53.1568 41.7237L53.1568 41.7236L53.1567 41.7236L53.1567 41.7235L53.1567 41.7235L53.1567 41.7234L53.1566 41.7234L53.1566 41.7233C53.0766 41.5663 52.9965 41.4091 52.9147 41.2526C52.5861 41.4866 52.5866 41.4876 52.7135 41.7802L52.7192 41.7934C53.0889 42.6459 53.5761 43.4334 54.062 44.2187L54.1558 44.3705L54.2249 44.4824L54.2833 44.5775C54.8284 45.4651 55.4109 46.3351 56.2054 47.0386C56.3606 47.1761 56.5328 47.2708 56.7047 47.3653C56.7829 47.4083 56.861 47.4513 56.9374 47.4982C57.0406 47.5438 57.1596 47.534 57.254 47.4719C57.3664 47.3562 57.4914 47.3293 57.6258 47.3003L57.6259 47.3003C57.6601 47.2929 57.695 47.2854 57.7304 47.2763C57.7471 47.272 57.7642 47.2678 57.7817 47.2635C57.9747 47.2159 58.2035 47.1595 58.2459 46.8889ZM52.0628 29.6851L52.0627 29.685C51.8719 29.4839 51.6901 29.2923 51.4887 29.1243C50.8014 28.5506 50.4064 27.7841 50.0114 27.0178C49.9184 26.8375 49.8255 26.6572 49.7288 26.4794C49.5366 26.1259 49.5526 25.7361 49.5683 25.3508C49.5713 25.2789 49.5742 25.2071 49.5758 25.1357C49.5769 25.0823 49.6272 25.03 49.6791 24.9759C49.7036 24.9504 49.7285 24.9246 49.7487 24.898L49.7521 24.9049C49.8372 25.0744 49.9174 25.234 50.034 25.4657L50.034 24.6262C50.0898 24.5985 50.1454 24.5746 50.1991 24.5516C50.3164 24.5014 50.4248 24.4549 50.507 24.3797C50.6333 24.2743 50.8063 24.2458 50.9595 24.305C51.0692 24.3328 51.1679 24.4052 51.2712 24.4809L51.2713 24.4809L51.2713 24.4809L51.2713 24.481L51.2714 24.481L51.2714 24.481C51.3173 24.5147 51.3641 24.549 51.4132 24.5803C51.3195 25.0209 51.492 25.3899 51.7055 25.7742C51.7741 25.7555 51.8471 25.7612 51.9215 25.7669C52.0541 25.7771 52.1909 25.7876 52.3135 25.6607C52.384 25.6188 52.4706 25.6149 52.5446 25.6504C52.6556 25.7176 52.7725 25.7773 52.8896 25.8371C53.2668 26.0297 53.6448 26.2228 53.8255 26.6675L53.8377 26.6977L53.8377 26.6977C53.8774 26.797 53.9236 26.9125 54.001 26.9548C54.0552 26.9844 54.0661 27.0402 54.0769 27.0957C54.0919 27.1725 54.1068 27.2485 54.2356 27.2534C54.3572 27.2581 54.3461 27.3427 54.3347 27.4287C54.3291 27.4718 54.3233 27.5153 54.3343 27.5493C54.3825 27.6728 54.422 27.7995 54.4522 27.9286C54.4637 28.0505 54.4651 28.1732 54.4565 28.2953C54.0066 28.7044 53.6626 29.2177 53.4545 29.7907L52.3412 29.9739C52.2444 29.8765 52.1526 29.7797 52.0628 29.6851ZM37.0825 6.17318C37.0246 6.21274 36.9672 6.25232 36.91 6.29172L36.9099 6.29177C36.7098 6.42966 36.5128 6.56539 36.3094 6.69037C36.293 6.7005 36.2484 6.66451 36.1921 6.6191C36.1622 6.59499 36.129 6.56822 36.095 6.54429C36.0474 6.64458 35.9924 6.74118 35.9306 6.83329C35.8498 6.92522 35.7643 7.01292 35.6746 7.09604L35.6518 7.11979C35.4877 7.29105 35.3249 7.46098 35.0822 7.20213C35.0703 7.18946 35.0433 7.1924 35.0149 7.1955C34.9972 7.19742 34.979 7.19941 34.9636 7.19771C34.8913 7.18983 34.8198 7.18853 34.7488 7.18723C34.539 7.18342 34.3328 7.17966 34.1182 7.00686C34.0264 6.93301 33.9247 6.86815 33.8218 6.80254C33.665 6.70262 33.5055 6.60095 33.3744 6.46306C33.157 6.26157 32.9694 6.02981 32.8173 5.77482C32.5988 5.35653 32.3834 4.94304 32.4611 4.45209C32.5048 4.31168 32.5651 4.17705 32.6406 4.05108L33.0197 4.36379C33.0471 4.2726 33.0653 4.17734 33.0838 4.08106C33.1326 3.82679 33.1828 3.56544 33.4047 3.35326L33.7849 3.63897L33.7849 3.19091C33.9102 3.16932 34.032 3.14094 34.1525 3.11286C34.4178 3.05102 34.6769 2.99064 34.9537 3.00738C35.167 3.01135 35.3716 3.09239 35.5304 3.2357C35.5945 3.2974 35.6635 3.35311 35.7327 3.40895C35.8663 3.51682 36.0005 3.62518 36.1014 3.77811C36.1712 3.88416 36.2543 3.98143 36.3381 4.07964L36.3382 4.07968C36.4201 4.1756 36.5028 4.27242 36.5746 4.37918C36.7235 4.60119 36.8111 4.8468 36.8985 5.09204L36.8985 5.09208C36.9508 5.23892 37.0031 5.38564 37.0685 5.52708C37.126 5.65113 37.1109 5.80921 37.096 5.96569C37.0892 6.03627 37.0825 6.10652 37.0825 6.17318ZM11.2022 19.2477L11.2022 17.9284L11.0897 17.9014C11.0624 17.996 11.0248 18.0925 10.9872 18.189C10.902 18.4081 10.8167 18.6272 10.8515 18.8245C10.8662 18.9068 10.877 18.9911 10.8879 19.0761L10.8879 19.0761C10.9226 19.3462 10.9583 19.6243 11.123 19.8715C11.2202 20.0173 11.2978 20.1773 11.3753 20.3372C11.5551 20.7078 11.7345 21.0777 12.1563 21.2687C12.2281 21.5678 12.4685 21.6726 12.6992 21.7733L12.6993 21.7733L12.6993 21.7734C12.7613 21.8004 12.8226 21.8271 12.8797 21.8573C13.2496 22.0523 13.6453 22.242 14.0798 21.9598C14.369 21.7721 14.6668 21.5979 14.9616 21.4256L14.9617 21.4255L14.9617 21.4255L14.9618 21.4255L14.9618 21.4255L14.9618 21.4255L14.9618 21.4254L14.9618 21.4254L14.9619 21.4254L14.9619 21.4254L14.9619 21.4254L14.9619 21.4254L14.9619 21.4254L14.962 21.4254L14.962 21.4253L14.962 21.4253L14.962 21.4253L14.962 21.4253L14.9621 21.4253L14.9621 21.4253C15.0907 21.3501 15.2188 21.2752 15.3453 21.1997C15.3321 21.0058 15.3338 20.8112 15.3503 20.6177C15.413 20.2343 15.24 19.9092 15.0369 19.6476C14.9181 19.4948 14.8543 19.306 14.856 19.112C14.7578 18.9254 14.6125 18.8121 14.4716 18.7021C14.347 18.605 14.2259 18.5105 14.1435 18.3704C14.0352 18.2352 13.8717 18.1569 13.6991 18.1577C13.5985 18.1634 13.4961 18.1527 13.3932 18.1421C13.1604 18.118 12.9254 18.0937 12.7051 18.2566C12.6714 18.2816 12.6041 18.2554 12.5316 18.2273C12.4814 18.2079 12.4289 18.1875 12.3833 18.1823C12.348 18.1783 12.3101 18.1979 12.2598 18.2238C12.233 18.2376 12.2028 18.2532 12.1677 18.268C12.1842 18.1466 12.1813 18.0234 12.159 17.9029C12.1235 17.8053 12.0054 17.6573 11.9428 17.6665C11.7585 17.7033 11.5809 17.7683 11.4162 17.8593C11.291 17.9213 11.3001 18.0353 11.3089 18.1461C11.3115 18.1789 11.3141 18.2115 11.3132 18.2424C11.3112 18.3037 11.3104 18.3651 11.3095 18.4266L11.3095 18.4267C11.3056 18.7007 11.3017 18.9754 11.2022 19.2477ZM23.0266 24.5818L22.1897 23.7397C22.1775 23.5114 22.1812 23.2826 22.2006 23.0549C22.2125 22.9666 22.3385 22.8783 22.4326 22.8264C22.4574 22.8127 22.5094 22.8487 22.5613 22.8846C22.5838 22.9002 22.6064 22.9158 22.6267 22.9273C22.6396 22.9016 22.6518 22.8745 22.664 22.8472C22.7358 22.6872 22.8111 22.5196 23.0673 22.5696C23.125 22.5858 23.1866 22.5799 23.2402 22.5529C23.3899 22.4315 23.5525 22.3071 23.7437 22.3607C23.8086 22.3788 23.8749 22.3956 23.9415 22.4124L23.9417 22.4124L23.942 22.4125L23.9421 22.4125L23.9422 22.4126L23.9424 22.4126L23.9425 22.4126L23.9426 22.4127C24.2276 22.4845 24.5189 22.558 24.7352 22.7506C25.2632 23.2211 25.765 23.7324 26.0279 24.4119C26.1922 24.8154 26.3173 25.2338 26.4016 25.6615C26.4447 25.8859 26.3562 26.1154 26.1739 26.2518C26.0404 26.3458 25.909 26.4427 25.7775 26.5396L25.7774 26.5397L25.7774 26.5397L25.7773 26.5398L25.7772 26.5398L25.7771 26.5399L25.7771 26.5399L25.777 26.54L25.7769 26.54L25.7768 26.5401L25.7768 26.5401L25.7767 26.5402L25.7766 26.5402L25.7765 26.5403L25.7765 26.5403L25.7764 26.5404L25.7763 26.5404L25.7762 26.5405L25.7762 26.5405L25.7761 26.5406L25.7761 26.5406L25.7761 26.5406L25.776 26.5406L25.776 26.5407L25.776 26.5407L25.776 26.5407L25.7759 26.5407L25.7759 26.5407L25.7759 26.5407L25.7759 26.5408L25.7758 26.5408L25.7758 26.5408L25.7758 26.5408L25.7758 26.5408L25.7758 26.5408L25.7757 26.5409L25.7757 26.5409L25.7757 26.5409L25.7757 26.5409C25.5656 26.6957 25.3556 26.8505 25.1379 26.9933C25.0098 27.0778 24.8589 27.1203 24.7058 27.1149C23.8178 27.0376 23.1849 26.6171 22.9227 25.6079C22.9102 25.5598 22.8919 25.5111 22.8737 25.4624C22.8363 25.3624 22.799 25.2628 22.8123 25.1703C22.8623 24.9669 22.9342 24.7696 23.0266 24.5818ZM24.4777 46.4272L24.5502 46.7971C24.6367 46.6008 24.6686 46.4338 24.5223 46.2434C24.4289 46.1218 24.3657 45.9819 24.3019 45.8409C24.216 45.6508 24.1292 45.4588 23.9665 45.3067C23.8588 45.2206 23.7615 45.1222 23.6766 45.0134C23.2411 44.2919 22.5753 43.8844 21.8397 43.5591L21.8109 43.5462C21.7265 43.508 21.6137 43.4569 21.5764 43.4873C21.4572 43.585 21.36 43.548 21.2571 43.5088C21.2325 43.4995 21.2075 43.49 21.1819 43.4822C21.1074 43.4596 20.9876 43.4433 20.9453 43.4842C20.8026 43.622 20.6301 43.6905 20.4562 43.7597L20.4561 43.7597C20.4186 43.7746 20.3809 43.7895 20.3436 43.8052C20.297 43.8248 20.2098 43.8684 20.2914 43.979C20.3313 44.0335 20.3407 44.1105 20.3515 44.1982C20.3567 44.2408 20.3622 44.2859 20.3716 44.3323C20.0725 44.1821 19.825 44.116 19.6549 44.3657C19.6861 44.4468 19.7118 44.5286 19.737 44.6085C19.7907 44.7792 19.8418 44.9415 19.9371 45.0703C20.0289 45.1944 20.1052 45.331 20.1815 45.4677C20.3446 45.7599 20.508 46.0526 20.8241 46.2245C21.1788 46.8733 21.7791 47.2236 22.3816 47.5753L22.3823 47.5757L22.3831 47.5761L22.3838 47.5766C22.4339 47.6058 22.484 47.635 22.5339 47.6644C22.723 47.8043 22.9802 47.805 23.17 47.6662C23.1788 47.6604 23.1879 47.6542 23.1971 47.6477C23.2751 47.5935 23.3696 47.5279 23.5015 47.6482C23.5642 47.6841 23.6396 47.6901 23.7071 47.6644C23.7747 47.6388 23.8274 47.5843 23.8509 47.5156C23.8998 47.3338 24.0253 47.1965 24.1513 47.0587C24.3137 46.8812 24.4768 46.7027 24.4777 46.4272ZM61.6439 18.1282L61.6941 17.7764C61.7098 17.7878 61.7249 17.7967 61.7383 17.8047C61.7628 17.8193 61.7817 17.8305 61.7882 17.8467C61.8309 17.9516 61.8763 18.0553 61.9218 18.159C62.0435 18.4365 62.1652 18.7139 62.2321 19.014L62.2419 19.057C62.2972 19.3009 62.35 19.5329 62.1143 19.7238C62.0495 19.7762 62.0346 19.8662 62.0196 19.9562C61.9953 20.102 61.971 20.2478 61.7348 20.2342C61.5592 20.518 61.2805 20.4976 61.0107 20.4778L60.9898 20.4763C60.9416 20.6649 60.8807 20.85 60.8075 21.0303C60.7159 21.221 60.423 21.275 60.109 21.1848C60.0798 21.1764 60.0511 21.1598 60.0228 21.1435C59.9816 21.1198 59.9413 21.0966 59.9024 21.1L59.8887 21.1012C59.394 21.1446 59.393 21.1447 59.1808 20.7448C59.0633 20.5496 58.9569 20.3478 58.862 20.1405C58.7745 19.8973 58.5863 19.7044 58.3464 19.6118C57.9751 19.4549 57.7111 19.1157 57.6486 18.7154C57.5888 18.3557 57.7561 18.0256 58.0754 17.7661L58.2132 17.9472L58.6125 18.4717C58.6125 18.3774 58.6122 18.2929 58.6118 18.215V18.2137V18.2125V18.2113V18.2102V18.2091V18.2081V18.2071L58.6118 18.2061L58.6118 18.2052V18.2047C58.6112 18.042 58.6106 17.9084 58.6134 17.7748C58.6167 17.6155 58.6307 17.6097 58.795 17.5421C58.8368 17.525 58.8883 17.5038 58.9519 17.4751C59.0276 17.4408 59.1149 17.4323 59.2023 17.4238C59.3721 17.4073 59.5419 17.3907 59.6267 17.1849L60.2879 17.1597C60.6951 17.1436 61.0562 17.1882 61.246 17.6436C61.2972 17.7675 61.3981 17.8705 61.5024 17.9769C61.5504 18.0258 61.599 18.0755 61.6439 18.1282ZM0.701321 20.365C0.738497 20.7445 1.02328 21.0521 1.39684 21.1163L1.61059 20.5984C1.71339 20.9287 1.8568 21.1781 2.24117 21.2201C2.29743 21.1024 2.35961 20.9877 2.42746 20.8764C2.44644 20.8479 2.47417 20.8226 2.50164 20.7974C2.57905 20.7266 2.65437 20.6577 2.52575 20.5273L2.89106 20.555C2.97806 20.3651 3.09453 20.1115 3.20372 19.8738C3.24202 19.8835 3.27952 19.8932 3.31643 19.9027L3.31648 19.9027C3.43358 19.9329 3.54482 19.9616 3.65729 19.9838C3.67709 19.9883 3.73088 19.9333 3.72925 19.9081C3.72548 19.8535 3.70781 19.7654 3.67471 19.7543C3.64157 19.7432 3.60113 19.7462 3.56202 19.7491H3.562C3.51486 19.7525 3.46964 19.7559 3.44141 19.7342C3.4095 19.7099 3.40124 19.6542 3.38998 19.5784C3.38411 19.5389 3.37744 19.4939 3.36619 19.445L3.61153 19.6639L3.6117 19.2466C3.61201 18.7437 3.61231 18.2664 3.60827 17.789C3.60799 17.7603 3.59008 17.7325 3.5718 17.7041C3.55758 17.6821 3.54314 17.6597 3.53656 17.6362C3.5002 17.5063 3.43989 17.3827 3.38077 17.2615C3.26416 17.0225 3.15214 16.7928 3.23732 16.543C3.11906 16.2193 2.88482 16.2007 2.6646 16.1833C2.52015 16.1718 2.38174 16.1608 2.28605 16.0645C2.20821 16.1054 2.1332 16.1541 2.06009 16.2015C1.90274 16.3035 1.75417 16.3999 1.60507 16.4007C1.44162 16.4017 1.3225 16.4863 1.20569 16.5692C1.08661 16.6538 0.969928 16.7366 0.81114 16.7274C0.770397 16.725 0.684021 16.8452 0.685024 16.9083C0.686742 17.0217 0.651099 17.124 0.61504 17.2274C0.574811 17.3429 0.534066 17.4598 0.544114 17.5953C0.584522 18.1262 0.585193 18.6594 0.54612 19.1904C0.524598 19.4723 0.579775 19.74 0.634567 20.0058C0.659244 20.1256 0.683842 20.2449 0.701321 20.365ZM46.3804 49.3934C46.3317 49.392 46.2834 49.3888 46.2359 49.3856C45.9755 49.3683 45.7416 49.3528 45.6122 49.6511C45.3543 49.309 45.3239 49.066 45.5865 48.7941C45.6533 48.7249 45.7118 48.6494 45.7705 48.5736C45.8711 48.4436 45.9726 48.3125 46.1188 48.2101C46.2358 48.1281 46.31 47.9887 46.3854 47.8471C46.4406 47.7435 46.4964 47.6386 46.5701 47.5542C46.6629 47.4479 46.7877 47.3698 46.9125 47.2918C46.9682 47.257 47.0239 47.2222 47.0767 47.1849L47.2794 47.3849L46.9923 47.59L47.0242 47.6638L47.4594 47.5948C47.4708 47.6121 47.4827 47.6367 47.4961 47.6644L47.4961 47.6646L47.4961 47.6646C47.5317 47.7382 47.5778 47.8339 47.6531 47.8735C48.2764 48.1998 48.6741 48.7447 49.0527 49.3042C49.1264 49.413 49.1715 49.5407 49.2167 49.6689C49.2478 49.7571 49.2791 49.8455 49.3197 49.9282L49.3594 50.0088C49.5732 50.4419 49.6259 50.5486 49.5552 50.9795C49.501 51.3092 49.4409 51.6607 49.1834 51.9297C49.0703 52.0339 48.9946 52.1727 48.9679 52.3247C48.9545 52.6673 48.7674 52.7221 48.4923 52.7044C48.4138 52.7002 48.3351 52.7087 48.2593 52.7296C47.7792 52.8595 47.7297 52.8461 47.4904 52.4759C47.1953 52.0195 47.0284 51.5088 46.8619 50.999L46.8617 50.9982C46.8283 50.8959 46.7949 50.7936 46.7604 50.6918C46.6592 50.393 46.5748 50.0886 46.4915 49.7882C46.4547 49.6556 46.4181 49.5237 46.3804 49.3934ZM38.4534 42.5593L38.4538 42.5595C38.5057 42.5885 38.5577 42.6177 38.6097 42.6474C38.6794 42.4351 38.8197 42.2631 38.9868 42.384C39.2251 42.5574 39.2634 42.3898 39.2927 42.251C39.2983 42.224 39.3018 42.1957 39.3052 42.1675C39.3171 42.0704 39.3287 41.9753 39.4294 41.9426C39.5864 41.8917 39.6633 41.7703 39.7393 41.6504C39.772 41.5988 39.8045 41.5475 39.8431 41.5022C39.9471 41.3804 40.0494 41.1739 40.0174 41.0369C39.9521 40.8053 39.8368 40.5911 39.6798 40.4095C39.5906 40.2997 39.4776 40.2103 39.3642 40.1206C39.2896 40.0616 39.2149 40.0025 39.1467 39.9374C39.0604 39.8551 38.9768 39.7694 38.8932 39.6837L38.8932 39.6837L38.8931 39.6837L38.8931 39.6837L38.8931 39.6836L38.8931 39.6836L38.8931 39.6836L38.893 39.6836L38.893 39.6835L38.893 39.6835L38.893 39.6835L38.8929 39.6835L38.8928 39.6833L38.8927 39.6833C38.6551 39.4397 38.4173 39.196 38.1154 39.0281C37.9827 38.9544 37.859 38.8647 37.7353 38.7751L37.7352 38.7751C37.5028 38.6067 37.2705 38.4383 36.9793 38.3762C36.6898 38.3357 36.4213 38.2013 36.2146 37.9933C35.9908 37.7537 35.8196 37.7905 35.5125 38.0059C35.4756 38.0318 35.4299 38.0579 35.3838 38.0841C35.2754 38.1458 35.1652 38.2085 35.1639 38.2727C35.1603 38.4396 35.0632 38.4413 34.9665 38.443C34.8775 38.4446 34.7888 38.4462 34.7735 38.5764C35.0443 39.1937 35.4984 39.7228 35.9502 40.2492L35.9647 40.2661L36.0533 40.3694L36.1049 40.4299C36.4246 40.8051 36.7796 41.15 37.1346 41.4949L37.1346 41.4949L37.1346 41.4949L37.1346 41.495L37.1346 41.495L37.1347 41.495L37.1347 41.495L37.1347 41.495L37.1347 41.4951L37.1348 41.4951L37.1348 41.4951L37.1348 41.4951L37.1348 41.4952L37.1349 41.4952L37.1349 41.4952C37.3078 41.6632 37.4808 41.8313 37.6498 42.0029C37.884 42.2407 38.1664 42.3987 38.4534 42.5593ZM63.2118 39.0909C62.5242 38.806 62.2237 38.2793 61.9297 37.764L61.9185 37.7443C61.6539 37.2859 61.4219 36.8092 61.2242 36.3178C61.1819 36.2109 61.1328 36.1053 61.0833 35.9991C60.906 35.6179 60.7249 35.2287 60.8428 34.7461C61.0734 34.9078 61.1733 35.1466 61.2769 35.3942C61.3712 35.6195 61.4685 35.8521 61.6702 36.0402C61.6264 35.687 61.5043 35.3792 61.3775 35.0593L61.3775 35.0592C61.2801 34.8137 61.1799 34.561 61.1101 34.2753L61.5113 34.4968L61.5701 34.1655L62.1506 34.0546C62.1668 34.0807 62.1844 34.1103 62.2034 34.1422L62.2037 34.1427L62.2039 34.1431L62.2041 34.1434C62.2516 34.2234 62.3077 34.3177 62.3709 34.4068C62.7141 34.8906 62.7189 34.8924 63.3319 35.1116L63.3471 35.117C63.4173 35.1452 63.4842 35.181 63.5467 35.2238C64.0332 35.5332 64.4763 35.8818 64.7441 36.4196C64.8694 36.6608 64.9469 36.9244 64.9721 37.1955C64.98 37.2524 65.0065 37.305 65.0473 37.3452C65.0867 37.3795 65.1052 37.4321 65.096 37.4836C65.0869 37.5352 65.0514 37.578 65.0027 37.5965C64.8509 37.6827 64.7467 37.815 64.6426 37.947C64.5585 38.0538 64.4745 38.1604 64.3656 38.2424C64.2758 38.3208 64.2241 38.4344 64.2239 38.554C64.1981 38.73 63.8552 38.9577 63.6956 38.9208C63.6627 38.9132 63.6336 38.8877 63.6044 38.8622C63.5462 38.8113 63.4878 38.7602 63.3983 38.8499C63.331 38.9261 63.2688 39.0066 63.2118 39.0909ZM43.0491 24.8232L43.4219 24.7611C43.5006 24.6271 43.4679 24.4944 43.435 24.361C43.4053 24.2403 43.3754 24.1191 43.4276 23.9955C43.4361 23.9288 43.3977 23.865 43.3351 23.8416C43.2724 23.8181 43.202 23.8412 43.1651 23.8973C43.1475 23.915 43.0932 23.8959 43.039 23.8768C43.014 23.8681 42.9891 23.8593 42.9677 23.8541C42.9728 23.8368 42.9778 23.8146 42.9827 23.7925L42.9827 23.7924C42.9932 23.745 43.0037 23.6976 43.0161 23.6971C43.3411 23.6841 43.2444 23.4119 43.2002 23.296C43.1632 23.1988 43.1277 23.1006 43.0921 23.0024C42.9471 22.6013 42.8014 22.1982 42.5483 21.8511L42.5449 21.8464C42.4134 21.6662 42.2459 21.4367 41.9632 21.671C41.9484 21.6826 41.902 21.672 41.8796 21.6574C41.6327 21.4963 41.4809 21.5919 41.3781 21.8369C41.2884 22.0507 41.1922 21.9531 41.117 21.8766L41.1039 21.8635L40.7682 22.1313L40.9061 22.656C40.8404 22.6181 40.7985 22.5599 40.7576 22.5029C40.6874 22.4054 40.6199 22.3114 40.4396 22.3281L40.4013 22.3945L40.401 22.3951L40.4002 22.3965C40.3628 22.4615 40.3211 22.5338 40.2785 22.6056C40.2577 22.6404 40.2385 22.6828 40.2193 22.7251C40.1768 22.8189 40.1342 22.9129 40.0737 22.926C39.8236 22.9803 39.8818 23.1155 39.9344 23.2375L39.9425 23.2565C39.9465 23.2659 39.9504 23.2752 39.954 23.2843C40.0225 23.4599 40.0994 23.6321 40.1763 23.8044L40.1764 23.8046C40.2304 23.9257 40.2844 24.0467 40.3356 24.169C40.3591 24.245 40.3749 24.3232 40.3827 24.4025L40.2837 24.4345L39.7053 23.1557C39.6165 23.5315 39.7274 23.7863 39.8516 24.0629C40.0492 24.4997 40.302 24.9089 40.6037 25.2806C40.9845 25.7525 41.441 26.144 42.1264 26.0163C42.1827 26.0105 42.2394 26.0101 42.2958 26.015L43.1995 25.1055L43.0491 24.8232ZM41.2093 11.6398L41.462 11.8941L41.4822 11.7184L41.5166 11.4202C41.5913 11.4045 41.6666 11.3875 41.7426 11.3704C41.9224 11.33 42.1056 11.2888 42.2909 11.2613C42.4519 11.2377 42.6155 11.2382 42.7764 11.2629C42.8274 11.2708 42.8401 11.3155 42.8545 11.3662C42.8743 11.436 42.8974 11.517 43.0281 11.5286C43.1489 11.539 43.2465 11.7121 43.3355 11.8698L43.3355 11.8699C43.354 11.9025 43.372 11.9345 43.3898 11.9643C43.4169 12.0096 43.4223 12.072 43.4277 12.135C43.4391 12.2681 43.4508 12.4044 43.668 12.392L43.7012 12.9909C43.702 13.0043 43.7043 13.0176 43.7066 13.0309L43.7095 13.0487L44.6178 13.9625C44.7172 13.9556 44.817 13.9566 44.9162 13.9655C45.0678 13.9899 45.2313 14.1411 45.1534 14.235C45.0609 14.3466 45.107 14.44 45.1508 14.5287C45.1888 14.6056 45.2251 14.679 45.1676 14.7578C44.695 14.9005 44.546 14.9161 44.1617 14.8485L44.4471 15.4701C44.4288 15.4878 44.4089 15.513 44.3877 15.5396C44.3377 15.6026 44.2811 15.6738 44.225 15.6734C44.1179 15.6726 44.0096 15.6778 43.9012 15.683C43.4997 15.7023 43.096 15.7216 42.7427 15.4385C42.6113 15.3544 42.4894 15.2561 42.3791 15.1453C42.1947 14.9128 42.0266 14.6669 41.8587 14.4213L41.7732 14.2964C41.7171 14.2146 41.6657 14.1295 41.6144 14.0443L41.6143 14.0443L41.6143 14.0443L41.6143 14.0442L41.6143 14.0442L41.6142 14.0441L41.6142 14.0441L41.6142 14.0441L41.6142 14.044L41.6142 14.044L41.6141 14.0439L41.6141 14.0439L41.614 14.0438C41.5767 13.9818 41.5393 13.9199 41.5001 13.8592C41.4455 13.7746 41.4177 13.676 41.3899 13.5774L41.3899 13.5774C41.3441 13.4153 41.2984 13.2533 41.1339 13.1538C41.1645 12.9465 41.0828 12.7778 40.9992 12.6052C40.9736 12.5523 40.9478 12.4991 40.925 12.4442C40.8527 12.3002 40.8422 12.1327 40.896 11.9808C40.9497 11.8288 41.0629 11.7056 41.2093 11.6398ZM22.9135 2.52514L22.3494 2.52514C21.9807 2.48453 21.6076 2.52972 21.259 2.65721C21.1098 2.71095 20.9791 2.80349 20.8474 2.89676C20.7136 2.99156 20.5787 3.08709 20.4222 3.14336C20.3868 3.15598 20.357 3.24428 20.3606 3.29474C20.3705 3.45065 20.3915 3.60565 20.4233 3.75856C20.4849 4.04363 20.6507 4.26874 20.8169 4.49456L20.8169 4.49458L20.817 4.4946C20.8669 4.56244 20.9169 4.63035 20.9641 4.69997C21.3676 5.29397 21.8498 5.73951 22.6212 5.72462C22.6788 5.71987 22.7361 5.73647 22.7823 5.7713C22.9301 5.93075 23.0495 5.85826 23.1683 5.78609C23.2333 5.74664 23.298 5.70729 23.3672 5.70595C23.5313 5.44521 23.7944 5.31124 24.0509 5.18061C24.1419 5.13428 24.232 5.08838 24.3166 5.0374C24.6045 4.86395 24.6863 4.6813 24.6251 4.42687C24.613 4.37637 24.6015 4.32542 24.5899 4.27434L24.5899 4.27432L24.5899 4.2743L24.5899 4.27427L24.5899 4.27423L24.5899 4.27419L24.5898 4.27413L24.5898 4.27411L24.5898 4.2741L24.5898 4.27408C24.499 3.87345 24.4062 3.46461 24.0262 3.20454C23.9753 3.16953 23.9339 3.1202 23.8923 3.07076C23.8052 2.9672 23.7178 2.86314 23.5429 2.88919C23.4895 2.8851 23.4421 2.8535 23.4175 2.80568C23.3722 2.51834 23.1742 2.52141 22.9751 2.5245C22.9545 2.52482 22.934 2.52514 22.9135 2.52514ZM21.3697 32.3516L21.6525 32.7993C21.6636 32.7166 21.672 32.6549 21.6787 32.6062C21.6893 32.5286 21.6954 32.4837 21.7004 32.4385L21.7005 32.4377L21.7005 32.4376C21.7128 32.3262 21.7194 32.2659 21.7526 32.2303C21.7915 32.1884 21.8672 32.1807 22.032 32.1638L22.0321 32.1638L22.0329 32.1637C22.0378 32.1632 22.0431 32.1629 22.0485 32.1626L22.0651 32.1619C22.0983 32.1607 22.1337 32.1594 22.1438 32.1432C22.2595 31.9405 22.5023 31.8494 22.7216 31.9263C22.9783 31.9897 23.22 32.1035 23.4328 32.2613C24.19 32.9033 24.6353 33.764 24.9812 34.6771C25.0217 34.7838 25.0106 34.9101 24.9997 35.0356C24.9946 35.0933 24.9896 35.1508 24.9896 35.2062L24.7563 35.1802C24.7716 35.4007 24.7221 35.5639 24.4658 35.6163C24.3722 35.6501 24.3012 35.7284 24.2763 35.8253C24.2609 35.9832 24.1589 36.0014 24.0587 36.0193C23.9905 36.0315 23.9231 36.0435 23.8848 36.0995C23.8041 35.9703 23.6923 35.9936 23.5798 36.017C23.4817 36.0374 23.3831 36.0579 23.304 35.9777C23.2469 35.9197 23.1825 35.8663 23.1184 35.8132L23.1183 35.8131C22.9992 35.7144 22.8808 35.6163 22.811 35.4901C22.5629 35.0666 22.3609 34.6174 22.2086 34.1502C22.1618 33.9402 22.0324 33.7582 21.85 33.6457C21.557 33.4853 21.3221 33.2357 21.1787 32.9327L21.1739 32.9223C21.0577 32.6685 21.0569 32.6666 21.3697 32.3516ZM32.8281 24.9777C32.8168 25.0512 32.8151 25.1259 32.8231 25.1999C32.9383 25.3634 33.0657 25.507 33.1906 25.6478L33.1906 25.6479L33.1907 25.648L33.1907 25.648L33.1914 25.6488C33.2505 25.7155 33.309 25.7815 33.3654 25.8487C33.7151 26.2681 34.0751 26.6982 34.6227 26.9209C34.9884 27.0694 35.3273 27.0252 35.5187 26.7686C35.5735 26.6951 35.6523 26.6418 35.7306 26.5887C35.8708 26.4936 36.0099 26.3994 36.009 26.192C36.3432 26.1443 36.2863 25.8662 36.2347 25.6902C36.0904 25.198 35.9313 24.7003 35.5803 24.3063C35.5157 24.2338 35.4368 24.1746 35.3579 24.1152L35.3578 24.1152L35.3578 24.1152L35.3578 24.1152L35.3578 24.1151L35.3577 24.1151L35.3577 24.1151L35.3577 24.1151L35.3577 24.1151C35.2846 24.0601 35.2114 24.0051 35.1495 23.9396C35.0472 23.8315 34.9575 23.7112 34.8607 23.5814L34.8606 23.5812L34.8605 23.5811L34.8604 23.581L34.8603 23.5809C34.8164 23.5219 34.771 23.461 34.7223 23.3983L33.8242 23.5728L33.7996 23.7234L33.7993 23.7249L33.7988 23.7279C33.7864 23.8039 33.7737 23.8812 33.7587 23.9746L33.0796 23.4171C33.0327 23.4618 32.9881 23.5134 32.946 23.562C32.8604 23.661 32.7854 23.7476 32.7231 23.7392C32.6218 23.7256 32.5379 23.7541 32.4539 23.7826C32.3715 23.8106 32.2891 23.8386 32.1903 23.8269C32.2437 23.8982 32.3306 23.9107 32.4144 23.9228C32.5442 23.9416 32.6665 23.9593 32.6452 24.1927L32.3599 24.0693C32.2638 24.3599 32.454 24.4733 32.6515 24.5911C32.671 24.6027 32.6905 24.6144 32.7098 24.6262L32.6795 24.5219L32.6285 24.3445L32.6095 24.2782C32.6742 24.2858 32.7371 24.3044 32.7957 24.3332C32.8582 24.3811 32.9074 24.4443 32.9387 24.5169C32.946 24.5367 32.93 24.5635 32.913 24.592C32.8975 24.618 32.8812 24.6453 32.8812 24.67C32.8815 24.6977 32.8957 24.7261 32.9096 24.754C32.925 24.7848 32.9401 24.815 32.9358 24.8428C32.9321 24.8679 32.9074 24.8893 32.8825 24.911C32.8585 24.9319 32.8343 24.9529 32.8281 24.9777ZM42.8939 33.174L43.1967 33.2779C43.2088 32.9983 43.0591 32.8274 42.9073 32.6542C42.7783 32.507 42.6478 32.3581 42.6139 32.1393C42.7042 32.1691 42.7909 32.209 42.8724 32.2582C42.9824 32.3563 43.0873 32.46 43.1867 32.5689C43.1745 32.3826 43.0969 32.2066 42.9677 32.0726L42.9677 32.0725C43.1478 31.8533 43.227 31.757 43.3286 31.7145C43.4082 31.6812 43.5017 31.6809 43.6683 31.6804C43.7316 31.7521 43.7921 31.8308 43.8531 31.9101C43.9931 32.0923 44.136 32.2782 44.3223 32.3926C44.5019 32.503 44.6045 32.6609 44.7063 32.8178C44.7717 32.9186 44.8369 33.0191 44.9221 33.1061C45.1208 33.3382 45.2839 33.599 45.4059 33.8797C45.4919 34.0298 45.532 34.2021 45.5212 34.3751C45.4899 34.5727 45.4061 34.8633 45.2672 34.9196C45.1077 34.9842 45.0843 35.0828 45.0603 35.1839C45.0499 35.2279 45.0394 35.2723 45.0176 35.3146C44.9191 35.5055 44.7842 35.6914 44.5367 35.7323C44.4843 35.741 44.4282 35.7612 44.373 35.7811C44.2761 35.8159 44.1818 35.8499 44.1144 35.8193C43.8484 35.71 43.6057 35.5502 43.3998 35.3486C43.0438 34.9569 42.7133 34.5425 42.4103 34.108C42.3591 34.0365 42.3574 33.9291 42.3555 33.8028C42.3545 33.7386 42.3534 33.6694 42.3457 33.5976L42.5756 33.7841C42.5455 33.5756 42.6558 33.4582 42.76 33.3474C42.8124 33.2915 42.8634 33.2374 42.8939 33.174ZM39.3552 55.546L39.6811 55.7258C39.6473 55.519 39.5996 55.3147 39.5383 55.1144C39.5062 55.0331 39.3924 54.9187 39.3297 54.9269C39.1922 54.9449 39.1089 54.8681 39.0313 54.7967C38.9812 54.7505 38.9334 54.7064 38.8749 54.6916C38.7267 54.6547 38.6429 54.5632 38.5596 54.4722C38.527 54.4366 38.4945 54.4011 38.4583 54.369C38.3849 54.304 38.3183 54.2275 38.252 54.1514L38.252 54.1513C38.1396 54.0224 38.0284 53.8947 37.8873 53.8259C37.7466 53.7574 37.6452 53.657 37.5451 53.5579C37.4804 53.4939 37.4162 53.4304 37.3423 53.3763C37.212 53.2809 37.0799 53.188 36.9481 53.0953L36.9478 53.0951L36.9476 53.0949L36.8829 53.0494L36.7728 52.9716H36.111C36.1765 53.1946 36.0605 53.1948 35.9435 53.195C35.852 53.1952 35.7599 53.1953 35.7536 53.302C35.7465 53.3862 35.8088 53.4416 35.8717 53.4975C35.9593 53.5754 36.048 53.6543 35.9524 53.8135C35.9198 53.7854 35.8887 53.7538 35.8577 53.7225C35.7353 53.5983 35.6167 53.4779 35.4271 53.5948C35.444 53.95 35.6716 54.1674 35.8993 54.3849L35.9321 54.4162C35.9786 54.4559 36.0216 54.4996 36.0605 54.5469C36.4517 55.0943 36.8828 55.6117 37.3503 56.0947C37.4052 56.1508 37.4466 56.22 37.4881 56.2892C37.5265 56.3535 37.565 56.4178 37.6143 56.4718L37.6348 56.4942C37.8162 56.6933 38.0039 56.8992 38.318 56.8551C38.3343 56.724 38.2685 56.6239 38.204 56.5257C38.1261 56.4073 38.0501 56.2916 38.1223 56.1277L38.741 56.7504L39.0651 56.5612L38.7785 55.8913C39.1838 56.0712 39.2173 56.0452 39.3552 55.546ZM35.079 15.695C35.1509 15.6998 35.2153 15.6901 35.2765 15.6809C35.3941 15.6633 35.5002 15.6473 35.6265 15.7392L35.3807 15.8244C35.3897 15.8552 35.3989 15.886 35.4081 15.9167C35.4186 15.9517 35.4292 15.9867 35.4397 16.0217L35.44 16.0225L35.4402 16.0233L35.4405 16.0241L35.4407 16.0249L35.4407 16.025L35.4408 16.0252C35.495 16.2045 35.5492 16.3841 35.5921 16.5656C35.6072 16.6297 35.5739 16.7561 35.5294 16.7749C35.3857 16.8359 35.3008 16.9522 35.2168 17.0672C35.1573 17.1487 35.0983 17.2295 35.0192 17.2898C34.9219 17.3493 34.8113 17.383 34.6976 17.3878C34.6699 17.3909 34.6396 17.3712 34.6094 17.3516C34.5794 17.3321 34.5495 17.3127 34.5221 17.3156C34.4493 17.3387 34.3813 17.3751 34.3215 17.4229L34.314 17.396C34.2168 17.0492 34.2118 17.0312 33.8091 16.8931C33.6557 16.8405 33.5777 16.7262 33.4987 16.6104C33.4505 16.5397 33.4019 16.4684 33.3355 16.4102L33.2158 16.6666C33.1959 16.6455 33.1715 16.6251 33.1477 16.6051C33.098 16.5633 33.0506 16.5235 33.0508 16.484C33.0541 15.7515 33.0534 15.7348 32.721 15.296C32.6079 15.4951 32.6929 15.6438 32.7828 15.8012C32.8424 15.9055 32.9042 16.0136 32.912 16.1428C32.883 16.1382 32.8494 16.1363 32.8167 16.1344C32.7489 16.1305 32.6852 16.1268 32.6747 16.101C32.6516 16.0445 32.6267 15.9885 32.6019 15.9326L32.6018 15.9325C32.4587 15.6102 32.3167 15.2907 32.5243 14.9003C32.5273 14.8947 32.5301 14.8892 32.533 14.8838C32.5362 14.8775 32.5393 14.8714 32.5424 14.8655L32.5503 14.8499L32.5504 14.8496C32.606 14.7402 32.6351 14.6829 32.7837 14.6805C32.8962 14.6672 33.0034 14.6247 33.0948 14.5573C33.2661 14.4483 33.4329 14.3325 33.6075 14.2113C33.6797 14.1611 33.7532 14.1101 33.8289 14.0583L33.9292 14.2096C34.0155 14.27 34.1033 14.2362 34.1786 14.2072C34.2815 14.1676 34.3608 14.137 34.3805 14.3692C34.3843 14.4132 34.4243 14.3998 34.472 14.3838C34.5481 14.3584 34.6438 14.3263 34.6438 14.5098C34.6438 14.5899 34.7451 14.67 34.8426 14.7471C34.8858 14.7813 34.9282 14.8148 34.9607 14.8475L34.8993 15.0085L34.851 15.1348L34.9412 15.1978L35.1144 14.8666L35.3702 15.3033C35.2805 15.4241 35.1797 15.5596 35.079 15.695ZM14.5651 32.49L14.9412 32.9672C15.0129 32.9187 15.079 32.8623 15.138 32.7989C15.1706 32.731 15.1992 32.6612 15.2237 32.59L15.2287 32.5793C15.2582 32.516 15.3053 32.4153 15.3231 32.4196C15.4636 32.4538 15.5599 32.3687 15.656 32.2837C15.7591 32.1927 15.8618 32.1019 16.0183 32.1587C16.0398 32.1116 16.0588 32.0633 16.0751 32.0142C15.9538 31.9568 15.9766 31.8685 15.9992 31.7813C16.011 31.7354 16.0228 31.6898 16.0136 31.6491C15.9738 31.4737 15.8807 31.3337 15.7886 31.1953C15.7234 31.0975 15.6589 31.0004 15.614 30.8922C15.4231 30.423 15.1274 30.0043 14.7497 29.6687L13.5004 29.8453L13.5004 30.4439C13.405 30.4097 13.3386 30.3341 13.2742 30.2607C13.1818 30.1554 13.0936 30.0548 12.9295 30.0883C12.8562 30.4264 12.8672 30.753 13.0527 31.0131C13.2063 31.2283 13.3412 31.4547 13.476 31.6809C13.606 31.899 13.7359 32.1169 13.8821 32.3242C14.0123 32.53 14.1945 32.6973 14.4099 32.8091L14.5651 32.49ZM28.4763 40.4039L28.7183 40.9666L28.8311 40.6673C28.8364 40.6706 28.8423 40.6737 28.8486 40.6767C28.8526 40.6786 28.8567 40.6805 28.8608 40.6824L28.8609 40.6825C28.8831 40.6928 28.9051 40.7029 28.9091 40.7178C28.9619 40.925 29.0673 41.1148 29.2149 41.2688C29.3025 41.3708 29.3757 41.4846 29.4325 41.6068C29.5266 41.8174 29.7189 41.9669 29.9452 42.0054L30.0434 41.8046L30.3786 42.0569C30.3786 42.0741 30.379 42.0891 30.3795 42.102L30.3808 42.1282C30.3822 42.1553 30.3829 42.1689 30.3773 42.1726C30.29 42.2298 30.201 42.2843 30.1166 42.3362L30.1164 42.3362L30.0502 42.3769L30.1475 42.9249L29.72 42.7155L29.4736 43.215L29.1778 43.2489V43.5222C28.8709 43.7536 28.6196 43.7225 28.3534 43.4783C28.2434 43.3773 28.1281 43.2823 28.0112 43.186C27.82 43.0284 27.6244 42.8673 27.4408 42.671L27.8169 42.4208C27.7457 42.1691 27.6222 41.9354 27.4547 41.7351C27.3332 41.584 27.2502 41.4017 27.1685 41.2225C27.1331 41.1446 27.0979 41.0674 27.0599 40.9935C27.2015 40.8179 27.3195 40.884 27.4439 40.9536C27.4769 40.972 27.5102 40.9907 27.5446 41.0052C27.5469 40.9853 27.5513 40.9649 27.5557 40.9449C27.565 40.9028 27.5738 40.8627 27.5605 40.8325C27.438 40.555 27.4909 40.4182 27.7507 40.4061C27.9198 40.3984 28.0893 40.4003 28.2563 40.4022C28.3302 40.4031 28.4036 40.4039 28.4763 40.4039ZM11.3744 43.2677L11.0839 42.8353C11.0706 42.8443 11.0574 42.853 11.0443 42.8615C10.9325 42.9348 10.834 42.9993 10.8168 43.1792C10.7772 43.5885 10.9383 43.9338 11.0989 44.278C11.1402 44.3666 11.1815 44.4551 11.2193 44.5446C11.2951 44.7241 11.6012 44.7827 11.8439 44.7292C11.9413 44.7102 12.0408 44.7038 12.1399 44.7101C12.3878 44.7353 12.6113 44.5593 12.6466 44.3111C12.6847 44.1364 12.7271 44.0194 12.9087 43.9676C13.0718 43.9332 13.1781 43.7745 13.1487 43.6095C13.1475 43.5926 13.146 43.5756 13.1446 43.5586C13.1327 43.4197 13.1205 43.2767 13.2615 43.1636C13.2999 43.0909 13.2992 43.0037 13.2596 42.9317C13.2368 42.8992 13.1879 42.8794 13.1422 42.8609C13.0939 42.8413 13.0491 42.8232 13.042 42.7929C13.0331 42.7551 13.0597 42.711 13.0873 42.6653C13.1127 42.6233 13.1389 42.5799 13.1393 42.5386C13.142 42.2504 12.9289 42.0993 12.7045 42.0126C12.6444 41.9893 12.5778 41.9877 12.5096 41.986C12.4067 41.9836 12.3 41.981 12.2065 41.9036C12.198 41.8965 12.1476 41.9434 12.0883 41.9986C12.0411 42.0425 11.9882 42.0918 11.9462 42.1233C11.8925 42.1517 11.8354 42.1729 11.7763 42.1863V42.6887L11.6335 42.3899H11.2781C11.2934 42.4578 11.3085 42.5233 11.3232 42.5873L11.3232 42.5874C11.3629 42.7597 11.3998 42.9203 11.4302 43.0822C11.4358 43.1119 11.422 43.1454 11.4042 43.1885C11.3946 43.2118 11.3839 43.2379 11.3744 43.2677ZM30.6814 31.7729L31.1869 31.9218C31.2696 31.7238 31.294 31.5336 31.1196 31.3565C31.2465 31.2404 31.3483 31.2968 31.4538 31.3554C31.5264 31.3957 31.6007 31.4369 31.6863 31.4238L31.747 31.0948C31.8297 31.006 31.9085 31.0444 31.9915 31.0849C32.0737 31.1249 32.16 31.167 32.2584 31.0903C32.381 30.9953 32.4483 31.0812 32.5203 31.173C32.5677 31.2336 32.6171 31.2966 32.6857 31.3122C32.7904 31.3542 32.8801 31.4272 32.9428 31.5216C33.0388 31.6401 33.1009 31.7792 33.1634 31.919C33.2501 32.1133 33.3374 32.3088 33.5171 32.4525C33.5665 32.492 33.5653 32.5955 33.564 32.7136C33.5634 32.7726 33.5627 32.8352 33.5682 32.8954C33.3925 32.8086 33.3014 32.9102 33.2098 33.0122C33.1228 33.1092 33.0355 33.2066 32.8747 33.1435C32.8442 33.1933 32.8315 33.2553 32.8186 33.3186C32.7886 33.4654 32.7571 33.6193 32.4978 33.6443L32.3097 33.3215L32.1624 33.6317C31.9636 33.6789 31.8679 33.5166 31.8003 33.4019L31.791 33.3861C31.5717 33.0129 31.2615 32.702 30.8897 32.4829C30.6555 32.3423 30.5273 32.1131 30.6814 31.7729ZM26.9322 16.0478L27.7079 15.4361C27.6937 15.3746 27.6841 15.306 27.6742 15.235C27.651 15.0691 27.6258 14.8893 27.5364 14.7522C27.3149 14.3975 27.04 14.0796 26.7215 13.8098C26.3475 13.5086 25.9059 13.2604 25.4368 13.7019C25.4067 13.7302 25.3584 13.7389 25.3039 13.7487C25.2756 13.7538 25.2455 13.7592 25.2155 13.7679C25.2263 13.8229 25.2317 13.8783 25.2368 13.9311C25.2474 14.0389 25.2569 14.1357 25.3085 14.196C25.3433 14.2366 25.3788 14.2765 25.4142 14.3164C25.6252 14.5537 25.8331 14.7875 25.8595 15.1343C26.0437 15.2843 26.1381 15.4901 26.2319 15.6943C26.2881 15.8168 26.3441 15.9388 26.419 16.0478H26.9322Z" fill="#171B1B"/>
</svg>
