<svg width="102" height="89" viewBox="0 0 102 89" fill="none" xmlns="http://www.w3.org/2000/svg">
<path fill-rule="evenodd" clip-rule="evenodd" d="M2.49318 1.65291L2.49317 1.65291C2.44681 1.7176 2.39846 1.78505 2.34673 1.856C1.71491 1.56157 1.54628 1.5755 1.23613 2.05863L1.21615 2.08967C1.06634 2.32217 0.90718 2.56918 0.953649 2.89798C0.976304 3.05745 0.969785 3.22083 0.963256 3.38443C0.957032 3.5404 0.950801 3.69656 0.969829 3.84973C1.04878 4.48136 1.20591 5.08885 1.69951 5.54806C1.85817 5.69549 2.00953 5.85081 2.16631 6.0117L2.16639 6.01178C2.23883 6.08612 2.31243 6.16165 2.38845 6.23813H2.6489C2.68031 6.23813 2.71175 6.23783 2.74319 6.23752H2.74321H2.74323H2.74326H2.74328H2.7433H2.74332H2.74334H2.74337H2.74339H2.74341H2.74343H2.74345H2.74347H2.7435H2.74352H2.74354H2.74356H2.74358H2.74361H2.74363H2.74365H2.74367H2.74372H2.74374H2.74375H2.74377H2.74378H2.7438H2.74382H2.74383H2.74385H2.74386H2.74388H2.74389H2.74391H2.74392H2.74394H2.74395H2.74397H2.74398H2.744H2.74402H2.74403H2.74405C2.80715 6.23691 2.87028 6.2363 2.93332 6.23813C3.42549 6.25234 3.42597 6.2538 3.622 6.84121L3.62655 6.85485C3.64486 6.90988 3.6786 6.96444 3.71171 7.01798C3.7618 7.09899 3.81045 7.17766 3.802 7.25207C3.75151 7.69322 4.00592 7.91625 4.31783 8.12594L4.65177 7.03119L4.79135 7.05905V8.11829C5.44716 8.26844 5.51161 7.83504 5.57173 7.4307C5.57547 7.40558 5.57919 7.38058 5.58303 7.35583C5.9776 7.53414 6.28269 7.56356 6.47315 7.17439C6.62637 6.86139 6.75698 6.99594 6.89017 7.13313L6.89019 7.13315C6.90849 7.15201 6.92684 7.17091 6.94531 7.18871C7.33009 6.60298 7.50325 5.90204 7.43579 5.20321C7.40491 4.65919 7.41132 4.11319 7.41773 3.5671V3.56709V3.56708V3.56706V3.56705V3.56704V3.56703V3.56702V3.56701V3.56699V3.56698V3.56697V3.56696V3.56695V3.56694V3.56693V3.56691V3.5669V3.56689V3.56688V3.56687V3.56686V3.56685C7.42103 3.28564 7.42433 3.00441 7.42254 2.7234C7.41399 2.55978 7.3972 2.39669 7.37224 2.23478L7.27477 2.23909L7.18295 3.15828C7.07654 2.92378 7.02843 2.66674 7.04278 2.40936C7.03764 2.16333 7.01365 1.91806 6.97104 1.67573C6.90925 1.45633 6.83246 1.24148 6.7412 1.03273L6.58895 1.47428C6.26502 0.883443 6.26417 0.88365 5.66458 1.02962L5.65984 1.03077C5.57776 1.05058 5.44618 1.08001 5.4107 1.04078C5.21731 0.823042 5.08494 0.871689 4.8629 1.03254C4.81097 1.0701 4.71159 1.0272 4.60211 0.979954C4.50118 0.93639 4.39166 0.889121 4.30282 0.897778C4.0709 0.932802 3.84951 1.01887 3.65443 1.14984C3.52442 1.23045 3.41884 1.17284 3.316 1.11672C3.22115 1.06497 3.12863 1.01449 3.02144 1.07491C2.94 1.11422 2.86645 1.16828 2.80446 1.23438C2.69954 1.36498 2.60179 1.50136 2.49318 1.65291ZM20.4366 10.4032C20.3267 10.438 20.1826 10.3655 19.8999 10.223C19.845 10.3037 19.772 10.3689 19.6984 10.4346L19.6983 10.4347L19.6983 10.4347C19.5413 10.5748 19.3812 10.7178 19.3862 11.0198C19.3866 11.4167 19.5353 11.799 19.8028 12.0906C19.8326 12.1246 19.8619 12.1614 19.8916 12.1986C19.9867 12.3178 20.0848 12.4408 20.2077 12.4847C20.5678 12.6137 20.8034 12.8786 21.0385 13.1428C21.1528 13.2712 21.2669 13.3995 21.3951 13.512C21.8493 13.911 22.0039 14.4902 22.0443 15.0455C22.1424 16.3937 22.8507 17.4494 23.5585 18.5043L23.6157 18.5897C23.8452 18.931 24.2337 18.9921 24.6281 19.0541C24.6954 19.0647 24.7629 19.0753 24.8299 19.0873L24.8627 19.0932C25.5888 19.2239 25.7594 19.2546 26.0362 18.7256L26.0664 18.6675C26.239 18.3343 26.3514 18.1173 26.7464 18.4661C26.7757 18.4928 26.9046 18.4153 27.0044 18.3553C27.022 18.3447 27.0387 18.3347 27.0538 18.3259C27.0944 18.302 27.1427 18.2615 27.187 18.2244C27.2466 18.1744 27.2989 18.1306 27.315 18.1419C27.7035 18.4217 27.7334 18.0535 27.7484 17.8691L27.7492 17.8598C27.7543 17.7974 27.7599 17.7344 27.7656 17.6711V17.6711C27.803 17.2539 27.8418 16.8222 27.7365 16.4373C27.6993 16.3017 27.6751 16.1592 27.6508 16.0161C27.5899 15.6576 27.5283 15.2946 27.2603 15.0224C27.0693 14.8594 26.9696 14.6128 26.9934 14.3619C26.982 14.244 26.9372 14.1319 26.8643 14.0389C26.8236 13.9722 26.7831 13.9053 26.7427 13.8384C26.5672 13.5481 26.3915 13.2576 26.1925 12.9845C26.0589 12.8013 25.9127 12.6275 25.7665 12.4536L25.7664 12.4536L25.7664 12.4536L25.7664 12.4536L25.7664 12.4536L25.7664 12.4536L25.7664 12.4535L25.7664 12.4535L25.7664 12.4535L25.7663 12.4535L25.7663 12.4535L25.7663 12.4535L25.7663 12.4535L25.7663 12.4534L25.7663 12.4534L25.7663 12.4534L25.7663 12.4534L25.7663 12.4534L25.7662 12.4534L25.7662 12.4534L25.7662 12.4533L25.7662 12.4533L25.7662 12.4533L25.7662 12.4533L25.7662 12.4533L25.7661 12.4532C25.6166 12.2754 25.4671 12.0977 25.3311 11.91C25.1389 11.6449 24.9236 11.3969 24.7112 11.1522L24.7112 11.1522L24.7111 11.1522L24.7111 11.1521L24.7111 11.1521L24.7111 11.1521L24.7111 11.1521L24.7111 11.152C24.6689 11.1034 24.6268 11.0549 24.585 11.0065C24.5372 10.951 24.4899 10.8942 24.4425 10.8372L24.4424 10.8371L24.4423 10.8369C24.121 10.4508 23.7895 10.0524 23.2171 9.97333C22.8108 9.89712 22.409 9.7989 22.0133 9.6791C21.7963 9.90067 21.5348 9.88593 21.2745 9.87125C21.1073 9.86182 20.9405 9.85242 20.7863 9.90566C20.6283 10.2152 20.5508 10.367 20.4366 10.4032ZM90.6734 72.7383C90.8034 71.9062 91.1077 71.1653 91.7558 70.6553C91.738 70.5093 91.7195 70.376 91.7022 70.2511C91.6677 70.0016 91.6378 69.7856 91.6273 69.5695C91.608 69.1445 91.4922 68.7121 91.0851 68.6062C90.5995 68.4799 90.31 68.291 90.2876 67.7706C90.2774 67.7109 90.2406 67.6592 90.1876 67.6303C89.7155 67.4238 89.3888 67.0544 89.0622 66.685L89.0621 66.685L89.0621 66.6849L89.062 66.6849L89.062 66.6849L89.0619 66.6848L89.0619 66.6848L89.0619 66.6847L89.0618 66.6847L89.0618 66.6846L89.0617 66.6846L89.0617 66.6845L89.0616 66.6845L89.0616 66.6844L89.0615 66.6844L89.0615 66.6843L89.0614 66.6843L89.0614 66.6843L89.0613 66.6842L89.0613 66.6842L89.0613 66.6841L89.0612 66.6841L89.0612 66.684L89.0611 66.684L89.0611 66.6839C88.8911 66.4917 88.7211 66.2994 88.5306 66.1303L88.4556 66.0635C88.0293 65.6828 88.0065 65.6624 87.2439 65.7164C87.0908 65.7273 86.9384 65.75 86.7634 65.776L86.7633 65.776C86.6766 65.7889 86.5843 65.8026 86.4836 65.8161C86.1484 65.4281 85.838 65.0191 85.5541 64.5917C85.4812 64.4697 85.3852 64.3603 85.2889 64.2508C85.0863 64.0201 84.883 63.7886 84.8935 63.4375C84.6071 63.3992 84.4441 63.1962 84.2962 63.0121L84.2961 63.012C84.1998 62.8922 84.11 62.7803 83.9967 62.727L83.0323 62.9198V63.4495L82.8791 63.3164L82.8261 63.2702L82.4674 63.5056C83.1258 64.9312 83.9172 66.2908 84.8309 67.566C84.981 67.7547 85.0045 68.0155 84.8903 68.2282C84.7531 68.0254 84.6161 67.8298 84.4816 67.6377L84.4814 67.6375C84.1852 67.2145 83.9011 66.8088 83.653 66.3822C83.3353 65.8356 83.0476 65.2711 82.7594 64.7055L82.7592 64.7051L82.759 64.7047C82.6347 64.4607 82.5103 64.2166 82.3833 63.9736C81.8723 64.3374 81.873 64.3391 82.0704 64.7941L82.0792 64.8145C82.6541 66.1402 83.4118 67.3649 84.1673 68.5861L84.1697 68.59L84.1736 68.5962L84.3758 68.9234C84.4212 68.9969 84.4664 69.0704 84.5116 69.1439C85.3592 70.5242 86.2649 71.8771 87.5005 72.9711C87.7418 73.1848 88.0095 73.332 88.2768 73.479L88.2769 73.4791C88.3984 73.5459 88.5199 73.6127 88.6388 73.6857C88.7991 73.7567 88.9843 73.7413 89.131 73.6449C89.3058 73.465 89.5002 73.4231 89.7093 73.378C89.7625 73.3666 89.8167 73.3549 89.8718 73.3407L89.9179 73.329L89.9503 73.321L89.9507 73.3209L89.9516 73.3207C90.2518 73.2467 90.6076 73.159 90.6734 72.7383ZM81.4913 46.4349C81.3407 46.2834 81.1979 46.1329 81.0582 45.9857L81.0581 45.9855C80.7614 45.6729 80.4787 45.375 80.1657 45.1138C79.0968 44.2215 78.4825 43.0297 77.8683 41.838C77.7238 41.5576 77.5793 41.2772 77.4288 41.0008C77.13 40.4512 77.1548 39.845 77.1794 39.2458C77.184 39.1339 77.1885 39.0223 77.191 38.9113C77.1927 38.8283 77.2709 38.7469 77.3517 38.6629L77.3517 38.6628C77.3898 38.6232 77.4284 38.583 77.4598 38.5417L77.4607 38.5435L77.4669 38.5559L77.4701 38.5622L77.4786 38.5792L77.485 38.592L77.488 38.5979C77.6121 38.845 77.7326 39.085 77.9035 39.4244V38.119C77.9903 38.0759 78.0767 38.0388 78.1603 38.003C78.3426 37.9249 78.5112 37.8526 78.6391 37.7357C78.8355 37.5719 79.1045 37.5275 79.3426 37.6196C79.5133 37.6628 79.6668 37.7753 79.8274 37.8931C79.8989 37.9454 79.9717 37.9988 80.0481 38.0476C79.9025 38.7328 80.1707 39.3066 80.5027 39.9042C80.6094 39.8752 80.723 39.8839 80.8386 39.8928C81.0449 39.9087 81.2576 39.9251 81.4482 39.7277C81.5579 39.6626 81.6925 39.6565 81.8075 39.7116C81.9794 39.8158 82.1606 39.9083 82.3419 40.0009L82.342 40.001L82.3421 40.001L82.3422 40.0011L82.3423 40.0011L82.3424 40.0011L82.3425 40.0012L82.3425 40.0012L82.3426 40.0013L82.3427 40.0013L82.3428 40.0014L82.3429 40.0014L82.343 40.0015L82.3431 40.0015L82.3432 40.0016L82.3433 40.0016L82.3434 40.0016L82.3435 40.0017L82.3436 40.0017L82.3436 40.0018L82.3437 40.0018L82.3438 40.0019L82.3439 40.0019L82.344 40.002C82.9306 40.3016 83.5184 40.6017 83.7995 41.2932L83.8184 41.3403C83.8801 41.4947 83.9519 41.6743 84.0724 41.7401C84.1566 41.7861 84.1735 41.8729 84.1904 41.9592C84.2137 42.0785 84.2368 42.1967 84.4371 42.2044C84.6262 42.2117 84.6089 42.3432 84.5913 42.477C84.5825 42.544 84.5736 42.6117 84.5906 42.6646C84.6656 42.8565 84.7269 43.0536 84.774 43.2544C84.7918 43.444 84.7941 43.6347 84.7806 43.8246C84.081 44.4607 83.5461 45.2589 83.2224 46.1501L81.4913 46.4349ZM57.4952 9.60814L57.4951 9.60826L57.495 9.60831L57.495 9.60834C57.1838 9.82276 56.8774 10.0338 56.5612 10.2282C56.5357 10.2439 56.4663 10.188 56.3788 10.1174L56.3788 10.1173C56.3323 10.0799 56.2807 10.0382 56.2278 10.001C56.1537 10.157 56.0682 10.3072 55.9721 10.4504C55.8464 10.5934 55.7135 10.7298 55.574 10.859L55.5385 10.8959C55.2833 11.1623 55.0302 11.4265 54.6529 11.024C54.6344 11.0043 54.5923 11.0088 54.5482 11.0137C54.5207 11.0167 54.4924 11.0197 54.4684 11.0171C54.356 11.0048 54.2448 11.0028 54.1343 11.0008C53.8082 10.9949 53.4875 10.989 53.1537 10.7203C53.0111 10.6055 52.8529 10.5046 52.6928 10.4026C52.4491 10.2472 52.201 10.0891 51.9971 9.87469C51.6591 9.56137 51.3673 9.20097 51.1308 8.80446C50.791 8.15401 50.4561 7.51101 50.5769 6.74757C50.6449 6.52923 50.7386 6.31987 50.8561 6.12399L51.4456 6.61026C51.4881 6.46845 51.5165 6.32031 51.5453 6.17058C51.6211 5.77521 51.6991 5.36879 52.0443 5.03885L52.6356 5.48314V4.7864C52.8304 4.75282 53.0198 4.70869 53.2071 4.66502C53.6197 4.56886 54.0226 4.47496 54.453 4.50099C54.7846 4.50717 55.1029 4.63319 55.3498 4.85603C55.4495 4.95198 55.5568 5.03862 55.6644 5.12545C55.8721 5.2932 56.0808 5.46169 56.2378 5.6995C56.3463 5.86444 56.4755 6.01572 56.6059 6.16845C56.7333 6.31762 56.8619 6.46817 56.9735 6.63419C57.2052 6.97944 57.3413 7.36138 57.4772 7.74274L57.4772 7.74278C57.5586 7.97113 57.6399 8.19927 57.7416 8.41921C57.8311 8.61212 57.8076 8.85794 57.7843 9.10127C57.7738 9.21103 57.7634 9.32027 57.7634 9.42392C57.6734 9.4854 57.5841 9.54691 57.4952 9.60814ZM17.5187 29.7553V27.7037L17.3436 27.6617C17.3012 27.8088 17.2429 27.9587 17.1845 28.1086L17.1845 28.1087L17.1845 28.1087L17.1845 28.1087L17.1845 28.1087L17.1845 28.1087L17.1844 28.1087L17.1844 28.1088L17.1844 28.1088L17.1844 28.1088L17.1844 28.1088L17.1844 28.1088L17.1844 28.1088L17.1844 28.1089L17.1844 28.1089L17.1844 28.1089L17.1844 28.1089L17.1844 28.1089L17.1844 28.1089L17.1844 28.109L17.1844 28.109C17.0517 28.4497 16.9191 28.7904 16.9732 29.0972C16.9961 29.2251 17.0129 29.3562 17.0299 29.4884C17.0838 29.9085 17.1393 30.3409 17.3955 30.7253C17.5465 30.9519 17.6671 31.2005 17.7876 31.449L17.7876 31.449L17.7877 31.4491L17.7877 31.4491L17.7877 31.4491L17.7877 31.4491L17.7877 31.4492L17.7877 31.4492L17.7877 31.4492L17.7877 31.4492L17.7877 31.4492L17.7878 31.4493L17.7878 31.4493L17.7878 31.4493L17.7878 31.4493L17.7878 31.4494L17.7878 31.4494L17.7878 31.4494L17.7878 31.4494L17.7879 31.4495L17.7879 31.4495C18.0673 32.0257 18.3464 32.601 19.0022 32.8979C19.1139 33.363 19.4877 33.5261 19.8466 33.6827L19.8467 33.6827L19.8468 33.6828C19.9432 33.7248 20.0384 33.7664 20.1273 33.8132C20.7024 34.1165 21.3178 34.4115 21.9935 33.9727C22.443 33.6807 22.9061 33.41 23.3645 33.142L23.3646 33.1419C23.5649 33.0248 23.7643 32.9082 23.9613 32.7906C23.9408 32.4892 23.9434 32.1866 23.9691 31.8856C24.0665 31.2894 23.7975 30.784 23.4817 30.3771C23.2969 30.1396 23.1977 29.8459 23.2004 29.5442C23.0477 29.254 22.8218 29.0778 22.6026 28.9069C22.4089 28.7558 22.2205 28.6089 22.0925 28.391C21.9241 28.1808 21.6698 28.0591 21.4014 28.0603C21.245 28.069 21.0857 28.0525 20.9257 28.036C20.5636 27.9985 20.1983 27.9607 19.8557 28.2141C19.8034 28.2529 19.6986 28.2122 19.5858 28.1685C19.5079 28.1383 19.4262 28.1066 19.3553 28.0986C19.3004 28.0923 19.2414 28.1227 19.1632 28.1631C19.1216 28.1845 19.0746 28.2088 19.02 28.2318C19.0457 28.043 19.0412 27.8514 19.0065 27.6641C18.9514 27.5123 18.7677 27.2822 18.6702 27.2965C18.3837 27.3537 18.1075 27.4548 17.8515 27.5962C17.6568 27.6926 17.6709 27.8699 17.6846 28.0421V28.0422V28.0422V28.0422V28.0422V28.0423V28.0423C17.6887 28.0934 17.6927 28.144 17.6912 28.1919C17.6882 28.286 17.6869 28.3802 17.6856 28.4744L17.6856 28.4746L17.6856 28.4748L17.6856 28.475L17.6856 28.4752L17.6856 28.4754L17.6855 28.4756L17.6855 28.4758L17.6855 28.476L17.6855 28.4762L17.6855 28.4764L17.6855 28.4766L17.6855 28.4768L17.6855 28.477L17.6855 28.4772L17.6855 28.4775L17.6855 28.4777L17.6855 28.4779L17.6855 28.4781L17.6855 28.4783L17.6855 28.4785C17.6794 28.9047 17.6733 29.3318 17.5187 29.7553ZM35.906 38.05L34.6045 36.7404C34.5857 36.3855 34.5914 36.0297 34.6215 35.6755C34.64 35.5382 34.8359 35.4009 34.9823 35.3203C35.0209 35.299 35.1017 35.3549 35.1824 35.4107C35.2175 35.435 35.2526 35.4593 35.2841 35.4772C35.3042 35.4372 35.3231 35.3951 35.3422 35.3526C35.4539 35.1038 35.5708 34.8431 35.9693 34.9209C36.059 34.9462 36.1549 34.9369 36.2382 34.895C36.4709 34.7061 36.7238 34.5127 37.0211 34.5961C37.1223 34.6244 37.2258 34.6505 37.3297 34.6767L37.33 34.6768L37.3304 34.6769C37.7736 34.7886 38.2266 34.9029 38.5629 35.2024C39.384 35.934 40.1644 36.7291 40.5732 37.7858C40.8286 38.4131 41.0232 39.0639 41.1543 39.7289C41.2213 40.0779 41.0837 40.4348 40.8001 40.6469C40.5919 40.7935 40.3867 40.9447 40.1816 41.0959L40.1814 41.096C39.8546 41.3369 39.5279 41.5777 39.1891 41.7999C38.99 41.9314 38.7553 41.9975 38.5173 41.989C37.1363 41.8687 36.1522 41.215 35.7444 39.6455C35.725 39.5709 35.6967 39.4953 35.6684 39.4198L35.6684 39.4198L35.6684 39.4197L35.6684 39.4197L35.6684 39.4196L35.6683 39.4196L35.6683 39.4195L35.6683 39.4195L35.6683 39.4194L35.6683 39.4194C35.6101 39.2638 35.5521 39.109 35.5728 38.965C35.6505 38.6488 35.7623 38.3419 35.906 38.05ZM38.1625 72.0203L38.2752 72.5955C38.4097 72.2902 38.4594 72.0305 38.2319 71.7345C38.0867 71.5453 37.9883 71.3278 37.8892 71.1085C37.7556 70.813 37.6206 70.5144 37.3675 70.2779C37.2001 70.1441 37.0489 69.991 36.9168 69.8218C36.2396 68.6998 35.2042 68.0662 34.0603 67.5603L34.0156 67.5402C33.8843 67.4808 33.7089 67.4014 33.6509 67.4487C33.4655 67.6005 33.3145 67.5431 33.1543 67.4821C33.1161 67.4676 33.0773 67.4528 33.0374 67.4407C32.9216 67.4056 32.7352 67.3803 32.6695 67.4438C32.4476 67.6581 32.1793 67.7647 31.9088 67.8722L31.9085 67.8723L31.9083 67.8724C31.8771 67.8848 31.8459 67.8972 31.8148 67.9098C31.7877 67.9207 31.7607 67.9317 31.7338 67.943C31.6615 67.9734 31.5258 68.0413 31.6527 68.2133C31.7148 68.298 31.7294 68.4177 31.7461 68.5542C31.7542 68.6204 31.7627 68.6905 31.7775 68.7626C31.3123 68.5291 30.9275 68.4264 30.6629 68.8145C30.7114 68.9407 30.7514 69.0679 30.7906 69.1922C30.8741 69.4576 30.9535 69.7099 31.1018 69.9103C31.2445 70.1033 31.3631 70.3157 31.4817 70.5282C31.7355 70.9827 31.9895 71.4378 32.481 71.7051C33.0326 72.714 33.966 73.2588 34.903 73.8056L34.9032 73.8057L35.0024 73.8636L35.1109 73.9272L35.1399 73.9442C35.4339 74.1617 35.8339 74.1628 36.129 73.947C36.1367 73.9419 36.1445 73.9367 36.1524 73.9313L36.1711 73.9183C36.2925 73.834 36.4393 73.732 36.6445 73.9189C36.742 73.9748 36.8592 73.9841 36.9642 73.9443C37.0693 73.9044 37.1512 73.8195 37.1878 73.7128C37.2639 73.4301 37.459 73.2166 37.655 73.0023C37.9074 72.7262 38.1611 72.4488 38.1625 72.0203ZM95.9576 28.0144L96.0356 27.4673C96.06 27.485 96.0835 27.4989 96.1043 27.5113C96.1425 27.534 96.1718 27.5515 96.182 27.5766C96.248 27.7391 96.3184 27.8997 96.3889 28.0604L96.3889 28.0605L96.389 28.0605L96.389 28.0606L96.3891 28.0607L96.3891 28.0608L96.3892 28.061L96.3892 28.0611L96.3893 28.0613L96.3894 28.0614L96.3894 28.0616L96.3895 28.0618L96.3896 28.0619L96.3896 28.0621L96.3897 28.0623L96.3897 28.0623L96.3898 28.0624C96.579 28.4939 96.7681 28.9252 96.8723 29.3918L96.8874 29.4587C96.9735 29.8379 97.0555 30.1988 96.689 30.4956C96.5883 30.5771 96.565 30.717 96.5417 30.8569C96.504 31.0837 96.4663 31.3105 96.0989 31.2893C95.8258 31.7306 95.3925 31.6988 94.9728 31.668L94.9404 31.6657C94.8654 31.959 94.7707 32.2468 94.6569 32.5272C94.5144 32.8238 94.059 32.9077 93.5707 32.7675C93.5254 32.7544 93.4807 32.7286 93.4367 32.7033C93.3726 32.6664 93.31 32.6303 93.2494 32.6357L93.2281 32.6375C92.4589 32.705 92.4573 32.7051 92.1273 32.0833C91.9446 31.7797 91.7791 31.4659 91.6316 31.1435C91.4955 30.7654 91.2029 30.4654 90.8298 30.3214C90.2524 30.0774 89.8418 29.55 89.7447 28.9275C89.6517 28.3681 89.9119 27.8548 90.4085 27.4513L90.625 27.7359C90.8052 27.9727 90.9996 28.2281 91.2436 28.5486C91.2436 28.3957 91.2431 28.2594 91.2425 28.1342C91.2415 27.8808 91.2407 27.6727 91.245 27.4648C91.2501 27.2171 91.2719 27.2081 91.5275 27.103C91.5925 27.0763 91.6726 27.0434 91.7713 26.9987C91.8891 26.9454 92.0249 26.9322 92.1608 26.919C92.4248 26.8933 92.6889 26.8676 92.8207 26.5476L93.8489 26.5083C94.4821 26.4832 95.0437 26.5527 95.3388 27.2608C95.4185 27.4535 95.5753 27.6136 95.7376 27.7791L95.7376 27.7792L95.7377 27.7792L95.7377 27.7793L95.7378 27.7793C95.8122 27.8553 95.8878 27.9324 95.9576 28.0144ZM1.18943 31.4927C1.24724 32.0828 1.69008 32.5611 2.27099 32.661L2.60337 31.8556C2.76323 32.3693 2.98625 32.7571 3.58395 32.8224C3.67144 32.6394 3.76813 32.461 3.87364 32.2879C3.90315 32.2437 3.94628 32.2042 3.98899 32.1651C4.10936 32.055 4.22648 31.9478 4.02648 31.7451L4.59455 31.7881C4.72984 31.4929 4.91095 31.0984 5.08075 30.7288C5.13971 30.7437 5.19745 30.7586 5.25429 30.7733L5.25531 30.7736L5.25574 30.7737L5.25592 30.7737L5.25604 30.7738C5.43816 30.8208 5.61115 30.8654 5.78606 30.8999C5.81686 30.9069 5.90049 30.8214 5.89796 30.7822C5.89211 30.6973 5.86462 30.5603 5.81316 30.5431C5.76161 30.5257 5.69872 30.5304 5.63788 30.5349C5.56458 30.5403 5.49426 30.5455 5.45036 30.5117C5.40075 30.474 5.38789 30.3874 5.37038 30.2694C5.36126 30.208 5.35088 30.1381 5.3334 30.0621L5.71491 30.4024L5.71517 29.7536V29.7535C5.71566 28.9715 5.71612 28.2292 5.70984 27.487C5.7094 27.4423 5.68155 27.399 5.65312 27.3549C5.63102 27.3206 5.60856 27.2858 5.59833 27.2492C5.54178 27.0473 5.44801 26.855 5.35606 26.6666C5.17474 26.2949 5.00054 25.9378 5.13299 25.5493C4.9491 25.046 4.58485 25.0171 4.2424 24.9899C4.01778 24.9721 3.80254 24.955 3.65374 24.8053C3.5327 24.8689 3.41606 24.9445 3.30236 25.0182C3.05769 25.1769 2.82665 25.3267 2.5948 25.3281C2.34063 25.3296 2.15539 25.4611 1.97375 25.5901C1.78856 25.7216 1.60713 25.8504 1.3602 25.8361C1.29685 25.8324 1.16253 26.0193 1.16409 26.1174C1.16676 26.2937 1.11133 26.4528 1.05526 26.6137C0.992705 26.7932 0.929344 26.975 0.94497 27.1857C1.00781 28.0112 1.00885 28.8404 0.948089 29.6661C0.914621 30.1045 1.00042 30.5208 1.08563 30.9342C1.124 31.1203 1.16225 31.3059 1.18943 31.4927ZM72.2222 76.6328C72.1464 76.6306 72.0713 76.6256 71.9975 76.6207C71.5925 76.5938 71.2288 76.5697 71.0276 77.0335C70.6266 76.5015 70.5792 76.1237 70.9876 75.7008C71.0915 75.5933 71.1824 75.476 71.2737 75.3581L71.2738 75.3579C71.4303 75.1558 71.5881 74.952 71.8154 74.7928C71.9973 74.6652 72.1127 74.4484 72.2299 74.2283C72.3158 74.0671 72.4026 73.9041 72.5172 73.7728C72.6614 73.6074 72.8556 73.4861 73.0497 73.3647L73.0498 73.3647C73.1363 73.3105 73.2228 73.2564 73.305 73.1984L73.6202 73.5096L73.1738 73.8285L73.2233 73.9433L73.9001 73.836C73.9178 73.8629 73.9363 73.9012 73.9572 73.9445C74.0124 74.059 74.0842 74.2078 74.2013 74.2693C75.1706 74.7767 75.789 75.6241 76.3777 76.4941C76.4923 76.6633 76.5624 76.8619 76.6328 77.0613C76.6812 77.1984 76.7297 77.3359 76.7929 77.4645L76.8547 77.5897C77.1872 78.2633 77.2691 78.4292 77.159 79.0992C77.0748 79.612 76.9814 80.1585 76.581 80.5769C76.4051 80.7389 76.2873 80.9548 76.2459 81.191C76.225 81.7238 75.934 81.8091 75.5063 81.7815C75.3842 81.775 75.2618 81.7882 75.1439 81.8207C74.3974 82.0227 74.3204 82.0019 73.9483 81.4262C73.4893 80.7166 73.2299 79.9224 72.971 79.1296L72.971 79.1295L72.9707 79.1288L72.9705 79.128L72.9702 79.1273C72.9184 78.9685 72.8665 78.8098 72.8131 78.6518C72.6557 78.1872 72.5245 77.7139 72.3949 77.2468C72.3377 77.0405 72.2809 76.8354 72.2222 76.6328ZM59.8952 66.0056L60.0003 66.0644C60.0462 66.0902 60.0923 66.1162 60.1382 66.1425C60.2466 65.8124 60.4647 65.545 60.7246 65.7329C61.0952 66.0026 61.1549 65.742 61.2003 65.5262C61.2091 65.4841 61.2145 65.4401 61.2198 65.3963C61.2383 65.2453 61.2564 65.0974 61.413 65.0466C61.657 64.9675 61.7767 64.7786 61.8947 64.5923L61.8948 64.5922C61.9457 64.5119 61.9962 64.4322 62.0563 64.3618C62.2179 64.1723 62.377 63.8512 62.3273 63.6382C62.2257 63.278 62.0465 62.9449 61.8023 62.6625C61.6638 62.492 61.4881 62.3531 61.312 62.2138L61.312 62.2138L61.3119 62.2138L61.3119 62.2137L61.3119 62.2137L61.3118 62.2136L61.3118 62.2136L61.3118 62.2136L61.3117 62.2135L61.3117 62.2135L61.3117 62.2135L61.3116 62.2134L61.3116 62.2134L61.3116 62.2134L61.3115 62.2133C61.1955 62.1216 61.0793 62.0297 60.9734 61.9285C60.839 61.8004 60.709 61.6671 60.5789 61.5337L60.5789 61.5337L60.5788 61.5337L60.5788 61.5336L60.5788 61.5336L60.5787 61.5336L60.5787 61.5335L60.5786 61.5335L60.5786 61.5335L60.5786 61.5334L60.5785 61.5334L60.5785 61.5334L60.5785 61.5333L60.5784 61.5333L60.5784 61.5333C60.2089 61.1545 59.8392 60.7755 59.3695 60.5144C59.1632 60.3998 58.9708 60.2604 58.7784 60.121C58.4171 59.8591 58.0558 59.5973 57.6029 59.5007C57.1527 59.4377 56.7352 59.2287 56.4138 58.9053C56.0658 58.5326 55.7995 58.5899 55.3221 58.9249C55.2647 58.9652 55.1935 59.0057 55.1218 59.0465C54.9533 59.1424 54.782 59.2399 54.7799 59.3398C54.7743 59.5993 54.6234 59.6019 54.473 59.6046C54.3346 59.607 54.1967 59.6095 54.1729 59.812C54.5939 60.7719 55.3002 61.5948 56.0026 62.4133C56.083 62.5069 56.1633 62.6005 56.2432 62.6943C56.7406 63.278 57.2927 63.8144 57.8449 64.3509L57.8451 64.3511L57.8453 64.3513L57.8455 64.3515L57.8457 64.3517L57.846 64.352L57.8462 64.3522L57.8464 64.3524L57.8466 64.3526L57.8468 64.3528L57.8471 64.3531L57.8473 64.3533L57.8475 64.3535L57.8477 64.3537L57.8479 64.3539C58.1159 64.6142 58.3838 64.8745 58.6455 65.1403C59.0097 65.5102 59.4489 65.7558 59.8952 66.0056ZM96.4018 58.5489L96.4018 58.5488L96.3843 58.5181C95.9728 57.8052 95.612 57.0639 95.3047 56.2998C95.2389 56.1337 95.1625 55.9694 95.0856 55.8042C94.8098 55.2114 94.5282 54.6062 94.7116 53.8559C95.0702 54.1072 95.2256 54.4786 95.3867 54.8636C95.5333 55.214 95.6846 55.5757 95.9983 55.8682C95.9301 55.3189 95.7403 54.8402 95.543 54.3428C95.3916 53.9609 95.2358 53.568 95.1273 53.1236L95.7511 53.4681L95.8425 52.953L96.7453 52.7805C96.7707 52.8216 96.7985 52.8682 96.8284 52.9185C96.9024 53.043 96.9896 53.1897 97.0878 53.3282C97.6215 54.0806 97.6289 54.0832 98.5822 54.4241L98.6059 54.4326C98.715 54.4764 98.8191 54.5321 98.9162 54.5987C99.6728 55.0797 100.362 55.6219 100.778 56.4581C100.973 56.8333 101.094 57.2431 101.133 57.6646C101.145 57.7531 101.186 57.835 101.25 57.8975C101.311 57.9508 101.34 58.0325 101.326 58.1127C101.311 58.1929 101.256 58.2596 101.18 58.2882C100.944 58.4224 100.782 58.628 100.62 58.8334C100.49 58.9994 100.359 59.1651 100.19 59.2927C100.05 59.4145 99.9696 59.5913 99.9693 59.7772C99.9292 60.0509 99.396 60.4049 99.1478 60.3477C99.0966 60.3357 99.0514 60.2962 99.006 60.2565C98.9155 60.1773 98.8246 60.0979 98.6854 60.2374C98.5809 60.3559 98.484 60.481 98.3955 60.6121C97.3263 60.1691 96.859 59.3501 96.4018 58.5489ZM67.0421 38.4252L67.6218 38.3287C67.7442 38.1203 67.6933 37.9141 67.6422 37.7066C67.596 37.5189 67.5495 37.3303 67.6306 37.1383C67.6438 37.0345 67.5842 36.9353 67.4868 36.8988C67.3893 36.8623 67.2798 36.8982 67.2224 36.9855C67.195 37.013 67.1106 36.9833 67.0263 36.9537C66.9875 36.94 66.9487 36.9264 66.9155 36.9184C66.9235 36.8913 66.9311 36.8569 66.9388 36.8225C66.9551 36.7487 66.9715 36.675 66.9908 36.6742C67.4961 36.6539 67.3458 36.2306 67.277 36.0504C67.2194 35.8993 67.1642 35.7466 67.109 35.5938C66.8835 34.9702 66.6569 34.3434 66.2632 33.8036L66.2579 33.7963C66.0535 33.5161 65.7931 33.1592 65.3534 33.5235C65.3304 33.5415 65.2583 33.5251 65.2234 33.5023C64.8396 33.2518 64.6035 33.4005 64.4436 33.7814C64.304 34.114 64.1546 33.9622 64.0375 33.8433L64.0173 33.8228L63.4952 34.2393L63.7096 35.0553C63.6074 34.9962 63.5424 34.9057 63.4786 34.8171C63.3696 34.6655 63.2645 34.5194 62.9843 34.5453L62.9246 34.6487C62.866 34.7505 62.8006 34.8641 62.7337 34.9768C62.7014 35.031 62.6715 35.0968 62.6416 35.1627C62.5755 35.3086 62.5092 35.4546 62.4152 35.475C62.0263 35.5596 62.1168 35.7697 62.1986 35.9595C62.2093 35.9842 62.2198 36.0086 62.229 36.0323C62.3356 36.3053 62.4551 36.5731 62.5747 36.841L62.5748 36.8412C62.6588 37.0295 62.7429 37.2178 62.8224 37.408C62.859 37.5262 62.8836 37.6478 62.8957 37.7711L62.7417 37.8209C62.4536 37.1842 62.1657 36.5474 61.8423 35.8322C61.7042 36.4166 61.8768 36.8128 62.0698 37.243C62.377 37.9222 62.7702 38.5586 63.2394 39.1365C63.8315 39.8703 64.5415 40.4792 65.6073 40.2807C65.6948 40.2717 65.783 40.2709 65.8706 40.2785L67.276 38.8642L67.0421 38.4252ZM64.1808 17.9247L64.5736 18.3202L64.6054 18.0442L64.6586 17.5832C64.7747 17.5588 64.8919 17.5324 65.01 17.5058C65.2896 17.4429 65.5745 17.3788 65.8626 17.3361C66.113 17.2994 66.3674 17.3002 66.6176 17.3386C66.6969 17.3509 66.7166 17.4205 66.739 17.4992C66.7699 17.6077 66.8057 17.7338 67.009 17.7517C67.1968 17.768 67.3486 18.0371 67.487 18.2823C67.5156 18.3331 67.5437 18.3829 67.5715 18.4293C67.6136 18.4998 67.622 18.5967 67.6304 18.6948C67.6482 18.9017 67.6664 19.1137 68.004 19.0944L68.0557 20.0258C68.0575 20.0558 68.0641 20.0856 68.0686 20.1156L69.4809 21.5366C69.6356 21.5258 69.7908 21.5274 69.9451 21.5413C70.1808 21.5791 70.435 21.8143 70.314 21.9603C70.17 22.1339 70.2417 22.2791 70.3099 22.417C70.3689 22.5366 70.4254 22.6508 70.336 22.7733C69.601 22.9952 69.3694 23.0195 68.7717 22.9144L69.2156 23.881C69.1872 23.9085 69.1561 23.9476 69.1232 23.989C69.0454 24.087 68.9575 24.1977 68.8702 24.197C68.7037 24.1958 68.5353 24.2039 68.3666 24.212C67.7424 24.242 67.1146 24.2721 66.5651 23.8318C66.3608 23.701 66.1712 23.5481 65.9998 23.3759C65.713 23.0145 65.4518 22.6322 65.1908 22.2504L65.1908 22.2503L65.1907 22.2502L65.1906 22.2501L65.1905 22.2499C65.1462 22.1852 65.102 22.1204 65.0576 22.0558C64.9704 21.9287 64.8907 21.7966 64.8109 21.6644L64.8109 21.6642L64.8108 21.6641L64.8107 21.664L64.8107 21.6639L64.8106 21.6638L64.8105 21.6637L64.8105 21.6636L64.8104 21.6635L64.8103 21.6634L64.8102 21.6633L64.8102 21.6631C64.752 21.5667 64.6939 21.4704 64.6328 21.3759C64.548 21.2444 64.5047 21.0911 64.4615 20.9378C64.3904 20.6857 64.3193 20.4338 64.0634 20.279C64.111 19.9567 63.9839 19.6943 63.854 19.426L63.854 19.4259C63.8141 19.3437 63.774 19.2609 63.7386 19.1756C63.6262 18.9517 63.6099 18.6913 63.6934 18.4549C63.777 18.2186 63.9531 18.027 64.1808 17.9247ZM35.7304 3.75107H34.8531C34.2797 3.68793 33.6996 3.7582 33.1575 3.95645C32.9254 4.04001 32.7222 4.18393 32.5174 4.32896C32.3093 4.47637 32.0995 4.62493 31.8562 4.71243C31.8012 4.73205 31.7548 4.86936 31.7605 4.94782C31.7758 5.19027 31.8084 5.43131 31.8579 5.66909C31.9537 6.11238 32.2115 6.46243 32.47 6.81358L32.47 6.81362L32.4701 6.81363L32.4701 6.81365L32.4701 6.81366L32.4701 6.81368L32.4701 6.81369L32.4701 6.81371L32.4701 6.81373L32.4701 6.81374L32.4701 6.81376C32.5478 6.91922 32.6255 7.02478 32.6989 7.133C33.3263 8.0567 34.0762 8.74953 35.2757 8.72638C35.3652 8.71899 35.4543 8.74481 35.5262 8.79896C35.7562 9.04692 35.9417 8.9342 36.1265 8.82196C36.2275 8.76062 36.3282 8.69943 36.4359 8.69735C36.691 8.29189 37.1001 8.08355 37.499 7.88042C37.6405 7.80838 37.7806 7.737 37.9122 7.65772C38.3598 7.38801 38.4871 7.10397 38.3919 6.70832C38.3731 6.62968 38.3551 6.55031 38.337 6.47074C38.1957 5.84775 38.0515 5.21198 37.4605 4.80757C37.3814 4.75313 37.317 4.67642 37.2523 4.59954C37.117 4.43849 36.9809 4.27668 36.709 4.31718C36.626 4.31082 36.5522 4.26169 36.514 4.18732C36.4435 3.7405 36.1356 3.74528 35.826 3.75008C35.7941 3.75058 35.7621 3.75107 35.7304 3.75107ZM33.3296 50.1322L33.4023 50.2473L33.7694 50.8284C33.7864 50.7012 33.7994 50.606 33.8097 50.5306L33.8098 50.5297L33.81 50.5282L33.81 50.5281C33.8266 50.4074 33.8361 50.3376 33.8439 50.2674L33.844 50.2661C33.8631 50.0928 33.8734 49.999 33.9249 49.9437C33.9856 49.8785 34.1033 49.8665 34.3596 49.8403L34.3609 49.8402C34.376 49.8386 34.3932 49.838 34.4109 49.8373H34.4109H34.4109H34.411H34.411C34.4627 49.8354 34.5176 49.8333 34.5334 49.8082C34.7133 49.4929 35.0908 49.3513 35.4319 49.471C35.8311 49.5695 36.2069 49.7465 36.5378 49.9918C37.7153 50.9902 38.4078 52.3286 38.9456 53.7486C39.0085 53.9144 38.9914 54.1108 38.9743 54.3059C38.9665 54.3957 38.9587 54.4851 38.9587 54.5712L38.5959 54.5308C38.6197 54.8737 38.5427 55.1275 38.1442 55.209C37.9986 55.2616 37.8882 55.3833 37.8494 55.534C37.8256 55.7795 37.6668 55.8079 37.5111 55.8357C37.405 55.8547 37.3003 55.8734 37.2406 55.9604C37.1151 55.7595 36.9413 55.7957 36.7664 55.8321C36.6139 55.8638 36.4605 55.8957 36.3374 55.7709C36.2487 55.6808 36.1486 55.5978 36.0488 55.5151L36.0487 55.515C35.8636 55.3616 35.6795 55.2091 35.5709 55.0128C35.1851 54.3542 34.871 53.6556 34.6342 52.9292C34.5613 52.6026 34.3601 52.3195 34.0765 52.1446C33.6209 51.8951 33.2555 51.5071 33.0325 51.0359L33.0251 51.0198C32.8445 50.625 32.8432 50.6221 33.3296 50.1322ZM51.1479 38.6655C51.1303 38.7799 51.1277 38.8961 51.1401 39.0111C51.3192 39.2652 51.5172 39.4885 51.7113 39.7074L51.7114 39.7076L51.7115 39.7077L51.7116 39.7078L51.7116 39.7078L51.7116 39.7078L51.7116 39.7079C51.804 39.812 51.8954 39.9151 51.9834 40.02C52.5271 40.6722 53.087 41.3411 53.9385 41.6873C54.5072 41.9182 55.0341 41.8495 55.3318 41.4505C55.4171 41.3363 55.5395 41.2533 55.6614 41.1707C55.8794 41.0229 56.0956 40.8764 56.0943 40.5539C56.614 40.4798 56.5255 40.0472 56.4452 39.7736C56.2208 39.0082 55.9734 38.2342 55.4275 37.6216C55.3271 37.5088 55.2043 37.4165 55.0814 37.3242C54.9678 37.2387 54.854 37.1532 54.7577 37.0513C54.5984 36.883 54.4589 36.6958 54.3083 36.4937L54.3082 36.4936C54.2398 36.4019 54.1692 36.3071 54.0933 36.2096L52.6967 36.4809L52.6583 36.7167L52.6578 36.7197C52.6383 36.8387 52.6185 36.9595 52.595 37.1057L51.539 36.2389C51.466 36.3084 51.3966 36.3886 51.3312 36.4642C51.1981 36.618 51.0815 36.7528 50.9845 36.7397C50.8271 36.7186 50.6965 36.7629 50.5659 36.8072C50.4378 36.8507 50.3096 36.8942 50.156 36.876C50.2391 36.9869 50.3743 37.0064 50.5045 37.0252C50.7064 37.0544 50.8965 37.082 50.8635 37.4448L50.4198 37.253C50.2703 37.7048 50.566 37.8812 50.8732 38.0645C50.9035 38.0825 50.9338 38.1006 50.9639 38.119C50.9151 37.9521 50.8674 37.785 50.8079 37.5778C50.9085 37.5897 51.0064 37.6186 51.0974 37.6634C51.1946 37.7378 51.2712 37.8362 51.3198 37.949C51.3312 37.9799 51.3063 38.0216 51.2799 38.0658C51.2558 38.1062 51.2304 38.1488 51.2304 38.1871C51.2308 38.2302 51.2529 38.2744 51.2746 38.3178C51.2986 38.3656 51.322 38.4125 51.3154 38.4558C51.3095 38.4948 51.2712 38.5282 51.2324 38.5619C51.1951 38.5943 51.1575 38.6271 51.1479 38.6655ZM66.8006 51.4112L67.2714 51.5726C67.2903 51.1379 67.0575 50.8722 66.8214 50.6029C66.6208 50.374 66.4179 50.1424 66.3651 49.8021C66.5055 49.8485 66.6404 49.9105 66.7671 49.9871C66.9382 50.1395 67.1013 50.3008 67.2558 50.4702C67.2369 50.1804 67.1162 49.9068 66.9152 49.6983C67.1954 49.3574 67.3185 49.2076 67.4765 49.1415C67.6004 49.0897 67.7457 49.0893 68.0048 49.0885C68.1032 49.2 68.1972 49.3223 68.2921 49.4457C68.5099 49.729 68.7321 50.0181 69.0218 50.196C69.3011 50.3676 69.4605 50.6133 69.6188 50.8572C69.7206 51.014 69.822 51.1702 69.9545 51.3054C70.2635 51.6664 70.517 52.0719 70.7067 52.5085C70.8405 52.7419 70.9028 53.0098 70.8861 53.2788C70.8374 53.5861 70.7071 54.0381 70.4911 54.1256C70.243 54.226 70.2067 54.3793 70.1695 54.5366C70.1533 54.6049 70.1369 54.674 70.103 54.7397C69.9498 55.0367 69.74 55.3257 69.3552 55.3894C69.2737 55.4029 69.1865 55.4343 69.1006 55.4652C68.9499 55.5194 68.8033 55.5722 68.6984 55.5246C68.2848 55.3546 67.9075 55.1062 67.5872 54.7927C67.0337 54.1835 66.5197 53.5391 66.0485 52.8635C65.9689 52.7523 65.9663 52.5853 65.9633 52.3889C65.9617 52.289 65.9601 52.1815 65.9481 52.0699L66.3056 52.3598C66.2587 52.0356 66.4303 51.8531 66.5923 51.6807L66.5923 51.6807C66.6739 51.5938 66.7531 51.5096 66.8006 51.4112ZM61.2975 86.2003L61.8043 86.48C61.7518 86.1584 61.6776 85.8407 61.5823 85.5292C61.5324 85.4027 61.3554 85.2248 61.2579 85.2375C61.044 85.2655 60.9146 85.1463 60.7939 85.0351C60.7159 84.9633 60.6416 84.8948 60.5506 84.8717C60.3203 84.8143 60.1899 84.672 60.0604 84.5305C60.0097 84.4752 59.9592 84.4201 59.9028 84.3701C59.7888 84.269 59.6851 84.15 59.582 84.0316C59.4074 83.8311 59.2343 83.6325 59.0149 83.5255C58.7962 83.419 58.6385 83.2629 58.4828 83.1089C58.3822 83.0093 58.2824 82.9105 58.1674 82.8264C57.9644 82.6779 57.7587 82.5332 57.5535 82.3888C57.4628 82.3249 57.3721 82.2611 57.2818 82.1971H56.2527C56.3546 82.5439 56.1742 82.5442 55.9923 82.5445C55.85 82.5448 55.7068 82.545 55.6969 82.7109C55.6859 82.8418 55.7828 82.9279 55.8806 83.0149C56.0168 83.1359 56.1548 83.2587 56.0061 83.5063C55.9554 83.4626 55.907 83.4135 55.8589 83.3647C55.6685 83.1716 55.4841 82.9845 55.1892 83.1661C55.2155 83.7185 55.5694 84.0565 55.9236 84.3948L55.9745 84.4435C56.0469 84.5052 56.1137 84.5732 56.1741 84.6467C56.7824 85.498 57.4529 86.3025 58.1799 87.0536C58.2653 87.1408 58.3296 87.2484 58.3941 87.3561C58.4539 87.456 58.5137 87.5561 58.5905 87.6401L58.6222 87.6749C58.9043 87.9844 59.1962 88.3046 59.6847 88.236C59.7101 88.0322 59.6077 87.8765 59.5074 87.7238C59.3863 87.5396 59.268 87.3598 59.3804 87.105L60.3424 88.0732L60.8464 87.779L60.4007 86.7374C61.031 87.0171 61.083 86.9767 61.2975 86.2003ZM55.275 22.5285C55.3869 22.5361 55.487 22.521 55.5822 22.5067C55.7651 22.4792 55.93 22.4545 56.1265 22.5974L55.7442 22.7298C55.7746 22.8335 55.8059 22.9372 55.8373 23.0409L55.8375 23.0416C55.9218 23.3206 56.0063 23.6 56.0729 23.8824C56.0965 23.982 56.0446 24.1786 55.9754 24.2078C55.752 24.3027 55.62 24.4835 55.4893 24.6625C55.3968 24.7891 55.305 24.9148 55.182 25.0085C55.0308 25.1011 54.8588 25.1536 54.682 25.1609C54.6388 25.1658 54.5918 25.1352 54.5449 25.1047C54.4982 25.0744 54.4516 25.0442 54.409 25.0487C54.2958 25.0847 54.1901 25.1412 54.0971 25.2155L54.0854 25.1737C53.9343 24.6344 53.9265 24.6065 53.3004 24.3916C53.0617 24.3099 52.9405 24.1322 52.8177 23.952C52.7427 23.8421 52.6671 23.7313 52.5639 23.6407L52.4355 23.9156L52.3777 24.0395C52.3468 24.0068 52.3089 23.975 52.2719 23.9439L52.2719 23.9438L52.2718 23.9438C52.1946 23.8789 52.1209 23.817 52.1212 23.7555C52.1262 22.6164 52.1252 22.5905 51.6082 21.9081C51.4324 22.2178 51.5645 22.449 51.7044 22.6937C51.7971 22.8559 51.8932 23.024 51.9053 23.2249C51.8602 23.2179 51.8079 23.2148 51.757 23.2119C51.6517 23.2058 51.5526 23.2 51.5363 23.16C51.5004 23.0721 51.4617 22.9849 51.423 22.8979C51.2004 22.3968 50.9796 21.8999 51.3024 21.2927C51.3172 21.2648 51.3306 21.2386 51.3431 21.214C51.4295 21.0438 51.4747 20.9548 51.7057 20.951C51.8808 20.9303 52.0475 20.8643 52.1896 20.7594C52.4559 20.59 52.7153 20.4098 52.9868 20.2214C53.0991 20.1434 53.2134 20.064 53.3312 19.9834L53.4871 20.2188C53.6213 20.3127 53.7579 20.2601 53.8749 20.2151C54.0349 20.1534 54.1583 20.1059 54.1889 20.4669C54.1948 20.5353 54.257 20.5145 54.3312 20.4897C54.4494 20.4501 54.5983 20.4003 54.5983 20.6856C54.5983 20.8102 54.7559 20.9348 54.9074 21.0546L54.9075 21.0546L54.9075 21.0547L54.9077 21.0548C54.9748 21.1079 55.0406 21.16 55.0911 21.2108C55.0327 21.3645 54.9763 21.5111 54.9206 21.6574C54.9672 21.6902 55.014 21.7229 55.0607 21.7555C55.1434 21.5974 55.2262 21.4393 55.3302 21.2404L55.6229 21.7403L55.7278 21.9195C55.5885 22.1074 55.4317 22.3181 55.275 22.5285ZM22.7482 50.3474L23.333 51.0895C23.4446 51.0142 23.5473 50.9264 23.6391 50.8278C23.6897 50.7222 23.7342 50.6137 23.7723 50.503L23.7801 50.4862C23.8261 50.3878 23.8992 50.2313 23.9269 50.2379C24.1453 50.2912 24.2952 50.1588 24.4446 50.0267C24.6049 49.8852 24.7647 49.744 25.008 49.8323C25.0414 49.759 25.0709 49.684 25.0963 49.6075C24.9076 49.5183 24.9431 49.3811 24.9782 49.2454C24.9966 49.1741 25.015 49.1031 25.0006 49.0398C24.9388 48.7671 24.7939 48.5494 24.6507 48.3342C24.5494 48.1821 24.449 48.0311 24.3793 47.8629C24.0825 47.1332 23.6225 46.4821 23.0352 45.9602L21.0925 46.2348V47.1658C20.9441 47.1126 20.8409 46.9949 20.7408 46.8808C20.5972 46.7171 20.4599 46.5606 20.2048 46.6128C20.0907 47.1385 20.1079 47.6463 20.3964 48.0508C20.6351 48.3855 20.845 48.7376 21.0546 49.0893L21.0547 49.0894C21.2568 49.4285 21.4588 49.7673 21.6861 50.0897C21.8886 50.4096 22.1718 50.6698 22.5069 50.8437L22.7482 50.3474ZM44.3807 62.6539L44.757 63.5289L44.9324 63.0634C44.938 63.0669 44.944 63.0702 44.9503 63.0734C44.9594 63.0781 44.969 63.0825 44.9786 63.0869L44.9786 63.087L44.9787 63.087C45.0133 63.103 45.0474 63.1188 45.0537 63.1419C45.1359 63.4641 45.2998 63.7593 45.5293 63.9987C45.6655 64.1575 45.7794 64.3344 45.8676 64.5244C46.014 64.8519 46.313 65.0844 46.6649 65.1443L46.8175 64.832L47.3388 65.2243C47.3388 65.2713 47.3408 65.3078 47.3422 65.3353C47.3445 65.3774 47.3456 65.3985 47.3369 65.4042C47.2012 65.4931 47.0629 65.5779 46.9317 65.6584L46.9316 65.6585L46.9314 65.6585L46.9313 65.6586L46.8283 65.722C46.8747 65.9828 46.9168 66.2198 46.9795 66.5741L46.3148 66.2484C46.1904 66.5003 46.0656 66.7531 45.9315 67.0252L45.4716 67.078V67.5029C44.9944 67.8628 44.6035 67.8144 44.1897 67.4346C44.0186 67.2777 43.8393 67.1299 43.6575 66.9801C43.3601 66.7351 43.056 66.4845 42.7705 66.1792L43.3553 65.7902C43.2446 65.3987 43.0526 65.0353 42.7921 64.7239C42.6032 64.4889 42.474 64.2054 42.3471 63.9267L42.347 63.9266L42.347 63.9265L42.3469 63.9264C42.2919 63.8055 42.2372 63.6855 42.1782 63.5707C42.3983 63.2976 42.5819 63.4003 42.7754 63.5087C42.8265 63.5373 42.8784 63.5664 42.9319 63.5889C42.9354 63.558 42.9423 63.5263 42.9491 63.4953L42.9491 63.4953L42.9492 63.4952L42.9492 63.4951C42.9636 63.4297 42.9773 63.3674 42.9566 63.3204C42.7662 62.8889 42.8484 62.676 43.2524 62.6572C43.5153 62.6452 43.7789 62.6483 44.0387 62.6512C44.1536 62.6526 44.2677 62.6539 44.3807 62.6539ZM17.7866 67.1072L17.3349 66.4348C17.3144 66.4486 17.294 66.462 17.2738 66.4752L17.2734 66.4755C17.0994 66.5895 16.9463 66.6898 16.9195 66.9695C16.8579 67.606 17.1084 68.143 17.3581 68.6782L17.3582 68.6783C17.4224 68.816 17.4866 68.9536 17.5454 69.0927C17.6634 69.3718 18.1392 69.463 18.5166 69.3799C18.6682 69.3503 18.8229 69.3403 18.9769 69.3501C19.3624 69.3893 19.7101 69.1156 19.7649 68.7296C19.8241 68.4579 19.89 68.2761 20.1725 68.1955C20.4261 68.142 20.5914 67.8952 20.5456 67.6386C20.5442 67.6182 20.5426 67.5976 20.5408 67.577L20.5393 67.5594C20.5208 67.3434 20.5018 67.1211 20.7211 66.9452C20.7809 66.8323 20.7798 66.6966 20.7182 66.5846C20.6827 66.534 20.6067 66.5033 20.5356 66.4745C20.4605 66.4441 20.3909 66.4159 20.3797 66.3689C20.3659 66.3101 20.4073 66.2415 20.4503 66.1703C20.4897 66.105 20.5305 66.0375 20.531 65.9734C20.5353 65.5252 20.2039 65.2902 19.8549 65.1554C19.7615 65.1192 19.658 65.1167 19.5519 65.1141C19.3918 65.1103 19.226 65.1063 19.0806 64.986C19.0673 64.9749 18.989 65.0478 18.8968 65.1336C18.8233 65.202 18.7411 65.2785 18.6757 65.3275C18.5923 65.3717 18.5035 65.4046 18.4116 65.4256V66.2068C18.2956 65.9644 18.2373 65.8424 18.1895 65.7421H17.6369C17.6606 65.8476 17.6841 65.9496 17.7069 66.049L17.7069 66.0491C17.7686 66.3171 17.8261 66.5668 17.8733 66.8186C17.8821 66.8649 17.8606 66.9169 17.833 66.984C17.8181 67.0202 17.8013 67.0608 17.7866 67.1072ZM47.8095 49.2323L48.5957 49.4639C48.7242 49.156 48.7622 48.8602 48.491 48.5848C48.6883 48.4042 48.8466 48.492 49.0107 48.5831C49.1235 48.6457 49.2391 48.7099 49.3722 48.6895L49.4665 48.1779C49.5952 48.0398 49.7177 48.0995 49.8469 48.1625C49.9746 48.2247 50.1088 48.2901 50.2619 48.1709C50.4525 48.0231 50.5572 48.1567 50.669 48.2995C50.7428 48.3936 50.8196 48.4917 50.9263 48.5159C51.0892 48.5813 51.2286 48.6948 51.3261 48.8415C51.4754 49.0258 51.572 49.2422 51.6691 49.4596C51.804 49.7616 51.9398 50.0657 52.2192 50.2892C52.296 50.3506 52.2942 50.5115 52.2921 50.6951C52.2911 50.7869 52.2901 50.8843 52.2987 50.9779C52.0253 50.8428 51.8837 51.0008 51.7413 51.1596C51.6061 51.3103 51.4702 51.4618 51.2202 51.3637C51.1727 51.4411 51.153 51.5375 51.1329 51.6359C51.0863 51.8642 51.0374 52.1035 50.634 52.1424L50.3416 51.6405L50.1126 52.1228C49.8035 52.1963 49.6546 51.9438 49.5495 51.7655L49.5349 51.7409C49.194 51.1605 48.7117 50.6771 48.1335 50.3364C47.7693 50.1177 47.5699 49.7613 47.8095 49.2323ZM41.9798 24.7792L43.1859 23.8281C43.164 23.7323 43.149 23.6258 43.1336 23.5153C43.0975 23.2573 43.0583 22.9778 42.9193 22.7645C42.5748 22.213 42.1473 21.7186 41.6521 21.299C41.0706 20.8308 40.3838 20.4447 39.6543 21.1313C39.6075 21.1753 39.5324 21.1888 39.4477 21.2041C39.4036 21.212 39.3569 21.2205 39.3102 21.2339C39.327 21.3194 39.3354 21.4056 39.3434 21.4877C39.3598 21.6553 39.3745 21.8059 39.4549 21.8996C39.5089 21.9628 39.5641 22.0249 39.6192 22.0868C39.9473 22.4558 40.2706 22.8195 40.3117 23.3587C40.598 23.592 40.7449 23.912 40.8907 24.2296C40.9781 24.4201 41.0652 24.6097 41.1817 24.7792H41.9798Z" fill="#171B1B"/>
</svg>
