<svg width="155" height="135" viewBox="0 0 155 135" fill="none" xmlns="http://www.w3.org/2000/svg">
<path fill-rule="evenodd" clip-rule="evenodd" d="M2.68362 1.76727L2.68359 1.76731L2.68359 1.76732L2.68348 1.76747C2.6124 1.86665 2.53828 1.97006 2.45897 2.07882C1.48974 1.62716 1.23105 1.64852 0.755258 2.38967L0.724617 2.43727C0.4948 2.79395 0.250644 3.17287 0.321928 3.67727C0.356682 3.9219 0.346681 4.17253 0.336666 4.4235C0.327119 4.66275 0.317559 4.90231 0.34675 5.13729C0.467867 6.10622 0.708905 7.03815 1.46611 7.74258C1.70949 7.96874 1.94168 8.20701 2.18219 8.45382L2.1822 8.45383C2.29337 8.56791 2.40632 8.68381 2.52297 8.80119H2.92251C2.9707 8.80119 3.01893 8.80072 3.06717 8.80025H3.0672H3.06723H3.06727H3.0673H3.06733H3.06737H3.0674H3.06743H3.06746H3.0675H3.06753H3.06756H3.0676H3.06763H3.06766H3.06769H3.06773H3.06776H3.06779H3.06783H3.06786H3.06789H3.06793H3.06797H3.06801H3.06806H3.0681H3.06814H3.06818H3.06822H3.06826H3.0683H3.06834H3.06838H3.06842H3.06846H3.0685H3.06854H3.06859H3.06863H3.06867H3.06871H3.06875H3.06879C3.16548 8.79932 3.26222 8.79838 3.35883 8.80119C4.11382 8.82299 4.11457 8.82523 4.41529 9.72633L4.42227 9.74725C4.45035 9.83167 4.50211 9.91537 4.5529 9.9975C4.62975 10.1218 4.70438 10.2425 4.69142 10.3566C4.61396 11.0333 5.00423 11.3755 5.48271 11.6972L5.72527 10.902L5.99499 10.0178L6.20912 10.0605V11.6854C7.21515 11.9158 7.31401 11.2509 7.40625 10.6306C7.41198 10.5921 7.41768 10.5537 7.42358 10.5158C8.02887 10.7893 8.49689 10.8344 8.78906 10.2374C9.0241 9.75729 9.22447 9.96369 9.42879 10.1741L9.42881 10.1742L9.42884 10.1742C9.45691 10.2031 9.48505 10.2321 9.51337 10.2594C10.1036 9.36088 10.3693 8.28561 10.2658 7.21358C10.2184 6.37889 10.2282 5.54119 10.2381 4.70333V4.70326V4.70318V4.70311V4.70303V4.70296V4.70288V4.7028V4.70273V4.70265V4.70258V4.7025V4.70243V4.70235V4.70227V4.7022V4.70212V4.70205V4.70197V4.70189V4.70182V4.70174V4.70167C10.2431 4.27084 10.2482 3.83997 10.2455 3.40945C10.2323 3.15845 10.2066 2.90827 10.1683 2.65988L10.0188 2.6665L9.87792 4.07658C9.71468 3.71684 9.64088 3.32254 9.6629 2.9277C9.65501 2.55027 9.61821 2.17402 9.55285 1.80229C9.45806 1.4657 9.34025 1.13612 9.20026 0.815898L8.9667 1.49325C8.46978 0.58688 8.46848 0.587197 7.54868 0.811118L7.54141 0.812889C7.4155 0.843281 7.21364 0.888418 7.15921 0.828235C6.86255 0.494224 6.65949 0.56885 6.31887 0.815597C6.2392 0.873213 6.08676 0.807416 5.91882 0.734932C5.76398 0.668104 5.59597 0.595591 5.45969 0.608871C5.10391 0.662599 4.76429 0.794626 4.46503 0.995542C4.26559 1.1192 4.10362 1.03082 3.94586 0.944742C3.80036 0.865346 3.65844 0.787904 3.494 0.880594C3.36907 0.940903 3.25625 1.02383 3.16115 1.12524C3.00019 1.32558 2.85024 1.53479 2.68362 1.76727ZM30.2093 15.1906C30.0405 15.244 29.8196 15.1327 29.3859 14.9142C29.3016 15.038 29.1897 15.1379 29.0766 15.2388C28.8358 15.4539 28.5901 15.6732 28.5978 16.1365C28.5984 16.7454 28.8266 17.3317 29.2369 17.7792C29.2826 17.8313 29.3277 17.8878 29.3732 17.9449C29.5191 18.1277 29.6696 18.3163 29.8581 18.3837C30.4105 18.5816 30.7719 18.9879 31.1326 19.3932C31.3078 19.5903 31.4829 19.7871 31.6796 19.9596C32.3764 20.5716 32.6135 21.4602 32.6755 22.3121C32.826 24.3802 33.9126 25.9997 34.9983 27.618L35.0861 27.749C35.4381 28.2725 36.034 28.3662 36.6391 28.4614C36.7424 28.4776 36.846 28.4939 36.9486 28.5124L36.999 28.5215C38.1128 28.7219 38.3746 28.769 38.7992 27.9575L38.8456 27.8683C39.1103 27.3572 39.2827 27.0243 39.8886 27.5594C39.9336 27.6003 40.1314 27.4815 40.2845 27.3894L40.3073 27.3757C40.3259 27.3645 40.3437 27.3539 40.3603 27.3443C40.4225 27.3077 40.4966 27.2456 40.5646 27.1886L40.5646 27.1886C40.6561 27.112 40.7363 27.0447 40.761 27.062C41.357 27.4913 41.4028 26.9264 41.4258 26.6436L41.427 26.6293C41.4348 26.5337 41.4435 26.4372 41.4522 26.3402V26.3402V26.3401V26.3401L41.4522 26.3399C41.5096 25.6999 41.5691 25.0375 41.4075 24.4471C41.3506 24.2396 41.3136 24.0216 41.2764 23.8024L41.2764 23.8024L41.2764 23.8023L41.2763 23.8023L41.2763 23.8022L41.2763 23.8021L41.2763 23.8021L41.2763 23.802L41.2763 23.8019L41.2763 23.8019L41.2763 23.8018L41.2763 23.8018L41.2762 23.8017L41.2762 23.8016L41.2762 23.8016L41.2762 23.8015L41.2762 23.8014L41.2762 23.8014L41.2762 23.8013L41.2762 23.8013L41.2761 23.8012L41.2761 23.8011L41.2761 23.8011L41.2761 23.801L41.2761 23.8009C41.1827 23.2511 41.0881 22.6942 40.677 22.2766C40.384 22.0266 40.2311 21.6482 40.2676 21.2634C40.2501 21.0826 40.1813 20.9106 40.0696 20.7678C40.0071 20.6655 39.945 20.5629 39.8829 20.4602C39.6137 20.015 39.3442 19.5693 39.039 19.1504C38.8339 18.8692 38.6094 18.6023 38.385 18.3355C38.1555 18.0627 37.9261 17.79 37.7175 17.502C37.4227 17.0954 37.0925 16.715 36.7666 16.3396L36.7665 16.3395L36.7659 16.3388C36.7014 16.2644 36.637 16.1902 36.573 16.116C36.4996 16.0309 36.427 15.9436 36.3541 15.856L36.3541 15.8559C35.8612 15.2636 35.3527 14.6525 34.4746 14.5311C33.8514 14.4142 33.2349 14.2636 32.6279 14.0798C32.295 14.4197 31.8939 14.3971 31.4945 14.3745C31.238 14.3601 30.9822 14.3457 30.7457 14.4273C30.5033 14.9021 30.3844 15.1351 30.2093 15.1906ZM137.955 110.815C138.155 109.539 138.622 108.402 139.616 107.62C139.588 107.396 139.56 107.191 139.533 107L139.533 106.999L139.533 106.997L139.533 106.997C139.48 106.615 139.435 106.285 139.419 105.954C139.389 105.302 139.211 104.639 138.587 104.476C137.842 104.283 137.398 103.993 137.363 103.194C137.348 103.103 137.291 103.024 137.21 102.979C136.486 102.662 135.985 102.096 135.484 101.529L135.483 101.529C135.222 101.234 134.961 100.938 134.668 100.678L134.553 100.576C133.899 99.9916 133.864 99.9603 132.694 100.043C132.459 100.06 132.225 100.095 131.957 100.135L131.798 100.158C131.712 100.171 131.623 100.183 131.528 100.196C131.014 99.6009 130.538 98.9736 130.102 98.3179C129.99 98.1308 129.843 97.963 129.695 97.7949C129.384 97.441 129.073 97.0858 129.089 96.5473C128.649 96.4886 128.399 96.1772 128.172 95.8947C128.025 95.7108 127.887 95.5391 127.713 95.4574L126.233 95.7532V96.5656C126.062 96.417 125.962 96.33 125.917 96.2906L125.367 96.6517C126.377 98.8387 127.591 100.924 128.993 102.881C129.223 103.17 129.259 103.57 129.084 103.896C128.873 103.585 128.663 103.285 128.456 102.99C128.002 102.341 127.566 101.719 127.186 101.065C126.698 100.226 126.257 99.3603 125.815 98.4929L125.815 98.4925L125.815 98.4919L125.814 98.4912L125.814 98.4906L125.814 98.4899C125.623 98.1161 125.432 97.742 125.238 97.3697C124.454 97.9278 124.455 97.9303 124.758 98.6284L124.771 98.6597C125.653 100.693 126.816 102.572 127.974 104.445L127.975 104.445C128.151 104.73 128.327 105.016 128.503 105.301C129.803 107.419 131.192 109.494 133.088 111.172C133.458 111.5 133.869 111.726 134.279 111.951L134.279 111.952C134.466 112.054 134.652 112.157 134.834 112.268C135.08 112.377 135.364 112.354 135.589 112.206C135.857 111.93 136.156 111.866 136.476 111.796L136.538 111.783C136.6 111.77 136.662 111.755 136.726 111.739C136.765 111.729 136.806 111.719 136.848 111.708C137.308 111.595 137.854 111.46 137.955 110.815ZM123.87 70.4646C123.639 70.2322 123.42 70.0013 123.205 69.7755C122.75 69.2957 122.316 68.8387 121.836 68.4379C120.197 67.0692 119.254 65.2408 118.312 63.4129C118.09 62.9827 117.869 62.5526 117.638 62.1284C117.179 61.2853 117.217 60.3555 117.255 59.4363L117.255 59.4351C117.262 59.2638 117.269 59.093 117.273 58.9231C117.276 58.7957 117.396 58.6709 117.519 58.542C117.578 58.4812 117.637 58.4195 117.685 58.3562L117.7 58.3857C117.901 58.7851 118.091 59.1637 118.366 59.7103V57.7077C118.499 57.6415 118.632 57.5847 118.76 57.5298C119.04 57.4099 119.298 57.2991 119.494 57.1198C119.796 56.8684 120.208 56.8003 120.574 56.9416C120.835 57.0078 121.071 57.1805 121.317 57.3611C121.427 57.4414 121.539 57.5234 121.656 57.5982C121.432 58.6493 121.844 59.5295 122.353 60.4463C122.517 60.4017 122.691 60.4151 122.868 60.4288C123.185 60.4532 123.511 60.4783 123.804 60.1755C123.972 60.0756 124.178 60.0663 124.355 60.1508C124.62 60.3112 124.899 60.4537 125.178 60.5962C126.078 61.0558 126.979 61.5163 127.411 62.5771L127.439 62.6485L127.44 62.6492C127.534 62.8861 127.644 63.1617 127.829 63.2626C127.958 63.3332 127.984 63.4664 128.01 63.5987C128.046 63.7818 128.081 63.9631 128.389 63.9748C128.679 63.986 128.652 64.1878 128.625 64.393C128.612 64.4959 128.598 64.5997 128.624 64.6808C128.739 64.9752 128.833 65.2776 128.906 65.5856C128.933 65.8764 128.936 66.169 128.916 66.4604C127.842 67.4361 127.022 68.6606 126.525 70.0277L123.87 70.4646ZM87.0607 13.9697L87.0586 13.9711C86.5812 14.3001 86.1112 14.6239 85.6261 14.922C85.587 14.9462 85.4806 14.8604 85.3463 14.752L85.3461 14.7519L85.3459 14.7517C85.2747 14.6943 85.1956 14.6306 85.1147 14.5736C85.001 14.8128 84.8699 15.0432 84.7223 15.263C84.5296 15.4823 84.3257 15.6915 84.1116 15.8898L84.0573 15.9464C83.6658 16.355 83.2774 16.7603 82.6986 16.1428C82.6702 16.1126 82.6057 16.1196 82.538 16.127C82.4958 16.1316 82.4524 16.1363 82.4157 16.1323C82.2432 16.1135 82.0727 16.1104 81.9032 16.1073C81.4028 16.0982 80.9109 16.0892 80.3989 15.677C80.1801 15.5008 79.9374 15.3461 79.6918 15.1896C79.3179 14.9513 78.9374 14.7087 78.6246 14.3798C78.106 13.8991 77.6585 13.3463 77.2956 12.738C76.7743 11.7402 76.2606 10.7538 76.446 9.58265C76.5502 9.24771 76.694 8.92655 76.8742 8.62606L77.7786 9.37202C77.8438 9.15455 77.8874 8.92737 77.9314 8.69776L77.9315 8.69754C78.0479 8.09101 78.1675 7.46756 78.697 6.96141L79.604 7.64298V6.57414C79.9029 6.52264 80.1934 6.45493 80.4808 6.38794C81.1137 6.24043 81.7317 6.09638 82.3921 6.13631C82.9007 6.1458 83.389 6.33912 83.7677 6.68096C83.9208 6.82815 84.0854 6.96106 84.2503 7.09427C84.569 7.35159 84.8891 7.61007 85.1299 7.97488C85.2964 8.2279 85.4945 8.45996 85.6946 8.69426C85.8901 8.92309 86.0873 9.15404 86.2586 9.40873C86.614 9.93837 86.8228 10.5243 87.0313 11.1093C87.1561 11.4596 87.2808 11.8096 87.4368 12.147C87.5741 12.4429 87.5381 12.82 87.5024 13.1933C87.4863 13.3617 87.4703 13.5293 87.4703 13.6883C87.335 13.7807 87.2008 13.8732 87.0671 13.9653L87.0607 13.9697ZM25.7332 44.8775V41.7302L25.4646 41.6658C25.3995 41.8915 25.31 42.1217 25.2204 42.3518L25.2203 42.3519L25.2203 42.3519C25.0169 42.8746 24.8134 43.3973 24.8964 43.8679C24.9315 44.0641 24.9573 44.2651 24.9834 44.468L24.9834 44.4681C25.0661 45.1124 25.1512 45.7757 25.5442 46.3655C25.776 46.7132 25.9611 47.0949 26.1461 47.4764C26.5749 48.3603 27.0029 49.2429 28.009 49.6984C28.1804 50.4118 28.7538 50.662 29.3043 50.9022C29.4522 50.9667 29.5985 51.0305 29.7348 51.1024C30.6171 51.5676 31.5612 52.0202 32.5977 51.3471C33.2874 50.8992 33.9979 50.4837 34.7011 50.0726L34.7013 50.0725C35.0085 49.8929 35.3143 49.7141 35.6164 49.5338C35.585 49.0713 35.589 48.6072 35.6283 48.1454C35.7778 47.2309 35.3652 46.4554 34.8807 45.8314C34.5972 45.4669 34.4451 45.0165 34.4491 44.5537C34.2149 44.1084 33.8684 43.8381 33.5321 43.5759C33.235 43.3442 32.946 43.1189 32.7496 42.7846C32.4913 42.4621 32.1011 42.2754 31.6895 42.2773C31.4497 42.2907 31.2055 42.2654 30.9604 42.2399H30.9603H30.9603H30.9603H30.9602H30.9602H30.9602H30.9601H30.9601H30.9601H30.96H30.96H30.96H30.9599H30.9599H30.9599H30.9598H30.9598H30.9598H30.9597H30.9597C30.4043 42.1824 29.8439 42.1244 29.3183 42.5132C29.238 42.5726 29.0772 42.5103 28.9043 42.4432L28.9042 42.4432C28.7847 42.3969 28.6593 42.3483 28.5506 42.336C28.4664 42.3263 28.3759 42.373 28.2559 42.4349C28.1921 42.4678 28.1201 42.505 28.0362 42.5403C28.0757 42.2508 28.0687 41.9567 28.0156 41.6695C27.931 41.4365 27.6492 41.0836 27.4997 41.1055C27.0601 41.1933 26.6365 41.3483 26.2437 41.5653C25.945 41.7131 25.9667 41.9851 25.9877 42.2494C25.9939 42.3278 26.0001 42.4056 25.9979 42.4792C25.9932 42.6256 25.9911 42.7721 25.989 42.9187V42.9188C25.9797 43.5726 25.9704 44.2279 25.7332 44.8775ZM53.94 57.6018L51.9435 55.5929C51.9146 55.0484 51.9233 54.5026 51.9696 53.9593C51.998 53.7486 52.2985 53.538 52.5231 53.4143C52.5823 53.3816 52.7063 53.4675 52.83 53.5531C52.8839 53.5904 52.9377 53.6277 52.986 53.6551C53.0169 53.5937 53.0459 53.5291 53.0751 53.4639C53.2464 53.0822 53.4259 52.6824 54.0372 52.8017C54.1748 52.8404 54.3218 52.8263 54.4496 52.762C54.8067 52.4722 55.1946 52.1755 55.6506 52.3034C55.8063 52.3469 55.9653 52.387 56.1252 52.4273C56.805 52.5988 57.4999 52.774 58.0158 53.2335C59.2755 54.3559 60.4726 55.5755 61.0997 57.1965C61.4915 58.1589 61.79 59.1572 61.9912 60.1773C62.094 60.7128 61.8828 61.2602 61.4478 61.5856C61.1284 61.8106 60.8137 62.0425 60.499 62.2744L60.4989 62.2745L60.4986 62.2747L60.4985 62.2747L60.4983 62.2749L60.4982 62.275L60.4979 62.2752L60.4978 62.2752L60.4976 62.2754L60.4975 62.2755L60.4973 62.2756L60.4972 62.2757L60.4969 62.2759L60.4968 62.276L60.4966 62.2761L60.4965 62.2762L60.4962 62.2764L60.4961 62.2764L60.4959 62.2766L60.4958 62.2767C59.9954 62.6455 59.4952 63.0141 58.9764 63.3543C58.671 63.556 58.3109 63.6574 57.9459 63.6444C55.8274 63.46 54.3177 62.457 53.6921 60.0494C53.6623 59.9347 53.6188 59.8185 53.5754 59.7026C53.486 59.4639 53.3971 59.2263 53.4289 59.0056C53.5482 58.5204 53.7195 58.0497 53.94 57.6018ZM57.4016 109.714L57.5744 110.596C57.7808 110.128 57.857 109.729 57.5081 109.275C57.2853 108.985 57.1344 108.651 56.9824 108.315L56.9823 108.315C56.7773 107.862 56.5702 107.403 56.182 107.041C55.9253 106.835 55.6932 106.601 55.4906 106.341C54.4517 104.62 52.8634 103.648 51.1086 102.872L51.0683 102.854L51.04 102.841C50.8386 102.75 50.5696 102.628 50.4806 102.701C50.1962 102.934 49.9645 102.845 49.7188 102.752C49.6601 102.73 49.6006 102.707 49.5394 102.688C49.3618 102.634 49.0759 102.596 48.9751 102.693C48.6347 103.022 48.2231 103.185 47.8082 103.35L47.8081 103.35C47.7185 103.386 47.6288 103.422 47.5397 103.459C47.4287 103.506 47.2206 103.61 47.4153 103.874C47.5105 104.003 47.5329 104.187 47.5585 104.396C47.5709 104.498 47.5841 104.606 47.6067 104.716C46.8931 104.358 46.3028 104.2 45.897 104.796C45.9711 104.989 46.0324 105.184 46.0923 105.374L46.0923 105.374L46.0924 105.374L46.0924 105.374L46.0924 105.374L46.0924 105.374L46.0925 105.374L46.0925 105.374L46.0925 105.375L46.0925 105.375L46.0926 105.375L46.0926 105.375L46.0926 105.375L46.0926 105.375L46.0926 105.375L46.0927 105.375L46.0927 105.375L46.0927 105.375L46.0927 105.375C46.2209 105.782 46.3427 106.169 46.5701 106.477C46.7891 106.773 46.971 107.099 47.153 107.425C47.5422 108.122 47.932 108.82 48.6859 109.23C49.5321 110.778 50.964 111.613 52.4014 112.452L52.4014 112.452L52.4023 112.453C52.5232 112.523 52.6441 112.594 52.7647 112.665C53.2157 112.999 53.8293 113 54.2822 112.669C54.3032 112.655 54.3247 112.641 54.3468 112.625C54.5329 112.496 54.7582 112.339 55.0728 112.626C55.2225 112.712 55.4023 112.726 55.5634 112.665C55.7245 112.604 55.8502 112.474 55.9063 112.31C56.023 111.876 56.3224 111.549 56.623 111.22C57.0103 110.797 57.3994 110.371 57.4016 109.714ZM146.061 42.2069L146.181 41.3676C146.219 41.3947 146.255 41.4161 146.286 41.4351C146.345 41.4699 146.39 41.4967 146.406 41.5352C146.507 41.7854 146.616 42.0326 146.724 42.2799L146.724 42.2804C147.015 42.9423 147.305 43.6041 147.465 44.3199L147.488 44.4225C147.62 45.0041 147.746 45.5578 147.183 46.0131C147.029 46.1382 146.993 46.3528 146.958 46.5674C146.9 46.9152 146.842 47.2632 146.278 47.2306C145.859 47.9076 145.195 47.8589 144.551 47.8117L144.501 47.808C144.386 48.258 144.241 48.6996 144.066 49.1297C143.848 49.5846 143.149 49.7134 142.4 49.4983C142.33 49.4782 142.262 49.4387 142.194 49.3998C142.096 49.3431 142 49.2878 141.907 49.2961L141.874 49.2989C140.694 49.4024 140.692 49.4026 140.186 48.4487C139.905 47.9829 139.651 47.5016 139.425 47.007C139.216 46.427 138.768 45.9668 138.195 45.7459C137.309 45.3716 136.68 44.5625 136.531 43.6076C136.388 42.7494 136.787 41.9619 137.549 41.343L137.873 41.7694L137.882 41.7812L137.945 41.8641L137.968 41.8939L137.974 41.9018L137.978 41.9066L137.993 41.9272C138.239 42.2496 138.506 42.6005 138.83 43.0263C138.83 42.8015 138.829 42.6001 138.828 42.4146V42.4094V42.4044V42.3996V42.3949V42.3905C138.827 42.0018 138.825 41.6827 138.832 41.3637C138.84 40.9837 138.873 40.97 139.265 40.8088C139.365 40.7678 139.488 40.7173 139.64 40.6488C139.82 40.567 140.029 40.5467 140.237 40.5264C140.642 40.487 141.047 40.4476 141.249 39.9567L142.827 39.8965C143.798 39.858 144.659 39.9645 145.112 41.0508C145.234 41.3465 145.475 41.592 145.724 41.8459C145.838 41.9626 145.954 42.081 146.061 42.2069ZM0.683485 47.5426C0.772169 48.4479 1.4515 49.1817 2.34264 49.3349L2.85253 48.0993C3.09775 48.8874 3.43987 49.4823 4.35677 49.5825C4.49099 49.3018 4.63931 49.0281 4.80117 48.7625C4.84644 48.6947 4.91259 48.6342 4.97812 48.5742C5.16278 48.4052 5.34244 48.2409 5.03563 47.9299L5.90707 47.9958C6.11462 47.5429 6.39244 46.9378 6.65291 46.3709C6.74371 46.3938 6.83261 46.4168 6.92013 46.4394L6.92171 46.4398C7.20114 46.5119 7.46655 46.5804 7.73489 46.6333C7.78215 46.6441 7.91044 46.5129 7.90655 46.4527C7.89758 46.3224 7.85541 46.1124 7.77646 46.0859C7.69739 46.0593 7.60091 46.0664 7.50759 46.0733C7.39513 46.0816 7.28725 46.0896 7.21992 46.0378C7.14381 45.98 7.12409 45.8471 7.09723 45.6661C7.08324 45.5719 7.06732 45.4646 7.04049 45.3481L7.62574 45.8702C7.62574 45.5332 7.62595 45.202 7.62615 44.8753V44.875V44.8747C7.62689 43.6751 7.6276 42.5363 7.61796 41.3977C7.61729 41.3292 7.57458 41.2629 7.53096 41.1952C7.49705 41.1426 7.4626 41.0891 7.4469 41.033C7.36017 40.7232 7.21631 40.4283 7.07526 40.1392C6.79711 39.5691 6.52987 39.0213 6.73306 38.4253C6.45097 37.6532 5.89219 37.6089 5.36686 37.5672C5.02228 37.5399 4.6921 37.5137 4.46383 37.284C4.27816 37.3814 4.09922 37.4975 3.9248 37.6106C3.54946 37.854 3.19504 38.0838 2.83937 38.0859C2.44947 38.0883 2.1653 38.29 1.88665 38.4879C1.60258 38.6895 1.32424 38.8871 0.945457 38.8653C0.848264 38.8595 0.642216 39.1463 0.644608 39.2968C0.648707 39.5673 0.56368 39.8113 0.477664 40.0581C0.381698 40.3334 0.2845 40.6123 0.308471 40.9355C0.404863 42.202 0.406463 43.4739 0.313256 44.7406C0.261914 45.4132 0.393539 46.0518 0.524244 46.6859C0.58311 46.9715 0.64179 47.2562 0.683485 47.5426ZM109.307 116.771L109.306 116.771L109.306 116.771C108.685 116.73 108.127 116.693 107.818 117.404C107.203 116.588 107.13 116.008 107.757 115.36C107.916 115.195 108.055 115.015 108.195 114.834L108.195 114.834L108.195 114.834L108.195 114.834L108.195 114.834L108.195 114.834L108.195 114.834L108.195 114.834L108.195 114.834L108.195 114.834L108.195 114.834L108.195 114.834L108.196 114.834L108.196 114.834L108.196 114.834L108.196 114.834C108.436 114.524 108.678 114.211 109.026 113.967C109.306 113.771 109.483 113.439 109.662 113.101C109.794 112.854 109.927 112.603 110.103 112.402C110.324 112.148 110.622 111.962 110.92 111.776C111.053 111.693 111.186 111.61 111.312 111.521L111.795 111.998L111.11 112.487L111.186 112.664L112.225 112.499C112.252 112.54 112.28 112.599 112.312 112.665C112.397 112.841 112.507 113.069 112.687 113.164C114.174 113.942 115.122 115.242 116.025 116.577C116.201 116.836 116.309 117.141 116.417 117.447L116.417 117.447C116.491 117.657 116.565 117.868 116.662 118.065L116.757 118.257C117.267 119.291 117.393 119.545 117.224 120.573C117.095 121.36 116.951 122.198 116.337 122.84C116.067 123.088 115.887 123.419 115.823 123.782C115.791 124.599 115.345 124.73 114.688 124.688C114.501 124.678 114.313 124.698 114.133 124.748C112.987 125.058 112.869 125.026 112.298 124.143C111.594 123.054 111.196 121.836 110.799 120.619L110.799 120.619C110.719 120.375 110.639 120.13 110.557 119.887C110.316 119.174 110.114 118.448 109.916 117.731L109.915 117.73C109.828 117.414 109.74 117.1 109.651 116.789C109.535 116.786 109.42 116.778 109.307 116.771ZM90.7404 100.487C90.8645 100.556 90.9889 100.626 91.1131 100.697C91.2794 100.19 91.614 99.7803 92.0127 100.069C92.5812 100.482 92.6727 100.082 92.7424 99.7514C92.7559 99.6869 92.7641 99.6193 92.7724 99.5521C92.8007 99.3205 92.8285 99.0936 93.0686 99.0157C93.443 98.8943 93.6266 98.6046 93.8077 98.3187C93.8857 98.1956 93.9633 98.0732 94.0555 97.9652C94.3034 97.6745 94.5475 97.1819 94.4712 96.8551C94.3155 96.3027 94.0405 95.7916 93.6658 95.3584C93.4532 95.0967 93.1835 94.8833 92.913 94.6694C92.7351 94.5286 92.5568 94.3876 92.3943 94.2324C92.1879 94.0356 91.9882 93.8309 91.7884 93.6261C91.2216 93.0451 90.6544 92.4636 89.9339 92.0631C89.6175 91.8874 89.3223 91.6735 89.0272 91.4596L89.0271 91.4596C88.4728 91.0578 87.9187 90.6562 87.2239 90.508C86.5333 90.4114 85.8928 90.0908 85.3997 89.5947C84.8659 89.023 84.4574 89.1109 83.725 89.6248C83.6369 89.6866 83.5277 89.7487 83.4178 89.8113C83.1593 89.9584 82.8965 90.108 82.8933 90.2613C82.8847 90.6593 82.6532 90.6634 82.4225 90.6675C82.2102 90.6712 81.9986 90.6749 81.962 90.9855C82.608 92.4582 83.6914 93.7205 84.769 94.9761C84.8923 95.1197 85.0155 95.2633 85.138 95.4071C85.901 96.3025 86.7479 97.1253 87.5949 97.9483L87.5951 97.9485C88.0077 98.3493 88.4203 98.7502 88.8233 99.1595C89.382 99.7268 90.0557 100.104 90.7404 100.487ZM146.743 89.048L146.743 89.0478L146.716 89.0007C146.085 87.9072 145.532 86.77 145.06 85.5977C144.959 85.3429 144.842 85.091 144.724 84.8375C144.301 83.9282 143.869 82.9997 144.15 81.8487C144.701 82.2342 144.939 82.804 145.186 83.3945C145.411 83.9321 145.643 84.487 146.124 84.9357C146.02 84.093 145.728 83.3587 145.426 82.5956C145.194 82.0098 144.955 81.4071 144.788 80.7254L145.745 81.2538C145.79 80.9983 145.838 80.7305 145.885 80.4636L147.27 80.1991C147.309 80.262 147.352 80.3337 147.398 80.4109L147.398 80.411L147.399 80.4124C147.512 80.6029 147.645 80.8273 147.796 81.0392C148.614 82.1934 148.626 82.1974 150.088 82.7204L150.124 82.7333C150.292 82.8006 150.451 82.8861 150.6 82.9882C151.761 83.7261 152.818 84.5578 153.457 85.8406C153.756 86.4161 153.941 87.0448 154.001 87.6915C154.02 87.8272 154.083 87.9528 154.18 88.0486C154.274 88.1304 154.318 88.2558 154.296 88.3788C154.275 88.5018 154.19 88.6041 154.074 88.6481C153.712 88.8539 153.463 89.1694 153.215 89.4843C153.014 89.739 152.814 89.9933 152.554 90.189C152.34 90.3759 152.216 90.647 152.216 90.9323C152.154 91.3521 151.336 91.8952 150.956 91.8073C150.877 91.789 150.808 91.7283 150.738 91.6675C150.599 91.546 150.46 91.4241 150.246 91.6382C150.086 91.8199 149.937 92.0119 149.802 92.213C148.161 91.5335 147.445 90.277 146.743 89.048ZM101.704 58.1775L102.594 58.0294C102.781 57.7097 102.703 57.3933 102.625 57.075C102.554 56.7872 102.483 56.4978 102.607 56.2032C102.627 56.044 102.536 55.8918 102.386 55.8359C102.237 55.7799 102.069 55.835 101.981 55.9688C101.939 56.011 101.809 55.9655 101.68 55.92C101.62 55.8991 101.561 55.8782 101.51 55.8659C101.522 55.8244 101.534 55.7716 101.546 55.7188C101.571 55.6056 101.596 55.4925 101.625 55.4912C102.401 55.4602 102.17 54.8109 102.064 54.5343C101.976 54.3025 101.892 54.0684 101.807 53.834C101.461 52.8773 101.113 51.9157 100.509 51.0877L100.501 51.0765C100.188 50.6466 99.7882 50.0992 99.1137 50.658C99.0784 50.6857 98.9678 50.6604 98.9143 50.6255C98.3254 50.2412 97.9633 50.4693 97.718 51.0537C97.5039 51.5639 97.2746 51.3309 97.0951 51.1486L97.064 51.1172L96.2631 51.756L96.5921 53.0078C96.4353 52.9172 96.3355 52.7784 96.2377 52.6424C96.0704 52.4099 95.9092 52.1857 95.4793 52.2254L95.3877 52.3844L95.3875 52.3847L95.387 52.3856L95.3864 52.3866L95.3863 52.3869L95.3858 52.3877C95.2964 52.5429 95.1968 52.7158 95.095 52.8874C95.0453 52.9706 94.9995 53.0716 94.9537 53.1726C94.8522 53.3964 94.7506 53.6204 94.6064 53.6517C94.0097 53.7814 94.1486 54.1037 94.2741 54.3949C94.2904 54.4329 94.3065 54.4703 94.3208 54.5066C94.4843 54.9254 94.6676 55.3363 94.8511 55.7472C94.98 56.0362 95.109 56.3251 95.2311 56.6169C95.2872 56.7983 95.3249 56.9849 95.3435 57.1739L95.1073 57.2504C94.6653 56.2736 94.2236 55.2968 93.7275 54.1997C93.5157 55.0961 93.7804 55.704 94.0765 56.3639C94.5478 57.4058 95.1509 58.3821 95.8708 59.2686C96.779 60.3943 97.8682 61.3283 99.5031 61.0238C99.6374 61.01 99.7726 61.0088 99.9071 61.0205L102.063 58.8509L101.704 58.1775ZM97.3149 26.7289L97.9175 27.3355L97.9659 26.9165C97.994 26.6737 98.0203 26.4457 98.0479 26.205C98.226 26.1675 98.4058 26.127 98.587 26.0863C99.016 25.9897 99.4529 25.8914 99.8949 25.8259C100.279 25.7695 100.669 25.7708 101.053 25.8298C101.175 25.8486 101.205 25.9553 101.239 26.0761C101.287 26.2426 101.342 26.4359 101.654 26.4635C101.942 26.4884 102.175 26.9013 102.387 27.2774L102.387 27.2778L102.387 27.2784L102.388 27.2796C102.432 27.3568 102.474 27.4324 102.516 27.5028C102.581 27.6111 102.594 27.7598 102.607 27.9102C102.634 28.2276 102.662 28.5528 103.18 28.5232L103.259 29.952C103.261 29.9838 103.267 30.0156 103.272 30.0474L103.277 30.0745L103.279 30.0898L105.446 32.2696C105.683 32.253 105.921 32.2555 106.158 32.2768C106.519 32.3349 106.909 32.6957 106.723 32.9195C106.503 33.1859 106.613 33.4086 106.717 33.6202C106.808 33.8037 106.894 33.9788 106.757 34.1668C105.63 34.5072 105.275 34.5445 104.358 34.3832C104.587 34.883 104.787 35.3187 105.039 35.8661C104.995 35.9082 104.947 35.9682 104.897 36.0318C104.777 36.182 104.643 36.3519 104.509 36.3508C104.253 36.349 103.995 36.3614 103.736 36.3738C102.779 36.4198 101.816 36.466 100.973 35.7905C100.659 35.5899 100.368 35.3554 100.105 35.0912C99.6654 34.5366 99.2645 33.95 98.864 33.3641L98.736 33.1768L98.6601 33.0661C98.5259 32.8706 98.4032 32.6672 98.2805 32.4638C98.1913 32.3159 98.1021 32.168 98.0084 32.0231C97.8782 31.8214 97.8119 31.5861 97.7455 31.351C97.6365 30.9643 97.5274 30.5779 97.1349 30.3404C97.2079 29.846 97.0129 29.4434 96.8136 29.0319L96.8135 29.0317C96.7524 28.9055 96.691 28.7785 96.6367 28.6478C96.4642 28.3043 96.4392 27.9048 96.5673 27.5422C96.6955 27.1796 96.9657 26.8857 97.3149 26.7289ZM53.6706 4.98593H52.3248C51.4452 4.88907 50.5553 4.99686 49.7237 5.30098C49.3677 5.42917 49.056 5.64995 48.7418 5.87243C48.4225 6.09856 48.1007 6.32646 47.7275 6.4607C47.6431 6.49079 47.572 6.70143 47.5806 6.82179C47.6042 7.19372 47.6542 7.56348 47.7302 7.92824C47.8771 8.60827 48.2725 9.14526 48.6691 9.68394C48.7883 9.84581 48.9076 10.0078 49.0203 10.1739C49.9826 11.5909 51.1331 12.6538 52.9732 12.6182C53.1105 12.6069 53.2472 12.6465 53.3575 12.7296C53.7102 13.11 53.9949 12.937 54.2783 12.7649C54.4332 12.6708 54.5878 12.5769 54.7529 12.5737C55.1443 11.9517 55.7719 11.6321 56.3838 11.3205C56.6008 11.21 56.8158 11.1005 57.0176 10.9789C57.7042 10.5651 57.8995 10.1294 57.7536 9.52247C57.7246 9.40182 57.697 9.28007 57.6693 9.158C57.4526 8.20231 57.2314 7.22702 56.3247 6.60664C56.2034 6.52312 56.1045 6.40545 56.0054 6.28752C55.7977 6.04046 55.589 5.79224 55.1718 5.85436C55.0446 5.84461 54.9314 5.76923 54.8728 5.65516C54.7646 4.96971 54.2923 4.97704 53.8173 4.98441C53.7683 4.98517 53.7193 4.98593 53.6706 4.98593ZM49.9877 76.1365C50.201 76.4741 50.3577 76.7223 50.6624 77.2044C50.6886 77.0075 50.7087 76.8606 50.7246 76.7444L50.7247 76.7438L50.7248 76.7432C50.7501 76.5584 50.7647 76.4515 50.7766 76.3438L50.7768 76.3418C50.8061 76.0759 50.8219 75.9321 50.901 75.8472C50.994 75.7473 51.1746 75.7288 51.5678 75.6886L51.5697 75.6884C51.593 75.686 51.6196 75.685 51.6467 75.684C51.7259 75.6811 51.8101 75.6779 51.8344 75.6394C52.1104 75.1558 52.6894 74.9384 53.2127 75.1221C53.825 75.2733 54.4016 75.5448 54.9093 75.921C56.7156 77.4527 57.7778 79.5058 58.6029 81.6841C58.6994 81.9384 58.6731 82.2397 58.6469 82.5391C58.6349 82.6767 58.6229 82.814 58.6229 82.9461L58.0664 82.8841C58.1029 83.4101 57.9847 83.7995 57.3735 83.9244C57.1501 84.0051 56.9808 84.1917 56.9213 84.423C56.8847 84.7996 56.6412 84.8431 56.4023 84.8858C56.2395 84.9149 56.0789 84.9436 55.9874 85.0771C55.7948 84.769 55.5282 84.8244 55.2598 84.8803C55.0259 84.9289 54.7906 84.9779 54.6018 84.7865C54.4657 84.6481 54.3121 84.5208 54.1589 84.3939C53.8749 84.1585 53.5925 83.9245 53.426 83.6234C52.834 82.6132 52.3523 81.5415 51.989 80.4272C51.8772 79.9261 51.5686 79.4919 51.1334 79.2235C50.4346 78.8408 49.8741 78.2455 49.532 77.5228L49.5206 77.498C49.2435 76.8924 49.2415 76.8879 49.9877 76.1365ZM77.3216 58.5461C77.2947 58.7215 77.2906 58.8998 77.3097 59.0763C77.5845 59.4662 77.8885 59.8091 78.1864 60.145C78.328 60.3047 78.4683 60.4629 78.6034 60.6239C79.4374 61.6244 80.2963 62.6505 81.6026 63.1816C82.4749 63.5358 83.2833 63.4305 83.7399 62.8184C83.8708 62.6431 84.0586 62.5158 84.2455 62.3891C84.5799 62.1624 84.9116 61.9376 84.9095 61.443C85.7068 61.3292 85.571 60.6657 85.4478 60.2459C85.1036 59.0718 84.7241 57.8844 83.8868 56.9446C83.7327 56.7716 83.5443 56.63 83.3558 56.4884L83.3557 56.4883C83.1814 56.3573 83.0069 56.2261 82.8592 56.0699C82.6148 55.8116 82.4008 55.5244 82.1697 55.2143L82.1696 55.2142C82.0647 55.0735 81.9563 54.9282 81.84 54.7787L79.6976 55.1948L79.6624 55.4108L79.6388 55.5552L79.6383 55.5578C79.6083 55.7414 79.5778 55.9276 79.5415 56.1532L77.9215 54.8235C77.8096 54.9301 77.7031 55.0531 77.6028 55.1691C77.3987 55.4051 77.2198 55.6119 77.071 55.5917C76.8295 55.5594 76.6292 55.6274 76.4289 55.6954C76.2323 55.7621 76.0357 55.8289 75.8 55.8009C75.9275 55.9709 76.1348 56.0009 76.3347 56.0298C76.6443 56.0746 76.936 56.1168 76.8853 56.6735L76.2046 56.3792C75.9754 57.0723 76.429 57.3429 76.9003 57.624L76.9006 57.6242C76.9469 57.6518 76.9933 57.6795 77.0393 57.7077C76.9645 57.4517 76.8913 57.1953 76.8001 56.8775C76.9544 56.8957 77.1046 56.94 77.2442 57.0087C77.3933 57.123 77.5108 57.2738 77.5854 57.4468C77.6029 57.4943 77.5647 57.5582 77.5242 57.626C77.4871 57.6881 77.4481 57.7533 77.4481 57.8122C77.4488 57.8783 77.4827 57.9461 77.516 58.0126C77.5527 58.086 77.5887 58.158 77.5785 58.2244C77.5695 58.2842 77.5107 58.3354 77.4512 58.3871C77.3941 58.4368 77.3363 58.4871 77.3216 58.5461ZM101.334 78.0984L102.056 78.3461C102.085 77.6791 101.728 77.2716 101.366 76.8584C101.058 76.5073 100.746 76.152 100.666 75.63C100.881 75.7012 101.088 75.7964 101.282 75.9138C101.545 76.1477 101.795 76.3951 102.032 76.6549C102.003 76.2104 101.818 75.7907 101.509 75.4708C101.939 74.9478 102.128 74.718 102.37 74.6166C102.56 74.5372 102.783 74.5365 103.181 74.5353C103.332 74.7065 103.476 74.894 103.622 75.0833L103.622 75.0833C103.956 75.518 104.297 75.9613 104.741 76.2343C105.169 76.4976 105.414 76.8744 105.657 77.2485C105.813 77.4892 105.969 77.7287 106.172 77.9362C106.646 78.49 107.035 79.1121 107.326 79.7817C107.531 80.1398 107.627 80.5508 107.601 80.9634C107.526 81.4349 107.326 82.1282 106.995 82.2624C106.614 82.4164 106.559 82.6516 106.502 82.893C106.477 82.9977 106.452 83.1037 106.4 83.2046C106.165 83.6601 105.843 84.1034 105.252 84.2012C105.127 84.2219 104.994 84.27 104.862 84.3174L104.862 84.3175C104.631 84.4006 104.406 84.4815 104.245 84.4085C103.61 84.1479 103.032 83.7667 102.54 83.2858C101.691 82.3513 100.903 81.3628 100.18 80.3264C100.058 80.1558 100.054 79.8997 100.049 79.5983V79.5982V79.5981C100.047 79.4449 100.044 79.2801 100.026 79.1089L100.574 79.5536C100.502 79.0564 100.766 78.7763 101.014 78.5119C101.139 78.3787 101.261 78.2494 101.334 78.0984ZM92.8919 131.466L93.6694 131.895C93.5888 131.402 93.475 130.915 93.3288 130.437C93.2523 130.243 92.9807 129.97 92.8312 129.989C92.5031 130.032 92.3045 129.849 92.1194 129.679C91.9998 129.569 91.8858 129.464 91.7462 129.428C91.3928 129.34 91.1928 129.122 90.9941 128.905C90.9164 128.82 90.8389 128.735 90.7525 128.659C90.5774 128.504 90.4184 128.321 90.2603 128.139C89.9924 127.832 89.7269 127.527 89.3903 127.363C89.0547 127.2 88.8129 126.96 88.5741 126.724C88.4197 126.571 88.2666 126.42 88.0903 126.291C87.7792 126.063 87.464 125.841 87.1496 125.62L87.1494 125.62L87.1492 125.62L87.1489 125.62L87.1487 125.619L87.1478 125.619L87.1468 125.618L86.9842 125.504C86.8999 125.444 86.8157 125.385 86.7317 125.325H85.153C85.3094 125.857 85.0326 125.858 84.7535 125.858C84.5353 125.859 84.3156 125.859 84.3004 126.113C84.2835 126.314 84.4321 126.446 84.5821 126.58C84.7911 126.765 85.0028 126.954 84.7747 127.334C84.6969 127.267 84.6226 127.191 84.5489 127.116C84.2568 126.82 83.9739 126.533 83.5216 126.812C83.5619 127.659 84.1048 128.178 84.6481 128.697L84.7262 128.771C84.8373 128.866 84.9397 128.97 85.0324 129.083C85.9656 130.389 86.9941 131.623 88.1094 132.775C88.2404 132.909 88.3391 133.074 88.438 133.239C88.5297 133.393 88.6215 133.546 88.7392 133.675L88.788 133.728C89.2207 134.203 89.6684 134.694 90.4178 134.589C90.4567 134.276 90.2997 134.038 90.1458 133.803C89.96 133.521 89.7786 133.245 89.951 132.854L91.4268 134.339L92.1999 133.888L91.5162 132.29C92.4831 132.719 92.5629 132.657 92.8919 131.466ZM83.6529 33.7913C83.8246 33.8028 83.9781 33.7798 84.1242 33.7578C84.4047 33.7157 84.6577 33.6777 84.9592 33.8969L84.3727 34.1C84.4193 34.2592 84.4674 34.4181 84.5154 34.5772L84.5155 34.5774L84.5156 34.5777L84.5157 34.578L84.5158 34.5783C84.6452 35.0064 84.7747 35.4349 84.8769 35.8682C84.9131 36.021 84.8336 36.3226 84.7274 36.3674C84.3847 36.513 84.1821 36.7903 83.9816 37.0649C83.8398 37.2591 83.699 37.452 83.5103 37.5957C83.2784 37.7378 83.0144 37.8182 82.7432 37.8295C82.677 37.8369 82.6049 37.7901 82.5329 37.7433C82.4613 37.6968 82.3898 37.6503 82.3245 37.6574C82.1508 37.7125 81.9886 37.7992 81.846 37.9132L81.828 37.849C81.5963 37.0217 81.5843 36.979 80.6238 36.6493C80.2577 36.5239 80.0718 36.2514 79.8833 35.975C79.7683 35.8064 79.6524 35.6363 79.4939 35.4975L79.3093 35.8929L79.2084 36.1092C79.1609 36.0589 79.1028 36.0101 79.046 35.9624C78.9274 35.8628 78.8144 35.7679 78.8148 35.6735C78.8226 33.9261 78.8211 33.8864 78.028 32.8395C77.7582 33.3146 77.9609 33.6693 78.1755 34.0447C78.3177 34.2935 78.4651 34.5514 78.4837 34.8595C78.4146 34.8487 78.3343 34.8441 78.2562 34.8396C78.0947 34.8302 77.9426 34.8214 77.9176 34.7599C77.8625 34.6251 77.8031 34.4914 77.7438 34.3579C77.4023 33.5892 77.0637 32.827 77.5588 31.8955C77.5816 31.8527 77.602 31.8124 77.6212 31.7748C77.7538 31.5137 77.8231 31.3771 78.1775 31.3714C78.446 31.3396 78.7018 31.2383 78.9198 31.0774C79.3283 30.8175 79.7263 30.5411 80.1428 30.252L80.1429 30.252L80.1435 30.2515C80.3155 30.1321 80.4907 30.0105 80.671 29.887L80.9103 30.2481C81.1161 30.3922 81.3256 30.3115 81.5051 30.2423C81.7506 30.1478 81.9399 30.0749 81.9869 30.6287C81.9959 30.7337 82.0912 30.7018 82.205 30.6637C82.3865 30.6029 82.6149 30.5265 82.6149 30.9642C82.6149 31.1552 82.8566 31.3464 83.0891 31.5303L83.0891 31.5303L83.0892 31.5304C83.1922 31.6118 83.2933 31.6918 83.3709 31.7698C83.3211 31.9007 83.2723 32.0283 83.2241 32.1542L83.1092 32.4549C83.1808 32.5053 83.2525 32.5554 83.3242 32.6054L83.4762 32.3149L83.7375 31.8152C83.9231 32.1322 84.053 32.3541 84.184 32.5776L84.3476 32.857C84.1338 33.1452 83.8933 33.4684 83.6529 33.7913ZM33.7553 76.4666L34.6525 77.6049C34.8236 77.4894 34.9811 77.3548 35.122 77.2035C35.1997 77.0415 35.2679 76.8751 35.3263 76.7052L35.3383 76.6795L35.3383 76.6794C35.4089 76.5285 35.5211 76.2884 35.5634 76.2987C35.8986 76.3803 36.1284 76.1772 36.3577 75.9746C36.6035 75.7575 36.8486 75.5409 37.222 75.6764C37.2732 75.5639 37.3184 75.4488 37.3575 75.3315C37.0679 75.1946 37.1224 74.9842 37.1762 74.776C37.2045 74.6666 37.2327 74.5578 37.2106 74.4607C37.1158 74.0424 36.8936 73.7084 36.6739 73.3783C36.5185 73.1449 36.3644 72.9133 36.2575 72.6552C35.8021 71.5358 35.0965 70.5371 34.1955 69.7364L31.2155 70.1577V71.5858C30.9878 71.5042 30.8295 71.3237 30.6759 71.1487C30.4555 70.8975 30.245 70.6575 29.8536 70.7375C29.6786 71.544 29.7049 72.323 30.1475 72.9435C30.5138 73.4569 30.8358 73.9971 31.1573 74.5365C31.4675 75.0568 31.7772 75.5766 32.1261 76.0712C32.4367 76.562 32.8711 76.9612 33.3851 77.2279L33.7553 76.4666ZM66.9408 95.3451L67.518 96.6875L67.7872 95.9734C67.7945 95.978 67.8024 95.9824 67.8106 95.9867C67.8257 95.9946 67.842 96.0021 67.8582 96.0096C67.9112 96.0342 67.9636 96.0584 67.9732 96.0938C68.0993 96.5881 68.3507 97.041 68.7029 97.4082C68.9118 97.6517 69.0864 97.9231 69.2217 98.2146C69.4463 98.717 69.9051 99.0736 70.4449 99.1655C70.5382 98.9747 70.6345 98.7779 70.679 98.6865L71.4787 99.2883C71.4787 99.3604 71.4817 99.4163 71.4839 99.4585C71.4874 99.5232 71.4891 99.5555 71.4757 99.5642C71.2672 99.7008 71.0548 99.8311 70.8532 99.9548L70.6955 100.052C70.7666 100.452 70.8312 100.815 70.9275 101.359L69.9078 100.859L69.5897 101.504L69.3198 102.051L68.6143 102.132V102.784C67.8823 103.336 67.2827 103.262 66.6478 102.679C66.3854 102.438 66.1103 102.212 65.8314 101.982L65.8313 101.982C65.3751 101.606 64.9086 101.221 64.4706 100.753L65.3678 100.156C65.1979 99.5559 64.9035 98.9984 64.5038 98.5207C64.214 98.1602 64.0159 97.7253 63.8211 97.2977L63.821 97.2975C63.7365 97.1119 63.6526 96.9277 63.5621 96.7516C63.8998 96.3326 64.1814 96.4903 64.4782 96.6564C64.5567 96.7004 64.6363 96.745 64.7183 96.7796C64.7237 96.7319 64.7344 96.6833 64.7448 96.6356C64.7669 96.5353 64.7879 96.4397 64.7562 96.3676C64.4641 95.7056 64.5903 95.3792 65.2099 95.3503C65.6132 95.3319 66.0177 95.3365 66.4162 95.3411C66.5924 95.3431 66.7675 95.3451 66.9408 95.3451ZM26.1441 102.177L25.4512 101.145L25.4141 101.17L25.3568 101.208C25.09 101.383 24.8552 101.536 24.8139 101.965C24.7195 102.942 25.1038 103.766 25.4869 104.587C25.5854 104.798 25.6839 105.009 25.7742 105.223C25.9551 105.651 26.6851 105.791 27.2641 105.663C27.4965 105.618 27.7338 105.602 27.9701 105.617C28.5615 105.678 29.0948 105.258 29.1789 104.666C29.2698 104.249 29.3709 103.97 29.8042 103.846C30.1933 103.764 30.4469 103.386 30.3766 102.992C30.3738 102.952 30.3704 102.911 30.3669 102.871C30.3385 102.539 30.3093 102.198 30.6458 101.928C30.7375 101.755 30.7358 101.547 30.6413 101.375C30.5869 101.298 30.4703 101.25 30.3612 101.206C30.2461 101.16 30.1392 101.116 30.1221 101.044C30.1009 100.954 30.1644 100.849 30.2303 100.74C30.2908 100.639 30.3533 100.536 30.3542 100.437C30.3608 99.7499 29.8524 99.3894 29.3171 99.1827C29.1738 99.127 29.0149 99.1232 28.8521 99.1193C28.6066 99.1134 28.3522 99.1073 28.1292 98.9227C28.1088 98.9058 27.9888 99.0174 27.8474 99.1489L27.8472 99.1491L27.8472 99.1492C27.7345 99.254 27.6083 99.3715 27.5081 99.4466C27.3801 99.5144 27.2439 99.5649 27.1029 99.597V100.796C26.9249 100.424 26.8355 100.236 26.7622 100.083H25.9144C25.9508 100.245 25.9868 100.401 26.0219 100.553L26.0219 100.553C26.1166 100.965 26.2048 101.348 26.2772 101.734C26.2906 101.805 26.2577 101.885 26.2153 101.988C26.1924 102.043 26.1667 102.106 26.1441 102.177ZM72.2003 74.7559L73.4064 75.1113C73.6035 74.6388 73.6618 74.1851 73.2458 73.7626C73.5485 73.4856 73.7913 73.6203 74.0431 73.76C74.2161 73.8561 74.3935 73.9545 74.5975 73.9233L74.7423 73.1385C74.9396 72.9266 75.1275 73.0182 75.3258 73.1148C75.5216 73.2102 75.7275 73.3106 75.9624 73.1276C76.2548 72.9009 76.4154 73.1059 76.587 73.325C76.7001 73.4694 76.818 73.6199 76.9816 73.657C77.2315 73.7573 77.4453 73.9314 77.5949 74.1565C77.824 74.4392 77.9722 74.7711 78.1211 75.1046C78.328 75.5679 78.5363 76.0344 78.9649 76.3772C79.0828 76.4715 79.08 76.7183 79.0769 76.9999C79.0753 77.1407 79.0737 77.2902 79.0869 77.4337C78.6676 77.2266 78.4503 77.4689 78.2319 77.7124C78.0244 77.9437 77.816 78.1761 77.4326 78.0256C77.3597 78.1443 77.3295 78.2922 77.2986 78.4432C77.227 78.7934 77.152 79.1605 76.5333 79.2202L76.0847 78.4502L75.9124 78.8133L75.7333 79.1901C75.2591 79.3028 75.0308 78.9155 74.8695 78.6419L74.8472 78.6042C74.3242 77.7139 73.5843 76.9724 72.6973 76.4497C72.1387 76.1142 71.8328 75.5674 72.2003 74.7559ZM63.2574 37.2439L65.1076 35.7848C65.0739 35.638 65.051 35.4745 65.0273 35.305C64.9719 34.9092 64.9119 34.4804 64.6985 34.1533C64.1701 33.3072 63.5143 32.5488 62.7547 31.9052C61.8626 31.1869 60.809 30.5947 59.69 31.6479C59.6182 31.7154 59.503 31.7361 59.373 31.7596C59.3054 31.7718 59.2338 31.7847 59.1621 31.8053C59.1878 31.9365 59.2007 32.0687 59.213 32.1946C59.2382 32.4517 59.2608 32.6827 59.384 32.8266C59.4669 32.9234 59.5516 33.0187 59.6361 33.1137C60.1394 33.6798 60.6354 34.2377 60.6984 35.0647C61.1376 35.4227 61.363 35.9136 61.5866 36.4007C61.7208 36.693 61.8543 36.9839 62.033 37.2439H63.2574Z" fill="#F5D3AB"/>
</svg>
