<svg width="279" height="212" viewBox="0 0 279 212" fill="none" xmlns="http://www.w3.org/2000/svg">
<path fill-rule="evenodd" clip-rule="evenodd" d="M175.434 210.89C176.9 210.8 178.368 210.71 179.84 210.982C177.832 211.196 175.806 211.193 173.798 210.971C174.343 210.956 174.888 210.923 175.434 210.89ZM179.88 210.985L180.63 211.159C175.945 211.577 171.227 211.436 166.575 210.739C159.992 209.693 153.598 207.684 147.599 204.774C141.73 201.914 136.069 198.643 130.659 194.987C122.72 189.712 114.72 184.541 106.249 180.135C99.2973 176.461 91.6898 174.197 83.8626 173.473C80.7521 173.193 77.6407 172.965 74.4384 172.919C74.6418 172.587 74.8922 172.594 75.1747 172.602C75.3899 172.608 75.6238 172.615 75.8699 172.472C75.565 172.472 75.2616 172.443 74.9745 172.415C74.3787 172.358 73.8537 172.307 73.534 172.539C73.0263 172.979 72.3202 173.106 71.6913 172.872C70.3431 172.155 68.9706 172.299 67.6042 172.443C66.9821 172.508 66.3612 172.573 65.7444 172.557C64.9897 172.537 64.2469 172.7 63.4986 172.864C62.6969 173.04 61.8889 173.217 61.0528 173.173C60.3868 173.137 59.7215 173.152 59.0558 173.166C57.6685 173.197 56.2796 173.228 54.8793 172.801C53.9535 172.52 52.7741 172.815 51.695 173.106C50.6968 173.375 49.4036 173.464 48.5272 173.039C47.617 172.597 46.699 172.607 45.7836 172.616L45.7834 172.616C45.2155 172.622 44.6486 172.628 44.0851 172.526C40.4786 171.913 36.9119 171.085 33.4042 170.045C28.4384 168.467 23.6518 166.372 19.1232 163.793C11.5562 159.584 6.67142 153.097 3.39826 145.269C0.120616 137.427 -0.0141434 129.582 3.60639 121.769L3.67795 121.614C5.56012 117.551 7.44192 113.488 9.67755 109.606C11.1063 107.078 12.8591 104.748 14.8912 102.675C16.5844 100.973 17.6651 98.8941 18.7447 96.8171L18.7458 96.8149C18.8313 96.6506 18.9167 96.4863 19.0024 96.3221C22.0874 90.4148 25.7269 84.9118 30.5383 80.2581C35.3971 75.5598 41.1054 72.1641 47.3163 69.6085C55.5751 66.2098 64.2681 64.7933 73.1058 63.9336L73.6271 63.8829L73.6272 63.8829C86.1686 62.6642 98.7226 61.4442 110.9 57.9243C119.602 55.4092 128.008 52.1949 135.645 47.2013C139.024 44.9916 141.771 42.1257 144.401 39.0958C146.067 37.1779 147.69 35.2237 149.314 33.2695C152.211 29.782 155.108 26.2947 158.243 23.0142C161.756 19.3376 165.38 15.7669 169.613 12.9064C177.032 7.8933 184.95 3.88978 193.737 1.97049C203.153 -0.0862506 212.591 -0.454115 221.873 2.83367C230.707 5.96301 237.892 11.1096 242.002 19.8174C244.248 24.5801 244.961 29.7207 244.988 34.9373C245.012 39.6464 244.804 44.3497 244.595 49.0533L244.595 49.0536V49.0538L244.595 49.054V49.0543V49.0545L244.595 49.0548L244.595 49.055V49.0552L244.595 49.0555C244.38 53.9189 244.164 58.7828 244.206 63.6542C244.215 64.774 244.217 65.8941 244.22 67.0141C244.229 72.3884 244.239 77.7614 245.086 83.097C246.333 90.9741 249.838 97.7916 254.818 103.933C256.923 106.531 259.102 109.066 261.281 111.6L261.284 111.603C262.567 113.095 263.85 114.588 265.117 116.093C269.221 120.966 273.012 126.055 275.74 131.863C280.535 142.069 279.724 152.042 274.488 161.815C271.403 167.481 267.48 172.647 262.852 177.138C261.186 178.784 259.421 180.311 257.662 181.833C257.355 182.099 257.048 182.364 256.742 182.63C254.855 184.271 252.81 185.719 250.637 186.953C249.735 187.465 248.892 188.075 248.045 188.688L248.045 188.688L248.045 188.688C247.262 189.254 246.476 189.822 245.639 190.317C239.338 194.068 232.794 197.394 226.051 200.273C222 201.987 217.846 203.4 213.686 204.779C210.359 205.882 206.964 206.79 203.52 207.564C202.68 207.753 201.839 207.949 200.998 208.145C198.995 208.611 196.987 209.079 194.969 209.455C194.17 209.603 193.35 209.6 192.524 209.597C191.759 209.594 190.99 209.591 190.227 209.708C187.074 210.243 183.886 210.545 180.689 210.611C180.369 210.611 180.048 210.64 179.88 210.985ZM213.219 6.63727L213.169 6.44684C212.76 6.42681 212.35 6.39845 211.941 6.37009C211.042 6.30787 210.143 6.24565 209.247 6.2714C208.919 6.28091 208.592 6.28955 208.264 6.29819C204.342 6.40165 200.433 6.50477 196.683 8.10272C196.204 8.3073 195.662 8.39726 195.108 8.48933C194.431 8.60174 193.735 8.71728 193.111 9.04837C192.339 9.45781 191.51 9.6855 190.674 9.91535C189.825 10.1487 188.968 10.3844 188.153 10.8147C185.661 12.1312 183.106 13.3853 180.508 14.5009C179.354 14.9965 178.326 15.6773 177.3 16.3567L177.3 16.3569L177.3 16.357C176.795 16.6915 176.29 17.0257 175.771 17.3373C174.569 18.1492 173.412 19.0268 172.306 19.9663C170.157 21.5862 168.147 23.3847 166.3 25.3429C164.449 27.3336 162.67 29.4108 160.925 31.5071C160.245 32.3238 159.578 33.1526 158.911 33.9815C157.889 35.2516 156.866 36.522 155.796 37.7493C153.704 40.1149 151.766 42.6137 149.996 45.23C149.54 45.916 148.97 46.4723 148.399 47.0291L148.399 47.0292C147.881 47.5348 147.362 48.0408 146.928 48.6447C146.188 49.7839 145.315 50.8309 144.328 51.7636C142.48 53.3703 140.515 54.8365 138.45 56.15C131.509 60.4914 123.979 63.4858 116.156 65.7684C115.785 65.8769 115.413 65.9896 115.042 66.1025L115.042 66.1025L115.042 66.1025L115.041 66.1026L115.041 66.1026L115.041 66.1026L115.041 66.1026L115.041 66.1026L115.041 66.1027C113.004 66.7212 110.956 67.3427 108.77 67.2844C107.963 67.219 107.152 67.3171 106.384 67.5727C104.966 68.1401 103.469 68.4823 101.945 68.5869C100.182 68.7281 98.4378 68.9974 96.6929 69.2669L96.6928 69.267C95.2696 69.4868 93.8456 69.7067 92.4093 69.8574C87.2331 70.4012 82.0553 70.8985 76.8606 71.1349C75.4125 71.2009 73.9752 71.3597 72.5372 71.5186L72.5372 71.5186H72.5371H72.537H72.537H72.5369L72.5368 71.5186L72.5368 71.5186H72.5367H72.5366C70.8361 71.7065 69.1347 71.8945 67.4135 71.9291C65.9614 71.9588 64.5145 72.3453 63.0701 72.7311C62.4933 72.8851 61.9169 73.0391 61.3408 73.1702C51.7948 75.3414 43.1019 79.2179 36.0814 86.2338C35.6719 86.6432 35.1835 86.8516 34.7021 87.057C34.1372 87.298 33.5822 87.5348 33.1761 88.0872C29.7926 92.6925 26.3468 97.2503 22.7093 101.663C20.2074 104.698 18.4609 108.178 16.714 111.658C15.7921 113.495 14.8702 115.332 13.8371 117.103L13.7857 117.192L13.7396 117.271L13.739 117.272C13.2301 118.15 13.2028 118.197 12.0264 118.717C11.9344 118.758 11.883 118.898 11.8334 119.034C11.815 119.084 11.7967 119.134 11.7768 119.177C11.2916 120.233 10.7766 121.275 10.2616 122.317C9.20855 124.448 8.15562 126.579 7.35819 128.824C7.23673 129.166 7.11052 129.507 6.98422 129.849C6.33877 131.595 5.69086 133.348 5.66122 135.246C5.54194 143.146 8.80561 149.476 14.7854 154.457C18.1569 157.264 22.0445 159.247 26.0199 161.049C34.1683 164.77 43.0115 166.72 51.967 166.771C55.58 166.797 59.1914 166.722 62.8032 166.646C68.2005 166.533 73.5985 166.42 79.0038 166.648C87.8112 166.953 96.4685 169.021 104.465 172.73C114.153 177.255 123.138 182.982 132.08 188.789C138.212 192.77 144.474 196.525 151.237 199.351C160.75 203.324 170.66 204.652 180.915 203.844C187.107 203.368 193.259 202.466 199.327 201.145C215.952 197.496 231.719 191.576 246.428 182.918C253.136 178.97 259.334 174.403 264.404 168.423C267.821 164.39 270.929 160.161 272.954 155.226C274.143 152.33 274.901 149.357 274.438 146.196C273.878 142.321 272.624 138.579 270.737 135.15C267.317 128.921 262.702 123.603 258.087 118.282C257.525 117.635 256.964 116.988 256.404 116.339C251.346 110.47 246.403 104.553 243.539 97.1518C241.87 92.9399 240.812 88.5099 240.398 83.9972C239.449 72.8607 240.123 61.7357 240.797 50.6157L240.797 50.6149L240.876 49.3015C240.967 47.7975 241.095 46.2953 241.223 44.7931L241.223 44.7927C241.548 40.9613 241.874 37.1302 241.587 33.2709C241.318 29.6688 240.682 26.1591 239.041 22.8968C236.068 17.1778 231.191 12.68 225.255 10.182C225.082 10.1297 224.92 10.0448 224.778 9.93205C223.446 8.60993 221.736 8.36473 220.022 8.11904L220.022 8.11892C219.852 8.09455 219.682 8.07018 219.512 8.04475C219.393 8.02692 219.266 8.01495 219.136 8.0028C218.732 7.96488 218.309 7.92523 218.09 7.70037C217.518 7.11244 216.824 7.11596 216.117 7.11954C215.544 7.12244 214.962 7.12539 214.43 6.8132C214.14 6.64365 213.638 6.68594 213.093 6.73186C212.653 6.76893 212.184 6.80836 211.777 6.74073L213.219 6.63727ZM77.772 167.919C82.7839 168.038 87.7633 168.76 92.6035 170.068C87.0519 169.004 81.4166 168.438 75.7645 168.377C70.9629 168.275 66.164 168.391 61.3651 168.506C59.0278 168.563 56.6904 168.619 54.3528 168.65C52.0684 168.721 49.7823 168.592 47.5205 168.264C48.1007 167.816 48.663 167.944 49.2094 168.069C49.4762 168.129 49.7392 168.189 49.9986 168.181C51.6682 168.128 53.3395 168.112 55.0107 168.095C56.5877 168.08 58.1646 168.065 59.7397 168.019C65.7504 167.841 71.7607 167.732 77.772 167.919ZM209.678 1.97599C215.24 2.53204 220.697 3.86672 225.888 5.94102C220.904 3.27473 215.328 1.91095 209.678 1.97599ZM112.905 59.7087C119.182 58.2492 125.206 55.8598 130.779 52.6193C124.952 55.3133 118.962 57.5959 112.905 59.7087ZM42.2703 74.1698C37.2009 76.8923 32.4569 80.0336 28.9941 84.7714C33 80.7407 37.4546 77.1836 42.2703 74.1698ZM159.218 203.718L159.218 203.718C164.506 204.79 169.795 205.861 175.244 205.71C169.219 206.207 163.158 205.408 157.467 203.365C158.046 203.48 158.624 203.597 159.202 203.715L159.218 203.718ZM201.694 1.92351C201.811 2.06769 201.891 2.17529 201.948 2.25158C202.029 2.36042 202.063 2.40556 202.09 2.40233C204.154 2.11388 206.241 2.04552 208.319 2.19841C208.408 2.2203 208.502 2.20442 208.58 2.15449C208.657 2.10457 208.71 2.025 208.727 1.9345C208.774 1.62362 208.53 1.54015 208.307 1.55164C206.644 1.63788 204.982 1.73387 203.212 1.83604L203.21 1.83617L203.207 1.83635C202.712 1.86495 202.208 1.89402 201.694 1.92351ZM131.469 59.0779C133.795 58.251 135.98 57.0694 137.946 55.5747L131.469 59.0779ZM66.8395 171.682C69.2432 172.113 70.3886 171.892 70.7989 170.763C70.1648 171.787 69.4023 171.663 68.6039 171.534C68.023 171.44 67.423 171.343 66.8395 171.682ZM62.3215 172.751L62.2906 172.921H56.9541V172.751L62.3215 172.751Z" fill="#9EAD8D"/>
</svg>
