<svg width="513" height="520" viewBox="0 0 513 520" fill="none" xmlns="http://www.w3.org/2000/svg">
<path fill-rule="evenodd" clip-rule="evenodd" d="M296.722 518.051C325.866 518.276 355.001 516.957 384.006 514.1L384.079 514.998C382.273 515.17 380.467 515.337 378.661 515.505L378.587 515.512L378.574 515.513C374.439 515.897 370.303 516.281 366.169 516.709C348.389 518.567 330.538 519.026 312.689 519.485H312.688L310.738 519.536C297.087 519.83 283.45 518.48 270.123 515.516C257.583 512.797 244.844 511.519 232.103 510.241H232.102L232.101 510.241L232.097 510.24L232.093 510.24L232.088 510.239L232.084 510.239L232.079 510.239L232.075 510.238L232.071 510.238L232.066 510.237L232.062 510.237L232.057 510.236L232.053 510.236L232.049 510.235L232.044 510.235L232.04 510.234L232.035 510.234L232.032 510.234C228.621 509.892 225.21 509.55 221.802 509.179C190.767 505.809 159.985 500.937 129.863 492.537C129.191 492.35 128.49 492.184 127.786 492.018C126.004 491.598 124.206 491.173 122.834 490.379C120.904 489.261 118.852 488.406 116.799 487.55C113.805 486.303 110.808 485.054 108.178 482.985C107.102 482.139 105.812 481.61 104.496 481.071L104.495 481.071C102.923 480.427 101.313 479.767 99.983 478.533C94.8955 473.822 88.8712 470.565 82.8382 467.304L82.8377 467.304C81.0044 466.312 79.1703 465.321 77.3615 464.288C65.3904 457.452 53.2005 450.47 44.5093 439.595C28.9028 420.067 15.0928 399.228 7.33267 375.211C-0.698201 350.357 -1.69078 325.251 5.82193 299.815C6.3569 298.003 6.87092 296.187 7.38417 294.374L7.38432 294.374L7.385 294.371C9.9735 285.227 12.5425 276.151 17.6809 267.961C20.9635 262.949 24.5768 258.161 28.4968 253.629C29.9752 251.85 31.3682 250.008 32.7614 248.166L32.7615 248.166C35.6909 244.292 38.6213 240.417 42.3478 237.127C49.9562 230.407 57.5769 223.788 65.8169 217.805C74.4712 211.526 77.5406 201.963 79.508 191.825C80.3659 187.406 81.0511 182.957 81.7364 178.508L81.7365 178.507C82.994 170.343 84.2516 162.178 86.5763 154.199C96.6197 119.731 116.501 92.6521 146.102 72.1618C156.852 64.7198 168.064 58.1058 179.274 51.4924C183.646 48.9134 188.017 46.3345 192.361 43.7066C199.313 39.5012 206.428 35.554 213.54 31.6082L213.54 31.6081L213.54 31.6079L213.54 31.6078C221.299 27.3031 229.056 23 236.594 18.3651C269.242 -1.7007 304.335 -1.94504 340.329 3.8522C356.308 6.42662 371.449 12.0587 386.432 18.1508C388.966 19.1808 391.506 20.1942 394.046 21.2074C407.908 26.7381 421.748 32.26 434.407 40.4292C461.341 57.8155 482.508 80.1144 495.075 110.001C501.127 124.393 507.162 138.795 510.114 154.188C513.178 169.245 513.534 184.725 511.165 199.906C509.597 209.46 507.366 218.865 505.135 228.27L505.135 228.27L505.135 228.27L505.135 228.271L505.135 228.271L505.135 228.272L505.135 228.272L505.135 228.272L505.135 228.273L505.135 228.273L505.134 228.273L505.134 228.274L505.134 228.274L505.134 228.275L505.134 228.275L505.134 228.275L505.134 228.276L505.134 228.276L505.134 228.276L505.134 228.277L505.134 228.277L505.133 228.277L505.133 228.278L505.133 228.278L505.133 228.279L505.133 228.279C503.03 237.145 500.927 246.01 499.381 254.996C498.793 258.54 498.519 262.129 498.561 265.721C498.579 269.243 498.416 272.767 498.252 276.289C497.975 282.257 497.698 288.222 498.305 294.174C498.877 299.769 499.603 305.348 500.329 310.927L500.329 310.928L500.329 310.929L500.329 310.929L500.329 310.93L500.329 310.931L500.329 310.932L500.329 310.932L500.329 310.933L500.33 310.934L500.33 310.934L500.33 310.935L500.33 310.936L500.33 310.937L500.33 310.937L500.33 310.938L500.33 310.939L500.33 310.94L500.33 310.94L500.33 310.941L500.331 310.942L500.331 310.943L500.331 310.943L500.331 310.944L500.331 310.945L500.331 310.945C501.09 316.778 501.848 322.611 502.432 328.46C504.065 345.962 503.852 363.586 501.796 381.042C499.951 397.488 496.732 413.75 492.174 429.66C489.536 439.179 485.744 448.341 480.882 456.943C480.307 457.942 479.813 459.031 479.312 460.132L479.312 460.134L479.311 460.134L479.311 460.135L479.311 460.135L479.311 460.136L479.311 460.136L479.31 460.136L479.31 460.137L479.31 460.137L479.31 460.137L479.31 460.138L479.31 460.138L479.309 460.138L479.309 460.139L479.309 460.139L479.309 460.14L479.309 460.14L479.308 460.14L479.308 460.141L479.308 460.141L479.308 460.141C477.795 463.47 476.231 466.915 472.258 468.376C464.915 480.58 453.223 487.246 441.536 493.909C438.997 495.357 436.457 496.805 433.963 498.31C429.937 500.737 425.625 502.568 421.317 504.397L421.316 504.397L421.316 504.398L421.315 504.398L421.314 504.398L421.313 504.399L421.312 504.399L421.311 504.4L421.31 504.4L421.309 504.4L421.308 504.401L421.307 504.401C419.064 505.354 416.821 506.306 414.621 507.342C411.068 509.014 407.414 509.485 403.778 509.954C402.056 510.177 400.339 510.398 398.637 510.746C386.218 513.298 373.569 514.241 360.931 515.183C358.87 515.337 356.81 515.49 354.751 515.651C335.462 517.159 316.119 517.63 296.722 518.051ZM120.265 355.097L120.268 355.096C131.773 347.82 143.393 340.471 154.117 330.7C137.693 338.273 113.645 355.073 110.953 361.046C114.035 359.038 117.145 357.071 120.264 355.098L120.265 355.097ZM166.778 298.515L167.975 300.016C165.512 302.007 163.078 304.034 160.644 306.061C152.151 313.133 143.656 320.208 133.949 325.737C143.989 315.621 155.309 307.124 166.631 298.625L166.778 298.515ZM153.982 163.18C158.124 158.202 162.695 153.617 167.262 149.036C173.031 143.248 178.794 137.466 183.685 130.903C171.941 139.813 161.882 150.743 153.982 163.18ZM84.8427 252C83.8584 258.465 71.2994 274.232 65.9755 275.627C68.1878 272.915 70.2553 270.085 72.3414 267.23C76.1225 262.054 79.9651 256.795 84.8427 252ZM282.508 232.856C274.201 235.07 254.663 247.284 250.822 252.681L282.508 232.856ZM443.946 64.3826C450.219 72.0126 457.396 78.8549 465.319 84.7596C459.361 76.8438 452.141 69.9596 443.946 64.3826ZM188.477 98.8971C187.353 99.7599 186.218 100.611 185.083 101.462C177.883 106.862 170.683 112.261 166.348 120.601C170.739 116.169 175.214 111.823 179.691 107.477L179.691 107.476L179.691 107.476L179.692 107.476L179.692 107.475L179.692 107.475L179.692 107.475L179.693 107.474L179.693 107.474L179.693 107.474L179.694 107.473L179.694 107.473L179.694 107.473L179.695 107.472L179.695 107.472L179.695 107.472L179.696 107.471L179.696 107.471L179.696 107.471L179.697 107.47L179.7 107.467C182.633 104.619 185.567 101.771 188.477 98.8971ZM138.973 312.082C137.544 313.155 136.115 314.228 134.695 315.31C142.02 307.363 150.661 300.962 159.46 294.751C153.304 301.322 146.139 306.702 138.973 312.082ZM246.412 18.6435C251.873 16.0383 257.507 13.8116 263.275 11.9795C267.219 10.751 271.225 9.71952 275.232 8.68812L275.232 8.68799C276.981 8.23769 278.73 7.78739 280.474 7.32071C267.665 8.04417 252.343 13.1862 246.412 18.6435ZM220.322 99.338C222.456 95.0723 239.245 84.1358 248.372 81.0576C246.47 82.3333 244.524 83.5583 242.574 84.7863C239.825 86.5173 237.065 88.2545 234.404 90.1487C231.339 92.3333 228.154 94.3522 224.837 96.4544C223.358 97.3917 221.854 98.3455 220.322 99.338ZM145.458 357.778L145.982 358.631C151.876 356.759 156.663 353.086 161.45 349.412C162.273 348.781 163.095 348.15 163.922 347.528L163.418 346.709L145.458 357.778ZM313.055 228.204L335.282 214.667C328.712 220.395 321.401 225.217 313.546 229.002L313.394 228.754L313.273 228.558C313.201 228.44 313.128 228.322 313.055 228.204ZM324.023 239.18C328.367 238.661 341.796 230.008 344.568 226.459L324.023 239.18ZM150.674 290.685L151.38 291.597L135.427 304.63C139.819 299.174 145.206 294.891 150.674 290.685ZM109.985 241.401L109.983 241.404L109.985 241.398V241.401ZM98.8564 257.119C103.824 252.893 107.649 247.489 109.983 241.404L98.8564 257.119ZM39.612 274.999L31.5196 292.888V292.885C32.8269 286.389 35.5939 280.273 39.612 274.999ZM349.712 129.768L349.283 128.725L334.451 134.876L334.817 135.763C336.874 134.705 339.087 134.023 341.299 133.341C344.223 132.44 347.146 131.54 349.712 129.77V129.768ZM336.743 254.593L336.741 254.594V254.595L336.743 254.593ZM348.739 247.934C345.364 251.124 341.238 253.414 336.743 254.593C337.289 254.196 337.832 253.79 338.375 253.382C341.503 251.038 344.663 248.669 348.739 247.934ZM41.321 254.27C38.1201 256.2 35.5235 258.985 33.8247 262.31C33.7735 262.401 33.7132 262.492 33.6526 262.584C33.3745 263.005 33.0891 263.437 33.6401 263.899C34.3114 264.462 34.8118 263.936 35.144 263.44C36.764 261.076 38.3584 258.695 39.9522 256.315L39.9529 256.314L39.955 256.31C40.4102 255.631 40.8653 254.951 41.321 254.272V254.27ZM153.559 107.41L153.558 107.412V107.413L153.559 107.41ZM153.559 107.41C153.908 107.085 154.257 106.761 154.606 106.438C157.638 103.628 160.649 100.838 162.73 97.2468C158.401 99.5162 155.912 103.435 153.559 107.41ZM50.0847 276.063C46.3933 279.664 43.3855 285.628 43.3239 288.782L50.0847 276.063ZM414.567 484.479L414.577 484.477H414.572L414.567 484.479ZM414.567 484.479L400.622 488.002C405.502 488.087 410.316 486.871 414.567 484.479ZM135.838 338.78C139.931 336.9 143.712 334.404 147.048 331.379C142.986 333.314 139.212 335.805 135.838 338.78ZM498.422 155.99C498.561 155.135 498.699 154.292 498.602 153.475L498.609 153.49C499.705 155.886 500.803 158.289 499.545 161.265C497.842 159.542 498.136 157.742 498.422 155.99ZM291.485 193.651C295.065 192.425 298.389 190.551 301.289 188.123C297.718 189.368 294.398 191.241 291.485 193.651ZM301.272 515.162V514.977H312.559V515.162H301.272Z" fill="#F9BF77"/>
</svg>
