<svg width="512" height="519" viewBox="0 0 512 519" fill="none" xmlns="http://www.w3.org/2000/svg">
<path fill-rule="evenodd" clip-rule="evenodd" d="M296.011 517.475C325.155 517.701 354.291 516.382 383.295 513.525L383.369 514.423C381.563 514.595 379.756 514.762 377.95 514.93L377.876 514.937L377.863 514.938C373.728 515.322 369.593 515.705 365.458 516.134C347.678 517.992 329.827 518.451 311.978 518.91L311.977 518.91L310.027 518.96C296.376 519.255 282.739 517.905 269.412 514.94C256.873 512.221 244.133 510.944 231.392 509.666H231.392L231.391 509.666L231.386 509.665L231.382 509.665L231.377 509.664L231.373 509.664L231.369 509.663L231.364 509.663L231.36 509.662L231.355 509.662L231.351 509.661L231.347 509.661L231.342 509.661L231.338 509.66L231.333 509.66L231.329 509.659L231.325 509.659L231.321 509.658C227.91 509.316 224.499 508.974 221.091 508.604C190.056 505.234 159.274 500.362 129.152 491.962C128.481 491.774 127.779 491.609 127.076 491.443C125.294 491.022 123.496 490.598 122.123 489.804C120.193 488.686 118.141 487.831 116.088 486.975C113.094 485.727 110.097 484.478 107.467 482.409C106.391 481.564 105.102 481.035 103.785 480.496L103.784 480.496C102.213 479.852 100.602 479.192 99.2722 477.958C94.1847 473.247 88.1604 469.99 82.1274 466.729L82.1268 466.728C80.2936 465.737 78.4595 464.746 76.6507 463.713C64.6796 456.877 52.4897 449.895 43.7985 439.02C28.192 419.492 14.382 398.653 6.62185 374.636C-1.40902 349.781 -2.4016 324.676 5.11111 299.24C5.64609 297.428 6.16011 295.612 6.67335 293.799L6.6735 293.799L6.67418 293.796C9.26268 284.652 11.8317 275.576 16.9701 267.386C20.2527 262.374 23.8659 257.586 27.7859 253.054C29.2643 251.275 30.6574 249.433 32.0506 247.591L32.0507 247.59C34.9801 243.717 37.9104 239.842 41.6369 236.552C49.2454 229.832 56.8661 223.213 65.1061 217.23C73.7604 210.951 76.8298 201.388 78.7971 191.25C79.655 186.831 80.3403 182.382 81.0256 177.933L81.0257 177.932C82.2832 169.768 83.5408 161.602 85.8655 153.624C95.9089 119.156 115.791 92.0769 145.392 71.5866C156.142 64.1446 167.353 57.5306 178.563 50.9172C182.935 48.3382 187.306 45.7593 191.65 43.1314C198.602 38.926 205.717 34.9788 212.829 31.033L212.829 31.0329L212.829 31.0327L212.83 31.0326C220.589 26.7279 228.345 22.4248 235.883 17.7899C268.532 -2.27589 303.625 -2.52023 339.619 3.277C355.597 5.85143 370.739 11.4835 385.722 17.5756C388.255 18.6056 390.795 19.619 393.335 20.6322C407.197 26.1629 421.038 31.6848 433.696 39.854C460.63 57.2403 481.797 79.5392 494.364 109.426C500.417 123.818 506.451 138.22 509.403 153.613C512.467 168.669 512.823 184.15 510.454 199.331C508.886 208.884 506.655 218.29 504.425 227.695L504.424 227.695L504.424 227.695L504.424 227.696L504.424 227.696L504.424 227.696L504.424 227.697L504.424 227.697L504.424 227.697L504.424 227.698L504.424 227.698L504.424 227.699L504.423 227.699L504.423 227.699L504.423 227.7L504.423 227.7L504.423 227.7L504.423 227.701L504.423 227.701L504.423 227.702L504.423 227.702L504.423 227.702L504.423 227.703L504.422 227.703L504.422 227.703L504.422 227.704C502.319 236.57 500.217 245.435 498.671 254.421C498.082 257.965 497.808 261.554 497.85 265.146C497.869 268.668 497.705 272.192 497.541 275.714C497.264 281.682 496.987 287.647 497.595 293.599C498.166 299.193 498.892 304.773 499.618 310.352L499.618 310.353L499.618 310.353L499.618 310.354L499.618 310.355L499.618 310.356L499.618 310.356L499.619 310.357L499.619 310.358L499.619 310.359L499.619 310.359L499.619 310.36L499.619 310.361L499.619 310.361L499.619 310.362L499.619 310.363L499.619 310.364L499.619 310.364L499.62 310.365L499.62 310.366L499.62 310.367L499.62 310.367L499.62 310.368L499.62 310.369L499.62 310.37L499.62 310.37C500.379 316.203 501.138 322.036 501.721 327.885C503.354 345.386 503.141 363.01 501.085 380.467C499.24 396.912 496.021 413.175 491.463 429.085C488.826 438.604 485.034 447.766 480.171 456.368C479.596 457.367 479.102 458.456 478.602 459.557L478.601 459.559L478.601 459.559L478.6 459.56L478.6 459.56L478.6 459.56L478.6 459.561L478.6 459.561L478.599 459.561L478.599 459.562L478.599 459.562L478.599 459.563L478.599 459.563L478.599 459.563L478.598 459.564L478.598 459.564L478.598 459.564L478.598 459.565L478.598 459.565L478.597 459.565L478.597 459.566L478.597 459.566C477.085 462.895 475.52 466.339 471.547 467.801C464.204 480.004 452.512 486.671 440.825 493.334C438.286 494.782 435.746 496.23 433.252 497.734C429.227 500.162 424.914 501.993 420.607 503.822L420.606 503.822L420.605 503.823L420.604 503.823L420.603 503.823L420.602 503.824L420.601 503.824L420.6 503.824L420.599 503.825L420.598 503.825L420.597 503.825L420.596 503.826C418.353 504.779 416.11 505.731 413.91 506.767C410.357 508.439 406.704 508.91 403.067 509.379C401.346 509.601 399.628 509.823 397.927 510.171C385.507 512.723 372.859 513.666 360.22 514.608C358.159 514.761 356.099 514.915 354.04 515.076C334.751 516.584 315.408 517.055 296.011 517.475ZM119.554 354.522L119.557 354.521C131.062 347.245 142.682 339.896 153.406 330.125C136.982 337.698 112.935 354.498 110.243 360.471C113.324 358.463 116.434 356.496 119.553 354.523L119.554 354.522ZM166.068 297.939L167.264 299.441C164.801 301.431 162.367 303.459 159.933 305.486C151.441 312.558 142.945 319.633 133.239 325.162C143.278 315.046 154.599 306.548 165.921 298.05L166.068 297.939ZM153.271 162.605C157.414 157.626 161.984 153.042 166.551 148.46C172.32 142.673 178.084 136.891 182.974 130.327C171.23 139.238 161.171 150.168 153.271 162.605ZM84.1319 251.425C83.1475 257.89 70.5885 273.657 65.2647 275.052C67.477 272.34 69.5444 269.51 71.6306 266.655C75.4117 261.479 79.2543 256.219 84.1319 251.425ZM281.797 232.281C273.49 234.495 253.952 246.709 250.111 252.106L281.797 232.281ZM443.235 63.8074C449.508 71.4374 456.685 78.2797 464.608 84.1844C458.651 76.2686 451.43 69.3845 443.235 63.8074ZM187.766 98.3219C186.642 99.1847 185.507 100.036 184.372 100.887C177.172 106.286 169.972 111.686 165.637 120.026C170.028 115.593 174.504 111.248 178.98 106.901L178.98 106.901L178.98 106.901L178.981 106.9L178.981 106.9L178.981 106.9L178.982 106.899L178.982 106.899L178.982 106.899L178.983 106.898L178.983 106.898L178.983 106.898L178.984 106.898L178.984 106.897L178.984 106.897L178.985 106.897L178.985 106.896L178.985 106.896L178.986 106.896L178.986 106.895L178.989 106.892C181.922 104.044 184.856 101.195 187.766 98.3219ZM138.262 311.507C136.833 312.58 135.405 313.652 133.984 314.735C141.309 306.788 149.95 300.387 158.749 294.176C152.594 300.746 145.428 306.127 138.262 311.507ZM245.701 18.0683C251.162 15.4631 256.796 13.2364 262.564 11.4043C266.508 10.1758 270.515 9.14433 274.521 8.11293L274.521 8.11279C276.27 7.66249 278.019 7.2122 279.763 6.74551C266.954 7.46897 251.632 12.611 245.701 18.0683ZM219.611 98.7628C221.745 94.4971 238.534 83.5606 247.661 80.4824C245.759 81.7581 243.814 82.9831 241.863 84.2111C239.114 85.9421 236.355 87.6793 233.693 89.5735C230.628 91.7581 227.443 93.777 224.126 95.8792C222.648 96.8165 221.143 97.7703 219.611 98.7628ZM144.748 357.203L145.271 358.056C151.165 356.184 155.952 352.51 160.74 348.837C161.562 348.206 162.384 347.575 163.212 346.953L162.707 346.134L144.748 357.203ZM312.345 227.629L334.571 214.092C328.001 219.82 320.691 224.642 312.835 228.427L312.683 228.178L312.563 227.983C312.49 227.865 312.417 227.747 312.345 227.629ZM323.312 238.605C327.656 238.086 341.086 229.433 343.857 225.884L323.312 238.605ZM149.963 290.11L150.669 291.022L134.717 304.055C139.108 298.599 144.495 294.315 149.963 290.11ZM109.275 240.826L109.272 240.829L109.275 240.823V240.826ZM98.1456 256.544C103.113 252.317 106.939 246.914 109.272 240.829L98.1456 256.544ZM38.9012 274.424L30.8088 292.313L30.8088 292.31C32.1161 285.814 34.883 279.698 38.9012 274.424ZM349.002 129.193L348.572 128.15L333.74 134.301L334.106 135.188C336.163 134.13 338.376 133.448 340.588 132.766C343.512 131.865 346.435 130.964 349.002 129.194V129.193ZM336.033 254.018L336.03 254.019L336.03 254.02L336.033 254.018ZM348.028 247.359C344.653 250.549 340.528 252.839 336.033 254.018C336.579 253.621 337.121 253.214 337.664 252.807C340.792 250.463 343.952 248.094 348.028 247.359ZM40.6102 253.695C37.4093 255.625 34.8127 258.409 33.1139 261.735C33.0627 261.826 33.0024 261.917 32.9417 262.009C32.6637 262.43 32.3783 262.862 32.9293 263.324C33.6006 263.886 34.101 263.361 34.4332 262.865C36.0532 260.501 37.6476 258.12 39.2414 255.739L39.242 255.738L39.2442 255.735C39.6994 255.055 40.1545 254.376 40.6102 253.696L40.6102 253.695ZM152.849 106.835L152.847 106.837L152.847 106.838L152.849 106.835ZM152.849 106.835C153.197 106.51 153.546 106.186 153.895 105.863C156.928 103.052 159.938 100.262 162.019 96.6716C157.691 98.941 155.201 102.86 152.849 106.835ZM49.3739 275.488C45.6825 279.089 42.6746 285.052 42.6131 288.207L49.3739 275.488ZM413.857 483.904L413.867 483.901H413.861L413.857 483.904ZM413.857 483.904L399.912 487.427C404.791 487.512 409.605 486.295 413.857 483.904ZM135.127 338.205C139.221 336.324 143.002 333.828 146.338 330.804C142.275 332.739 138.501 335.23 135.127 338.205ZM497.711 155.415C497.85 154.56 497.988 153.717 497.891 152.899L497.898 152.915C498.994 155.311 500.092 157.713 498.835 160.69C497.131 158.966 497.425 157.167 497.711 155.415ZM290.774 193.076C294.355 191.849 297.678 189.975 300.579 187.548C297.007 188.793 293.687 190.665 290.774 193.076ZM300.561 514.587V514.401H311.848V514.587L300.561 514.587Z" fill="#FBB65F"/>
</svg>
