<svg width="155" height="135" viewBox="0 0 155 135" fill="none" xmlns="http://www.w3.org/2000/svg">
<path fill-rule="evenodd" clip-rule="evenodd" d="M2.43393 1.98358C2.3628 2.08282 2.28864 2.18629 2.20928 2.29513C1.24004 1.84346 0.98136 1.86483 0.505564 2.60597L0.474922 2.65358C0.245105 3.01026 0.000948953 3.38918 0.0722335 3.89357C0.106988 4.13821 0.0969863 4.38884 0.0869714 4.63981C0.0774241 4.87906 0.0678644 5.11862 0.097055 5.3536C0.218172 6.32253 0.45921 7.25446 1.21642 7.95889C1.4598 8.18505 1.69198 8.42332 1.9325 8.67013L1.93251 8.67014C2.04368 8.78422 2.15662 8.90012 2.27328 9.0175H2.67281C2.72101 9.0175 2.76923 9.01703 2.81747 9.01656L2.81751 9.01656L2.81754 9.01656H2.81757H2.81761H2.81764L2.81767 9.01656L2.8177 9.01656L2.81774 9.01656L2.81777 9.01656H2.8178H2.81784H2.81787L2.8179 9.01656L2.81793 9.01656L2.81797 9.01656L2.818 9.01656H2.81803H2.81807H2.8181L2.81813 9.01656L2.81816 9.01656L2.8182 9.01656L2.81824 9.01656H2.81828L2.81832 9.01656L2.81836 9.01656H2.8184L2.81844 9.01656L2.81848 9.01656L2.81852 9.01656H2.81856L2.81861 9.01656L2.81865 9.01656H2.81869L2.81873 9.01656L2.81877 9.01656L2.81881 9.01656H2.81885L2.81889 9.01656L2.81893 9.01656H2.81897L2.81901 9.01656L2.81905 9.01656L2.81909 9.01656C2.91579 9.01562 3.01253 9.01469 3.10913 9.0175C3.86413 9.0393 3.86488 9.04154 4.16559 9.94264L4.17257 9.96356C4.20066 10.048 4.25242 10.1317 4.30321 10.2138C4.38005 10.3381 4.45468 10.4588 4.44172 10.5729C4.36427 11.2497 4.75453 11.5918 5.23302 11.9135L5.47557 11.1184L5.7453 10.2341L5.95942 10.2768V11.9017C6.96545 12.1321 7.06432 11.4672 7.15656 10.8469C7.16229 10.8084 7.16799 10.7701 7.17388 10.7321C7.77917 11.0056 8.24719 11.0508 8.53937 10.4537C8.77441 9.9736 8.97478 10.18 9.17909 10.3905C9.20718 10.4194 9.23534 10.4484 9.26368 10.4757C9.85395 9.57719 10.1196 8.50192 10.0161 7.42989C9.96872 6.59522 9.97855 5.75753 9.98838 4.91968L9.98838 4.91964V4.91957L9.98838 4.91949L9.98838 4.91942V4.91934V4.91926L9.98838 4.91919L9.98838 4.91911V4.91904L9.98838 4.91896L9.98838 4.91889L9.98838 4.91881V4.91873L9.98838 4.91866L9.98838 4.91858V4.91851V4.91843V4.91835V4.91828L9.98838 4.9182V4.91813L9.98838 4.91805L9.98838 4.91798C9.99344 4.48715 9.99851 4.05628 9.99576 3.62576C9.98265 3.37475 9.9569 3.12458 9.91861 2.87619L9.76908 2.88281L9.62822 4.29288C9.46498 3.93315 9.39119 3.53884 9.4132 3.144C9.40531 2.76658 9.36852 2.39033 9.30315 2.01859C9.20836 1.68201 9.09055 1.35243 8.95057 1.03221L8.717 1.70956C8.22009 0.803189 8.21878 0.803506 7.29899 1.02743L7.29171 1.0292C7.16581 1.05959 6.96395 1.10473 6.90952 1.04454C6.61286 0.710532 6.4098 0.785158 6.06918 1.03191C5.98951 1.08952 5.83706 1.02372 5.66912 0.951241C5.51428 0.884412 5.34628 0.811899 5.20999 0.825179C4.85422 0.878908 4.5146 1.01093 4.21534 1.21185C4.0159 1.33551 3.85393 1.24713 3.69617 1.16105C3.55066 1.08165 3.40874 1.00421 3.24431 1.0969C3.11938 1.15721 3.00655 1.24014 2.91146 1.34154C2.7505 1.54189 2.60055 1.7511 2.43393 1.98358ZM29.9596 15.4069C29.7909 15.4603 29.5699 15.349 29.1362 15.1305C29.0519 15.2543 28.94 15.3542 28.8269 15.4552C28.5861 15.6702 28.3404 15.8895 28.3481 16.3528C28.3487 16.9617 28.5769 17.548 28.9872 17.9955C29.0329 18.0476 29.078 18.1041 29.1235 18.1612C29.2694 18.344 29.4199 18.5326 29.6084 18.6C30.1608 18.7979 30.5222 19.2042 30.8829 19.6096C31.0581 19.8066 31.2332 20.0034 31.4299 20.1759C32.1267 20.788 32.3639 21.6765 32.4258 22.5284C32.5763 24.5965 33.6629 26.216 34.7486 27.8343L34.8364 27.9653C35.1884 28.4888 35.7843 28.5826 36.3894 28.6777C36.4927 28.6939 36.5963 28.7102 36.6989 28.7287L36.7493 28.7378C37.8632 28.9382 38.1249 28.9853 38.5495 28.1738L38.5959 28.0846C38.8606 27.5735 39.033 27.2406 39.639 27.7757C39.6839 27.8166 39.8817 27.6978 40.0348 27.6057C40.0618 27.5895 40.0874 27.5741 40.1106 27.5606C40.1728 27.524 40.2469 27.4619 40.3149 27.4049C40.4064 27.3283 40.4866 27.261 40.5113 27.2783C41.1073 27.7076 41.1532 27.1427 41.1761 26.8599L41.1773 26.8456C41.1851 26.75 41.1938 26.6535 41.2025 26.5565L41.2025 26.5563L41.2025 26.5562C41.2599 25.9162 41.3194 25.2539 41.1579 24.6634C41.1009 24.4559 41.0639 24.2379 41.0267 24.0188L41.0267 24.0187L41.0267 24.0186L41.0266 24.0186L41.0266 24.0185L41.0266 24.0184L41.0266 24.0184L41.0266 24.0183L41.0266 24.0183L41.0266 24.0182L41.0266 24.0181L41.0266 24.0181L41.0265 24.018L41.0265 24.0179L41.0265 24.0179L41.0265 24.0178L41.0265 24.0177L41.0265 24.0177L41.0265 24.0176L41.0265 24.0176L41.0265 24.0175L41.0264 24.0174L41.0264 24.0174L41.0264 24.0173L41.0264 24.0172C40.933 23.4674 40.8384 22.9105 40.4273 22.4929C40.1343 22.2429 39.9814 21.8645 40.0179 21.4797C40.0004 21.2989 39.9317 21.1269 39.8199 20.9841C39.7574 20.8818 39.6953 20.7792 39.6332 20.6765C39.364 20.2313 39.0946 19.7856 38.7893 19.3667C38.5842 19.0855 38.3597 18.8186 38.1353 18.5518C37.9058 18.279 37.6764 18.0063 37.4678 17.7184C37.173 17.3117 36.8428 16.9313 36.5169 16.5559L36.5168 16.5558L36.5163 16.5551C36.4517 16.4807 36.3873 16.4065 36.3233 16.3324C36.2499 16.2472 36.1773 16.1599 36.1044 16.0723L36.1044 16.0722C35.6115 15.4799 35.103 14.8688 34.2249 14.7475C33.6017 14.6305 32.9852 14.4799 32.3782 14.2961C32.0453 14.636 31.6442 14.6134 31.2449 14.5909C30.9884 14.5764 30.7325 14.562 30.496 14.6436C30.2536 15.1184 30.1347 15.3514 29.9596 15.4069ZM137.706 111.031C137.905 109.755 138.372 108.618 139.366 107.836C139.339 107.612 139.31 107.408 139.284 107.216L139.284 107.215L139.283 107.213L139.283 107.213C139.231 106.832 139.185 106.501 139.169 106.17C139.139 105.518 138.962 104.855 138.337 104.693C137.592 104.499 137.148 104.209 137.114 103.411C137.098 103.319 137.042 103.24 136.96 103.196C136.236 102.879 135.735 102.312 135.234 101.745L135.234 101.745C134.972 101.45 134.711 101.154 134.418 100.895L134.303 100.792C133.649 100.208 133.614 100.177 132.445 100.26C132.21 100.276 131.976 100.311 131.707 100.351L131.549 100.374C131.463 100.387 131.373 100.4 131.278 100.412C130.764 99.8172 130.288 99.1899 129.852 98.5342C129.741 98.3471 129.593 98.1793 129.446 98.0112C129.135 97.6573 128.823 97.3021 128.839 96.7636C128.4 96.7049 128.149 96.3935 127.923 96.111C127.775 95.9271 127.637 95.7554 127.463 95.6737L125.984 95.9695V96.782C125.812 96.6333 125.712 96.5463 125.667 96.5069L125.117 96.868C126.127 99.055 127.341 101.141 128.743 103.097C128.973 103.386 129.009 103.786 128.834 104.113C128.623 103.802 128.413 103.501 128.207 103.206C127.752 102.558 127.317 101.935 126.936 101.281C126.449 100.442 126.007 99.5766 125.565 98.7092L125.565 98.7089L125.565 98.7082L125.565 98.7075L125.564 98.7069L125.564 98.7062C125.373 98.3324 125.183 97.9583 124.988 97.586C124.204 98.1441 124.205 98.1466 124.508 98.8447L124.522 98.876C125.404 100.909 126.566 102.788 127.725 104.661L127.725 104.661C127.901 104.947 128.078 105.232 128.253 105.517C129.553 107.635 130.943 109.71 132.838 111.389C133.208 111.716 133.619 111.942 134.029 112.168L134.029 112.168C134.216 112.27 134.402 112.373 134.584 112.485C134.83 112.594 135.114 112.57 135.339 112.422C135.608 112.146 135.906 112.082 136.226 112.013L136.289 111.999C136.35 111.986 136.413 111.972 136.476 111.955C136.516 111.945 136.557 111.935 136.598 111.925C137.059 111.811 137.605 111.677 137.706 111.031ZM123.62 70.6809C123.389 70.4485 123.17 70.2176 122.956 69.9918C122.5 69.5121 122.067 69.0551 121.587 68.6543C119.947 67.2855 119.004 65.4572 118.062 63.6292C117.841 63.199 117.619 62.7689 117.388 62.3447C116.93 61.5016 116.968 60.5718 117.005 59.6526L117.005 59.6514C117.012 59.4801 117.019 59.3093 117.023 59.1394C117.026 59.0121 117.146 58.8872 117.27 58.7583C117.328 58.6975 117.387 58.6358 117.436 58.5725L117.45 58.602C117.651 59.0014 117.841 59.38 118.116 59.9266L118.116 57.924C118.249 57.8579 118.382 57.801 118.51 57.7461C118.79 57.6262 119.049 57.5154 119.245 57.3361C119.546 57.0847 119.959 57.0166 120.324 57.1579C120.586 57.2242 120.821 57.3968 121.068 57.5774C121.177 57.6577 121.289 57.7397 121.406 57.8145C121.183 58.8656 121.594 59.7458 122.104 60.6626C122.267 60.618 122.441 60.6314 122.619 60.6451C122.935 60.6695 123.262 60.6946 123.554 60.3918C123.722 60.2919 123.929 60.2826 124.105 60.3671C124.37 60.5275 124.649 60.67 124.928 60.8125C125.828 61.2721 126.73 61.7326 127.161 62.7934L127.19 62.8648L127.19 62.8655C127.285 63.1024 127.395 63.378 127.58 63.4789C127.709 63.5495 127.735 63.6827 127.761 63.815C127.796 63.9981 127.832 64.1794 128.139 64.1911C128.429 64.2024 128.403 64.4041 128.376 64.6093C128.362 64.7122 128.348 64.816 128.374 64.8971C128.49 65.1915 128.584 65.4939 128.656 65.8019C128.683 66.0927 128.687 66.3853 128.666 66.6767C127.593 67.6524 126.772 68.8769 126.276 70.244L123.62 70.6809ZM86.811 14.186L86.809 14.1874C86.3315 14.5164 85.8615 14.8402 85.3764 15.1383C85.3373 15.1625 85.2309 15.0767 85.0966 14.9683L85.0964 14.9682L85.0962 14.968C85.025 14.9106 84.946 14.8469 84.865 14.7899C84.7513 15.0291 84.6202 15.2596 84.4726 15.4793C84.2799 15.6986 84.076 15.9078 83.862 16.1061L83.8076 16.1627C83.4161 16.5713 83.0277 16.9766 82.4489 16.3591C82.4205 16.3289 82.356 16.3359 82.2883 16.3433C82.2462 16.3479 82.2027 16.3526 82.166 16.3486C81.9935 16.3298 81.823 16.3267 81.6535 16.3236C81.1531 16.3145 80.6612 16.3055 80.1492 15.8933C79.9304 15.7172 79.6877 15.5624 79.4421 15.4059C79.0682 15.1676 78.6877 14.925 78.3749 14.5961C77.8563 14.1154 77.4088 13.5626 77.0459 12.9543C76.5247 11.9565 76.0109 10.9701 76.1963 9.79896C76.3005 9.46402 76.4443 9.14286 76.6245 8.84237L77.5289 9.58833C77.5941 9.37086 77.6377 9.14367 77.6817 8.91407L77.6818 8.91385C77.7982 8.30732 77.9178 7.68387 78.4473 7.17772L79.3543 7.85929L79.3543 6.79045C79.6532 6.73895 79.9437 6.67124 80.2311 6.60425C80.864 6.45674 81.482 6.31269 82.1424 6.35262C82.6511 6.3621 83.1394 6.55543 83.518 6.89727C83.6711 7.04446 83.8357 7.17737 84.0006 7.31058C84.3193 7.5679 84.6395 7.82638 84.8802 8.19119C85.0467 8.44421 85.2449 8.67627 85.4449 8.91057C85.6404 9.1394 85.8376 9.37035 86.0089 9.62504C86.3643 10.1547 86.5731 10.7406 86.7816 11.3257C86.9064 11.6759 87.0311 12.0259 87.1871 12.3633C87.3244 12.6593 87.2884 13.0364 87.2527 13.4096C87.2366 13.578 87.2206 13.7456 87.2206 13.9046C87.0853 13.997 86.9511 14.0895 86.8174 14.1816L86.811 14.186ZM25.4835 45.0938L25.4835 41.9465L25.215 41.8821C25.1499 42.1078 25.0603 42.338 24.9707 42.5681L24.9706 42.5682L24.9706 42.5682C24.7672 43.0909 24.5637 43.6136 24.6467 44.0842C24.6818 44.2804 24.7076 44.4814 24.7337 44.6843L24.7337 44.6844C24.8164 45.3287 24.9015 45.9921 25.2945 46.5818C25.5263 46.9296 25.7114 47.3113 25.8964 47.6927C26.3252 48.5766 26.7532 49.4592 27.7593 49.9147C27.9307 50.6281 28.5041 50.8783 29.0546 51.1185C29.2025 51.183 29.3488 51.2468 29.4852 51.3187C30.3674 51.7839 31.3115 52.2365 32.348 51.5634C33.0377 51.1154 33.7483 50.7 34.4514 50.2889C34.7587 50.1093 35.0646 49.9304 35.3667 49.7501C35.3353 49.2877 35.3393 48.8235 35.3786 48.3617C35.5282 47.4472 35.1155 46.6718 34.631 46.0477C34.3475 45.6832 34.1954 45.2328 34.1995 44.77C33.9652 44.3247 33.6187 44.0545 33.2824 43.7922C32.9853 43.5606 32.6963 43.3352 32.4999 43.0009C32.2416 42.6784 31.8514 42.4917 31.4398 42.4936C31.2 42.507 30.9558 42.4817 30.7107 42.4562L30.7106 42.4562L30.7106 42.4562L30.7106 42.4562L30.7105 42.4562H30.7105H30.7105H30.7104H30.7104L30.7104 42.4562L30.7103 42.4562L30.7103 42.4562L30.7103 42.4562H30.7102H30.7102H30.7102H30.7101L30.7101 42.4562L30.7101 42.4562L30.71 42.4562L30.71 42.4562C30.1546 42.3987 29.5942 42.3407 29.0686 42.7295C28.9883 42.789 28.8276 42.7266 28.6546 42.6595L28.6545 42.6595C28.535 42.6132 28.4096 42.5646 28.3009 42.5523C28.2167 42.5426 28.1262 42.5894 28.0062 42.6512C27.9424 42.6841 27.8704 42.7213 27.7865 42.7566C27.826 42.4671 27.8191 42.1731 27.7659 41.8858C27.6813 41.6529 27.3995 41.2999 27.25 41.3218C26.8104 41.4096 26.3868 41.5646 25.994 41.7816C25.6953 41.9295 25.717 42.2015 25.738 42.4657C25.7442 42.5441 25.7504 42.6219 25.7482 42.6955C25.7435 42.8419 25.7414 42.9884 25.7393 43.135L25.7393 43.1351C25.73 43.7889 25.7207 44.4442 25.4835 45.0938ZM53.6903 57.8181L51.6938 55.8092C51.6649 55.2647 51.6736 54.7189 51.7199 54.1756C51.7483 53.965 52.0488 53.7543 52.2734 53.6306C52.3326 53.5979 52.4566 53.6838 52.5803 53.7694C52.6342 53.8067 52.688 53.844 52.7364 53.8714C52.7672 53.81 52.7962 53.7454 52.8254 53.6802C52.9967 53.2985 53.1762 52.8987 53.7875 53.018C53.9251 53.0568 54.0721 53.0426 54.1999 52.9783C54.557 52.6885 54.9449 52.3918 55.4009 52.5197C55.5566 52.5632 55.7156 52.6033 55.8755 52.6436C56.5553 52.8151 57.2502 52.9903 57.7662 53.4498C59.0258 54.5722 60.2229 55.7918 60.85 57.4128C61.2418 58.3752 61.5403 59.3735 61.7415 60.3936C61.8443 60.9291 61.6331 61.4765 61.1981 61.8019C60.8787 62.0269 60.564 62.2588 60.2493 62.4907L60.2492 62.4908L60.2489 62.491L60.2488 62.491L60.2486 62.4912L60.2485 62.4913L60.2483 62.4915L60.2481 62.4915L60.2479 62.4917L60.2478 62.4918L60.2476 62.4919L60.2475 62.492L60.2472 62.4922L60.2471 62.4923L60.2469 62.4924L60.2468 62.4925L60.2465 62.4927L60.2464 62.4928L60.2462 62.4929L60.2461 62.493C59.7457 62.8618 59.2455 63.2304 58.7267 63.5706C58.4213 63.7724 58.0612 63.8737 57.6962 63.8607C55.5777 63.6763 54.068 62.6733 53.4424 60.2657C53.4126 60.151 53.3691 60.0348 53.3257 59.9189C53.2364 59.6802 53.1474 59.4426 53.1793 59.2219C53.2985 58.7367 53.4698 58.266 53.6903 57.8181ZM57.1519 109.93L57.3247 110.812C57.5311 110.344 57.6074 109.946 57.2584 109.492C57.0356 109.201 56.8847 108.868 56.7327 108.531L56.7326 108.531C56.5277 108.078 56.3205 107.62 55.9324 107.257C55.6756 107.052 55.4435 106.817 55.2409 106.557C54.202 104.836 52.6137 103.864 50.8589 103.088L50.8186 103.07L50.7903 103.057C50.5889 102.966 50.3199 102.844 50.2309 102.917C49.9465 103.15 49.7148 103.062 49.4692 102.968C49.4104 102.946 49.3509 102.923 49.2897 102.905C49.1121 102.851 48.8262 102.812 48.7254 102.909C48.385 103.238 47.9734 103.402 47.5585 103.567L47.5584 103.567C47.4688 103.602 47.3791 103.638 47.29 103.675C47.179 103.722 46.9709 103.826 47.1656 104.09C47.2608 104.22 47.2832 104.403 47.3088 104.613C47.3212 104.714 47.3344 104.822 47.357 104.932C46.6434 104.574 46.0531 104.417 45.6473 105.012C45.7215 105.205 45.7827 105.4 45.8426 105.59L45.8427 105.59L45.8427 105.59L45.8427 105.591L45.8427 105.591L45.8427 105.591L45.8428 105.591L45.8428 105.591L45.8428 105.591L45.8428 105.591L45.8429 105.591L45.8429 105.591L45.8429 105.591L45.8429 105.591L45.8429 105.591L45.843 105.591L45.843 105.591L45.843 105.591L45.843 105.592C45.9712 105.999 46.093 106.386 46.3204 106.693C46.5394 106.989 46.7213 107.315 46.9033 107.641C47.2925 108.338 47.6823 109.036 48.4362 109.446C49.2824 110.994 50.7143 111.83 52.1517 112.669L52.1517 112.669L52.1526 112.669C52.2735 112.74 52.3944 112.81 52.5151 112.881C52.966 113.215 53.5796 113.217 54.0325 112.886C54.0412 112.88 54.0499 112.874 54.0588 112.868L54.0764 112.856L54.0971 112.841C54.2832 112.712 54.5085 112.556 54.8232 112.843C54.9728 112.928 55.1526 112.942 55.3137 112.881C55.4748 112.82 55.6005 112.69 55.6566 112.526C55.7733 112.093 56.0728 111.765 56.3733 111.436C56.7606 111.013 57.1497 110.587 57.1519 109.93ZM145.812 42.4232L145.931 41.584C145.969 41.611 146.005 41.6324 146.037 41.6514C146.095 41.6863 146.14 41.713 146.156 41.7516C146.258 42.0017 146.366 42.2489 146.474 42.4962L146.475 42.4967C146.765 43.1586 147.055 43.8204 147.215 44.5362L147.238 44.6388C147.37 45.2205 147.496 45.7741 146.934 46.2294C146.779 46.3545 146.744 46.5691 146.708 46.7837C146.65 47.1315 146.592 47.4795 146.029 47.4469C145.61 48.1239 144.945 48.0752 144.301 48.028L144.251 48.0244C144.136 48.4743 143.991 48.9159 143.816 49.346C143.598 49.8009 142.899 49.9297 142.15 49.7146C142.081 49.6945 142.012 49.655 141.945 49.6161C141.846 49.5594 141.75 49.5042 141.657 49.5124L141.625 49.5152C140.445 49.6187 140.442 49.6189 139.936 48.665C139.656 48.1992 139.402 47.7179 139.175 47.2233C138.967 46.6433 138.518 46.1831 137.945 45.9622C137.06 45.5879 136.43 44.7788 136.281 43.8239C136.138 42.9657 136.537 42.1782 137.299 41.5593L137.624 41.9857L137.633 41.9975L137.696 42.0804L137.718 42.1102L137.724 42.1181L137.728 42.1229L137.744 42.1435C137.989 42.4659 138.256 42.8168 138.58 43.2426C138.58 43.0179 138.579 42.8164 138.579 42.631L138.579 42.6257L138.579 42.6207V42.6159V42.6112V42.6068C138.577 42.2181 138.576 41.899 138.582 41.58C138.59 41.2 138.624 41.1863 139.016 41.0251C139.115 40.9841 139.238 40.9336 139.39 40.8651C139.57 40.7833 139.779 40.763 139.987 40.7427C140.392 40.7033 140.797 40.6639 141 40.173L142.577 40.1128C143.548 40.0743 144.41 40.1808 144.863 41.2671C144.985 41.5628 145.225 41.8083 145.474 42.0622C145.589 42.1789 145.705 42.2973 145.812 42.4232ZM0.433791 47.759C0.522474 48.6642 1.20181 49.398 2.09295 49.5512L2.60283 48.3156C2.84806 49.1037 3.19018 49.6986 4.10708 49.7988C4.24129 49.5181 4.38961 49.2444 4.55147 48.9789C4.59675 48.911 4.6629 48.8505 4.72842 48.7905C4.91308 48.6216 5.09275 48.4572 4.78593 48.1462L5.65738 48.2121C5.86492 47.7593 6.14274 47.1541 6.40322 46.5872C6.49461 46.6103 6.58408 46.6334 6.67215 46.6561L6.67227 46.6562L6.67286 46.6563C6.95198 46.7284 7.21712 46.7968 7.4852 46.8496C7.53245 46.8604 7.66074 46.7292 7.65686 46.6691C7.64789 46.5388 7.60572 46.3287 7.52677 46.3022C7.4477 46.2756 7.35122 46.2827 7.25789 46.2896C7.14544 46.2979 7.03756 46.3059 6.97023 46.2541C6.89412 46.1963 6.8744 46.0634 6.84753 45.8825C6.83355 45.7882 6.81762 45.6809 6.79079 45.5644L7.37604 46.0865C7.37604 45.7495 7.37625 45.4183 7.37645 45.0916L7.37645 45.0913L7.37645 45.091C7.3772 43.8914 7.3779 42.7526 7.36827 41.614C7.3676 41.5455 7.32488 41.4792 7.28126 41.4115C7.24736 41.3589 7.2129 41.3054 7.19721 41.2493C7.11047 40.9395 6.96661 40.6446 6.82556 40.3555C6.54741 39.7854 6.28017 39.2376 6.48337 38.6416C6.20127 37.8695 5.64249 37.8252 5.11716 37.7835C4.77259 37.7562 4.44241 37.73 4.21414 37.5003C4.02846 37.5978 3.84952 37.7138 3.67511 37.8269C3.29977 38.0703 2.94535 38.3002 2.58968 38.3022C2.19977 38.3046 1.9156 38.5063 1.63696 38.7042C1.35288 38.9058 1.07455 39.1034 0.695762 39.0816C0.59857 39.0759 0.392521 39.3626 0.394913 39.5131C0.399013 39.7836 0.313985 40.0276 0.227969 40.2744C0.132003 40.5497 0.0348052 40.8286 0.0587761 41.1518C0.155168 42.4183 0.156768 43.6902 0.0635609 44.9569C0.0122192 45.6295 0.143843 46.2681 0.274549 46.9022C0.333415 47.1878 0.392095 47.4725 0.433791 47.759ZM109.057 116.987L109.057 116.987L109.056 116.987C108.435 116.946 107.877 116.909 107.568 117.62C106.953 116.804 106.88 116.225 107.507 115.576C107.666 115.411 107.806 115.231 107.946 115.05C108.186 114.74 108.428 114.427 108.777 114.183C109.056 113.987 109.233 113.655 109.413 113.317C109.544 113.07 109.678 112.82 109.853 112.618C110.075 112.365 110.372 112.178 110.67 111.992C110.803 111.909 110.936 111.826 111.062 111.737L111.545 112.215L110.861 112.704L110.937 112.88L111.975 112.715C112.002 112.756 112.03 112.815 112.062 112.882C112.147 113.057 112.257 113.286 112.437 113.38C113.924 114.158 114.872 115.458 115.776 116.793C115.951 117.052 116.059 117.357 116.167 117.663L116.167 117.663C116.241 117.873 116.316 118.084 116.413 118.281L116.507 118.474C117.017 119.507 117.143 119.761 116.974 120.789C116.845 121.576 116.702 122.414 116.087 123.056C115.818 123.305 115.637 123.636 115.573 123.998C115.541 124.815 115.095 124.946 114.439 124.904C114.251 124.894 114.064 124.914 113.883 124.964C112.738 125.274 112.62 125.242 112.049 124.359C111.345 123.27 110.947 122.052 110.55 120.836L110.549 120.836C110.47 120.591 110.39 120.346 110.307 120.103C110.066 119.39 109.865 118.664 109.666 117.947L109.666 117.947C109.578 117.63 109.491 117.316 109.401 117.006C109.285 117.002 109.17 116.995 109.057 116.987ZM90.4907 100.703C90.6148 100.773 90.7392 100.842 90.8634 100.913C91.0297 100.407 91.3643 99.9966 91.763 100.285C92.3315 100.699 92.423 100.299 92.4927 99.9677C92.5062 99.9032 92.5145 99.8356 92.5227 99.7684C92.551 99.5368 92.5788 99.3099 92.8189 99.232C93.1933 99.1106 93.3769 98.8209 93.558 98.535C93.6361 98.4119 93.7136 98.2895 93.8058 98.1815C94.0537 97.8908 94.2978 97.3982 94.2215 97.0714C94.0658 96.519 93.7908 96.0079 93.4162 95.5747C93.2035 95.313 92.9338 95.0996 92.6633 94.8857C92.4854 94.7449 92.3072 94.6039 92.1446 94.4487C91.9382 94.2519 91.7385 94.0472 91.5387 93.8424C90.9719 93.2614 90.4047 92.6799 89.6842 92.2794C89.3678 92.1037 89.0726 91.8898 88.7775 91.6759L88.7775 91.6759C88.2231 91.2741 87.669 90.8726 86.9742 90.7243C86.2836 90.6277 85.6431 90.3071 85.15 89.811C84.6162 89.2393 84.2077 89.3272 83.4753 89.8411C83.3872 89.9029 83.278 89.965 83.1681 90.0276C82.9096 90.1747 82.6468 90.3243 82.6436 90.4776C82.635 90.8756 82.4035 90.8797 82.1728 90.8838C81.9605 90.8875 81.7489 90.8913 81.7123 91.2019C82.3583 92.6745 83.4417 93.9368 84.5193 95.1924C84.6426 95.336 84.7658 95.4796 84.8883 95.6234C85.6513 96.5188 86.4982 97.3417 87.3452 98.1646L87.3454 98.1648C87.758 98.5657 88.1706 98.9665 88.5736 99.3758C89.1323 99.9431 89.806 100.32 90.4907 100.703ZM146.494 89.2643L146.494 89.2642L146.467 89.217C145.835 88.1235 145.282 86.9863 144.81 85.814C144.71 85.5592 144.592 85.3073 144.474 85.0539C144.051 84.1445 143.619 83.216 143.901 82.065C144.451 82.4505 144.689 83.0203 144.936 83.6108C145.161 84.1485 145.393 84.7033 145.875 85.152C145.77 84.3094 145.479 83.575 145.176 82.8119C144.944 82.2262 144.705 81.6234 144.538 80.9417L145.495 81.4701C145.541 81.2146 145.588 80.9468 145.636 80.6799L147.02 80.4154C147.06 80.4783 147.102 80.55 147.148 80.6272L147.148 80.6273L147.149 80.6287C147.262 80.8192 147.396 81.0436 147.546 81.2555C148.365 82.4097 148.376 82.4137 149.838 82.9367L149.875 82.9497C150.042 83.0169 150.202 83.1024 150.351 83.2045C151.511 83.9424 152.568 84.7741 153.207 86.0569C153.506 86.6324 153.691 87.2611 153.751 87.9078C153.77 88.0435 153.833 88.1691 153.93 88.265C154.024 88.3467 154.069 88.4722 154.047 88.5951C154.025 88.7181 153.94 88.8204 153.824 88.8644C153.462 89.0702 153.213 89.3857 152.965 89.7006C152.764 89.9553 152.564 90.2096 152.304 90.4053C152.09 90.5922 151.967 90.8633 151.966 91.1486C151.905 91.5684 151.087 92.1115 150.706 92.0236C150.627 92.0054 150.558 91.9446 150.488 91.8838C150.35 91.7623 150.21 91.6404 149.997 91.8545C149.836 92.0363 149.688 92.2282 149.552 92.4293C147.912 91.7498 147.195 90.4933 146.494 89.2643ZM101.454 58.3938L102.344 58.2457C102.532 57.926 102.454 57.6096 102.375 57.2913C102.304 57.0035 102.233 56.7141 102.357 56.4195C102.378 56.2603 102.286 56.1081 102.137 56.0522C101.987 55.9962 101.819 56.0513 101.731 56.1851C101.689 56.2273 101.56 56.1818 101.43 56.1363C101.371 56.1154 101.311 56.0945 101.26 56.0822C101.273 56.0407 101.284 55.9879 101.296 55.9351C101.321 55.8219 101.346 55.7088 101.376 55.7075C102.151 55.6765 101.92 55.0272 101.815 54.7506C101.727 54.5188 101.642 54.2847 101.557 54.0503C101.211 53.0936 100.864 52.132 100.26 51.304L100.252 51.2929C99.9379 50.8629 99.5385 50.3155 98.864 50.8743C98.8287 50.902 98.7181 50.8767 98.6646 50.8418C98.0757 50.4575 97.7136 50.6856 97.4683 51.27C97.2542 51.7802 97.0249 51.5472 96.8454 51.3649L96.8143 51.3335L96.0134 51.9723L96.3424 53.2241C96.1856 53.1335 96.0858 52.9947 95.988 52.8587C95.8208 52.6262 95.6595 52.4021 95.2296 52.4417L95.138 52.6007L95.1378 52.601L95.1373 52.6019L95.1367 52.6029L95.1366 52.6032L95.1361 52.604C95.0467 52.7592 94.9472 52.9321 94.8453 53.1037C94.7956 53.1869 94.7498 53.2879 94.704 53.3889C94.6025 53.6127 94.5009 53.8368 94.3567 53.8681C93.76 53.9977 93.8989 54.3201 94.0244 54.6112C94.0407 54.6492 94.0569 54.6866 94.0711 54.7229C94.2346 55.1417 94.4179 55.5526 94.6014 55.9635C94.7303 56.2525 94.8593 56.5414 94.9814 56.8332C95.0375 57.0146 95.0752 57.2012 95.0938 57.3902L94.8576 57.4667C94.4156 56.4899 93.9739 55.5131 93.4778 54.416C93.266 55.3124 93.5307 55.9203 93.8268 56.5802C94.2981 57.6221 94.9012 58.5984 95.6211 59.4849C96.5293 60.6106 97.6185 61.5446 99.2534 61.2401C99.3877 61.2263 99.5229 61.2252 99.6574 61.2368L101.813 59.0672L101.454 58.3938ZM97.0652 26.9452L97.6678 27.5518L97.7162 27.1328C97.7443 26.89 97.7706 26.662 97.7982 26.4213C97.9763 26.3838 98.1561 26.3433 98.3373 26.3026C98.7663 26.2061 99.2032 26.1077 99.6452 26.0422C100.029 25.9858 100.42 25.9872 100.803 26.0461C100.925 26.0649 100.955 26.1716 100.99 26.2924C101.037 26.4589 101.092 26.6523 101.404 26.6798C101.692 26.7047 101.925 27.1176 102.137 27.4938L102.137 27.4941L102.138 27.4947L102.138 27.4959C102.182 27.5731 102.225 27.6488 102.267 27.7191C102.331 27.8274 102.344 27.9761 102.357 28.1265C102.384 28.4439 102.412 28.7691 102.93 28.7395L103.01 30.1683C103.011 30.2002 103.017 30.2319 103.022 30.2637L103.027 30.2908L103.029 30.3061L105.196 32.4859C105.433 32.4694 105.671 32.4718 105.908 32.4931C106.27 32.5512 106.659 32.912 106.474 33.1359C106.253 33.4022 106.363 33.6249 106.467 33.8365C106.558 34.02 106.645 34.1951 106.508 34.3831C105.38 34.7235 105.025 34.7608 104.108 34.5995C104.337 35.0993 104.537 35.535 104.789 36.0824C104.745 36.1245 104.698 36.1845 104.647 36.2481C104.528 36.3983 104.393 36.5682 104.259 36.5672C104.004 36.5653 103.745 36.5777 103.487 36.5901L103.487 36.5901C102.529 36.6361 101.566 36.6823 100.723 36.0069C100.409 35.8062 100.119 35.5717 99.8557 35.3075C99.4157 34.7529 99.0148 34.1663 98.6143 33.5804L98.4863 33.3931L98.4104 33.2824C98.2762 33.0869 98.1535 32.8835 98.0308 32.6801C97.9416 32.5322 97.8524 32.3843 97.7587 32.2394C97.6285 32.0377 97.5622 31.8024 97.4958 31.5673C97.3868 31.1807 97.2777 30.7942 96.8852 30.5567C96.9582 30.0623 96.7632 29.6597 96.5639 29.2482L96.5638 29.248C96.5027 29.1218 96.4413 28.9948 96.387 28.8641C96.2145 28.5206 96.1895 28.1211 96.3176 27.7585C96.4458 27.3959 96.716 27.102 97.0652 26.9452ZM53.4209 5.20224H52.0751C51.1955 5.10538 50.3056 5.21317 49.474 5.51729C49.118 5.64548 48.8063 5.86625 48.4921 6.08874C48.1728 6.31487 47.851 6.54277 47.4778 6.67701C47.3934 6.7071 47.3223 6.91774 47.3309 7.0381C47.3545 7.41003 47.4045 7.77979 47.4805 8.14455C47.6274 8.82458 48.0228 9.36157 48.4194 9.90025C48.5386 10.0621 48.6579 10.2241 48.7706 10.3903C49.7329 11.8072 50.8834 12.8701 52.7235 12.8346C52.8608 12.8232 52.9975 12.8628 53.1078 12.9459C53.4605 13.3263 53.7452 13.1534 54.0286 12.9812C54.1835 12.8871 54.3381 12.7932 54.5032 12.79C54.8946 12.168 55.5222 11.8484 56.1341 11.5368C56.3511 11.4263 56.5661 11.3168 56.7679 11.1952C57.4545 10.7814 57.6498 10.3457 57.5039 9.73878C57.4749 9.61814 57.4473 9.49639 57.4196 9.37433C57.2029 8.41863 56.9817 7.44333 56.075 6.82295C55.9537 6.73943 55.8548 6.62176 55.7557 6.50382C55.548 6.25677 55.3393 6.00855 54.9221 6.07067C54.7949 6.06092 54.6817 5.98554 54.6231 5.87147C54.5149 5.18602 54.0426 5.19335 53.5676 5.20072C53.5186 5.20148 53.4696 5.20224 53.4209 5.20224ZM49.738 76.3528C49.9513 76.6904 50.108 76.9386 50.4127 77.4207C50.4389 77.2238 50.459 77.0769 50.4749 76.9607L50.475 76.9601L50.4751 76.9595C50.5004 76.7747 50.515 76.6678 50.5269 76.5601L50.5272 76.5581C50.5564 76.2922 50.5723 76.1485 50.6513 76.0635C50.7443 75.9636 50.9249 75.9451 51.3181 75.9049L51.32 75.9047C51.3434 75.9023 51.3699 75.9013 51.397 75.9003C51.4762 75.8974 51.5604 75.8942 51.5847 75.8557C51.8607 75.3721 52.4397 75.1548 52.963 75.3384C53.5754 75.4896 54.1519 75.7611 54.6596 76.1373C56.4659 77.669 57.5281 79.7221 58.3532 81.9004C58.4497 82.1547 58.4234 82.456 58.3972 82.7554C58.3852 82.893 58.3732 83.0303 58.3732 83.1624L57.8167 83.1004C57.8532 83.6264 57.7351 84.0158 57.1238 84.1407C56.9004 84.2214 56.7311 84.4081 56.6716 84.6393C56.635 85.0159 56.3915 85.0594 56.1526 85.1021C55.9898 85.1312 55.8292 85.1599 55.7377 85.2935C55.5451 84.9853 55.2785 85.0407 55.0101 85.0966C54.7762 85.1453 54.5409 85.1942 54.3521 85.0028C54.216 84.8644 54.0625 84.7372 53.9094 84.6103L53.9093 84.6102C53.6252 84.3749 53.3428 84.1408 53.1763 83.8398C52.5843 82.8295 52.1026 81.7578 51.7393 80.6435C51.6275 80.1424 51.3189 79.7082 50.8837 79.4398C50.1849 79.0571 49.6244 78.4618 49.2823 77.7391L49.2709 77.7143C48.9938 77.1087 48.9918 77.1043 49.738 76.3528ZM77.0719 58.7624C77.045 58.9378 77.041 59.1161 77.06 59.2926C77.3348 59.6825 77.6388 60.0254 77.9367 60.3613C78.0783 60.5211 78.2186 60.6792 78.3537 60.8402C79.1877 61.8407 80.0466 62.8668 81.3529 63.3979C82.2252 63.7521 83.0336 63.6468 83.4902 63.0347C83.6211 62.8594 83.8089 62.7321 83.9958 62.6054C84.3302 62.3788 84.6619 62.154 84.6598 61.6593C85.4571 61.5455 85.3213 60.882 85.1981 60.4622C84.8539 59.2881 84.4744 58.1007 83.6371 57.1609C83.483 56.9879 83.2946 56.8463 83.1061 56.7047L83.106 56.7046C82.9317 56.5736 82.7572 56.4424 82.6095 56.2862C82.3652 56.0279 82.1511 55.7407 81.92 55.4307L81.9199 55.4305C81.815 55.2898 81.7066 55.1445 81.5903 54.995L79.4479 55.4111L79.4127 55.6271L79.3891 55.7715L79.3886 55.7741C79.3586 55.9577 79.3281 56.1439 79.2918 56.3695L77.6718 55.0398C77.5599 55.1464 77.4534 55.2694 77.3531 55.3854C77.149 55.6214 76.9701 55.8282 76.8213 55.808C76.5798 55.7757 76.3795 55.8437 76.1792 55.9117C75.9826 55.9784 75.786 56.0452 75.5503 56.0172C75.6778 56.1873 75.8851 56.2172 76.085 56.2462C76.3946 56.2909 76.6863 56.3331 76.6356 56.8898L75.9549 56.5955C75.7257 57.2886 76.1793 57.5592 76.6506 57.8403L76.6509 57.8405C76.6972 57.8681 76.7436 57.8958 76.7896 57.924C76.7149 57.668 76.6416 57.4116 76.5504 57.0938C76.7047 57.112 76.8549 57.1563 76.9945 57.225C77.1436 57.3393 77.2611 57.4902 77.3357 57.6632C77.3532 57.7106 77.315 57.7745 77.2745 57.8423C77.2374 57.9044 77.1984 57.9697 77.1984 58.0285C77.1991 58.0946 77.233 58.1624 77.2663 58.2289C77.303 58.3023 77.339 58.3743 77.3288 58.4407C77.3198 58.5005 77.261 58.5517 77.2016 58.6034C77.1444 58.6531 77.0866 58.7034 77.0719 58.7624ZM101.084 78.3147L101.806 78.5624C101.835 77.8954 101.478 77.4879 101.116 77.0747C100.808 76.7236 100.497 76.3684 100.416 75.8463C100.631 75.9175 100.838 76.0127 101.032 76.1301C101.295 76.364 101.545 76.6114 101.782 76.8712C101.753 76.4267 101.568 76.007 101.26 75.6871C101.69 75.1641 101.878 74.9343 102.121 74.8329C102.311 74.7535 102.534 74.7528 102.931 74.7516C103.082 74.9228 103.226 75.1104 103.372 75.2996L103.372 75.2996C103.706 75.7343 104.047 76.1776 104.491 76.4506C104.92 76.7139 105.164 77.0907 105.407 77.4648C105.563 77.7055 105.719 77.945 105.922 78.1525C106.396 78.7063 106.785 79.3284 107.076 79.998C107.281 80.3561 107.377 80.7672 107.351 81.1797C107.276 81.6512 107.077 82.3445 106.745 82.4787C106.365 82.6327 106.309 82.868 106.252 83.1093C106.227 83.2141 106.202 83.32 106.15 83.4209C105.915 83.8765 105.593 84.3197 105.003 84.4175C104.878 84.4382 104.744 84.4864 104.612 84.5337L104.612 84.5338C104.381 84.6169 104.156 84.6978 103.995 84.6248C103.361 84.3642 102.782 83.983 102.291 83.5021C101.441 82.5676 100.653 81.5791 99.9302 80.5427C99.808 80.3721 99.8041 80.116 99.7994 79.8146V79.8145V79.8144C99.797 79.6612 99.7945 79.4964 99.7761 79.3252L100.325 79.7699C100.253 79.2727 100.516 78.9926 100.764 78.7282C100.89 78.595 101.011 78.4657 101.084 78.3147ZM92.6422 131.683L93.4197 132.112C93.3391 131.618 93.2253 131.131 93.0791 130.653C93.0026 130.459 92.731 130.186 92.5815 130.206C92.2534 130.249 92.0548 130.066 91.8697 129.895C91.7501 129.785 91.6361 129.68 91.4965 129.645C91.1431 129.556 90.9431 129.338 90.7444 129.121C90.6667 129.036 90.5892 128.952 90.5028 128.875C90.3277 128.72 90.1687 128.537 90.0106 128.356C89.7427 128.048 89.4772 127.743 89.1406 127.579C88.805 127.416 88.5632 127.177 88.3244 126.94C88.17 126.787 88.0169 126.636 87.8406 126.507C87.5295 126.279 87.2143 126.058 86.8999 125.836L86.8997 125.836L86.8995 125.836L86.8992 125.836L86.899 125.836L86.8981 125.835L86.8971 125.834L86.7345 125.72C86.6502 125.661 86.566 125.601 86.482 125.542H84.9033C85.0597 126.074 84.7829 126.074 84.5038 126.074C84.2856 126.075 84.0659 126.075 84.0507 126.33C84.0338 126.531 84.1824 126.663 84.3325 126.796C84.5414 126.982 84.7531 127.17 84.525 127.55C84.4472 127.483 84.3729 127.407 84.2992 127.333C84.0071 127.036 83.7242 126.749 83.2719 127.028C83.3122 127.875 83.8551 128.394 84.3984 128.913L84.4765 128.988C84.5876 129.082 84.69 129.187 84.7827 129.299C85.7159 130.605 86.7444 131.839 87.8597 132.992C87.9907 133.125 88.0894 133.29 88.1883 133.456C88.28 133.609 88.3718 133.762 88.4895 133.891L88.5383 133.945C88.971 134.42 89.4187 134.911 90.1681 134.805C90.207 134.493 90.05 134.254 89.8961 134.02C89.7103 133.737 89.5289 133.461 89.7013 133.07L91.1771 134.556L91.9502 134.104L91.2665 132.506C92.2334 132.936 92.3132 132.874 92.6422 131.683ZM83.4032 34.0076C83.5749 34.0191 83.7284 33.9961 83.8745 33.9741C84.155 33.932 84.408 33.894 84.7095 34.1132L84.123 34.3163C84.1696 34.4755 84.2177 34.6344 84.2657 34.7935L84.2658 34.7937L84.2659 34.794L84.266 34.7943L84.2661 34.7946C84.3955 35.2227 84.525 35.6512 84.6272 36.0845C84.6634 36.2374 84.5839 36.5389 84.4777 36.5837C84.135 36.7293 83.9324 37.0066 83.7319 37.2812C83.5901 37.4754 83.4493 37.6683 83.2606 37.812C83.0287 37.9541 82.7647 38.0345 82.4935 38.0458C82.4273 38.0532 82.3552 38.0064 82.2832 37.9596C82.2116 37.9131 82.1401 37.8667 82.0748 37.8737C81.9011 37.9288 81.7389 38.0155 81.5963 38.1295L81.5783 38.0653C81.3466 37.238 81.3346 37.1953 80.3741 36.8657C80.008 36.7402 79.8221 36.4677 79.6336 36.1913C79.5186 36.0227 79.4027 35.8526 79.2443 35.7138L79.0596 36.1092L78.9587 36.3255C78.9112 36.2752 78.8531 36.2264 78.7963 36.1787C78.6777 36.0791 78.5647 35.9842 78.5651 35.8898C78.5729 34.1424 78.5714 34.1027 77.7783 33.0558C77.5085 33.5309 77.7112 33.8856 77.9258 34.261C78.068 34.5098 78.2155 34.7677 78.234 35.0758C78.1649 35.065 78.0846 35.0604 78.0065 35.0559C77.845 35.0465 77.6929 35.0377 77.6679 34.9762C77.6128 34.8414 77.5534 34.7077 77.4941 34.5742C77.1526 33.8055 76.814 33.0433 77.3091 32.1119C77.3319 32.069 77.3523 32.0287 77.3715 31.9911C77.5041 31.73 77.5734 31.5935 77.9278 31.5877C78.1963 31.5559 78.4521 31.4546 78.6701 31.2937C79.0786 31.0338 79.4766 30.7574 79.8931 30.4683L79.8932 30.4683L79.8938 30.4678C80.0658 30.3484 80.241 30.2268 80.4213 30.1033L80.6606 30.4644C80.8664 30.6085 81.0759 30.5278 81.2554 30.4587C81.5009 30.3641 81.6902 30.2912 81.7372 30.845C81.7462 30.95 81.8415 30.9181 81.9553 30.88C82.1368 30.8192 82.3652 30.7428 82.3652 31.1805C82.3652 31.3715 82.6069 31.5627 82.8394 31.7466L82.8394 31.7466L82.8395 31.7467C82.9425 31.8281 83.0436 31.9081 83.1212 31.9861C83.0714 32.1171 83.0225 32.2448 82.9743 32.3708L82.8595 32.6712C82.9311 32.7216 83.0028 32.7718 83.0745 32.8217L83.2265 32.5312L83.4878 32.0315C83.6734 32.3485 83.8033 32.5704 83.9343 32.7939L84.0979 33.0733C83.8841 33.3615 83.6436 33.6847 83.4032 34.0076ZM33.5056 76.6829L34.4028 77.8212C34.5739 77.7057 34.7314 77.5711 34.8723 77.4198C34.95 77.2578 35.0182 77.0914 35.0766 76.9215L35.0886 76.8958L35.0886 76.8957C35.1592 76.7448 35.2714 76.5047 35.3137 76.515C35.6489 76.5966 35.8788 76.3935 36.108 76.1909C36.3538 75.9738 36.5989 75.7572 36.9723 75.8927C37.0235 75.7802 37.0687 75.6651 37.1078 75.5478C36.8182 75.4109 36.8727 75.2005 36.9265 74.9923C36.9548 74.8829 36.983 74.7741 36.9609 74.677C36.8661 74.2587 36.6439 73.9247 36.4242 73.5946C36.2688 73.3612 36.1147 73.1296 36.0078 72.8715C35.5524 71.7521 34.8469 70.7534 33.9459 69.9527L30.9658 70.374V71.8021C30.7381 71.7205 30.5798 71.54 30.4262 71.365C30.2058 71.1138 29.9953 70.8738 29.6039 70.9538C29.4289 71.7603 29.4552 72.5393 29.8978 73.1598C30.2641 73.6732 30.5861 74.2134 30.9076 74.7528C31.2178 75.2731 31.5275 75.7929 31.8764 76.2875C32.187 76.7783 32.6214 77.1775 33.1354 77.4442L33.5056 76.6829ZM66.6911 95.5615L67.2683 96.9038L67.5375 96.1898C67.5448 96.1943 67.5527 96.1987 67.5609 96.203C67.576 96.2109 67.5923 96.2184 67.6085 96.2259C67.6615 96.2505 67.7139 96.2747 67.7235 96.3101C67.8496 96.8044 68.101 97.2573 68.4532 97.6245C68.6621 97.8681 68.8367 98.1394 68.972 98.431C69.1966 98.9333 69.6554 99.2899 70.1952 99.3818C70.2885 99.1911 70.3848 98.9943 70.4293 98.9028L71.229 99.5046C71.229 99.5767 71.232 99.6326 71.2342 99.6748C71.2377 99.7395 71.2394 99.7718 71.226 99.7805C71.0175 99.9171 70.8051 100.047 70.6035 100.171L70.4458 100.268C70.5169 100.668 70.5815 101.032 70.6778 101.575L69.6581 101.076L69.34 101.72L69.0701 102.267L68.3646 102.348V103C67.6326 103.552 67.033 103.478 66.3981 102.895C66.1357 102.655 65.8606 102.428 65.5817 102.198L65.5816 102.198C65.1254 101.822 64.6589 101.438 64.2209 100.969L65.1181 100.373C64.9482 99.7722 64.6538 99.2147 64.2541 98.737C63.9643 98.3765 63.7662 97.9416 63.5715 97.514L63.5714 97.5138C63.4868 97.3282 63.4029 97.144 63.3124 96.9679C63.6501 96.5489 63.9317 96.7066 64.2285 96.8727C64.307 96.9167 64.3866 96.9613 64.4686 96.9959C64.474 96.9482 64.4847 96.8996 64.4951 96.8519C64.5172 96.7517 64.5382 96.656 64.5065 96.584C64.2144 95.922 64.3406 95.5955 64.9602 95.5666C65.3635 95.5482 65.768 95.5528 66.1665 95.5574C66.3427 95.5594 66.5178 95.5615 66.6911 95.5615ZM25.8944 102.393L25.2015 101.362C25.171 101.382 25.1407 101.402 25.1108 101.422L25.1075 101.424L25.1071 101.424C24.8403 101.599 24.6055 101.753 24.5642 102.182C24.4698 103.158 24.8541 103.982 25.2372 104.803L25.2373 104.803L25.2373 104.803C25.3358 105.015 25.4343 105.226 25.5245 105.439C25.7054 105.867 26.4354 106.007 27.0144 105.879C27.2468 105.834 27.4841 105.819 27.7204 105.834C28.3118 105.894 28.8451 105.474 28.9292 104.882C29.0201 104.465 29.1212 104.186 29.5545 104.063C29.9436 103.98 30.1972 103.602 30.1269 103.208C30.1241 103.168 30.1207 103.127 30.1172 103.087C30.0888 102.755 30.0596 102.414 30.3961 102.144C30.4878 101.971 30.4861 101.763 30.3916 101.591C30.3372 101.514 30.2206 101.467 30.1115 101.422C29.9964 101.376 29.8895 101.333 29.8724 101.26C29.8512 101.17 29.9147 101.065 29.9806 100.956C30.0411 100.856 30.1036 100.752 30.1045 100.654C30.1111 99.9662 29.6027 99.6057 29.0674 99.399C28.9241 99.3433 28.7652 99.3395 28.6024 99.3356C28.3569 99.3297 28.1025 99.3236 27.8795 99.139C27.8591 99.1221 27.7391 99.2337 27.5977 99.3652L27.5975 99.3655L27.5975 99.3655C27.4848 99.4703 27.3586 99.5878 27.2584 99.6629C27.1305 99.7307 26.9942 99.7813 26.8532 99.8133V101.012C26.6752 100.64 26.5858 100.453 26.5126 100.299L25.6647 100.299C25.7011 100.461 25.7371 100.617 25.7722 100.77L25.7722 100.77C25.8669 101.181 25.9551 101.564 26.0275 101.95C26.0409 102.021 26.008 102.101 25.9656 102.204C25.9427 102.26 25.917 102.322 25.8944 102.393ZM71.9506 74.9722L73.1567 75.3276C73.3538 74.8551 73.4121 74.4014 72.9961 73.9789C73.2988 73.7019 73.5416 73.8366 73.7934 73.9764C73.9664 74.0724 74.1438 74.1708 74.3478 74.1396L74.4926 73.3548C74.6899 73.1429 74.8779 73.2345 75.0761 73.3311C75.2719 73.4266 75.4779 73.5269 75.7127 73.344C76.0051 73.1172 76.1657 73.3222 76.3373 73.5413C76.4504 73.6857 76.5683 73.8362 76.7319 73.8733C76.9818 73.9736 77.1956 74.1477 77.3453 74.3728C77.5743 74.6555 77.7225 74.9874 77.8714 75.3209C78.0783 75.7842 78.2866 76.2508 78.7152 76.5935C78.8331 76.6878 78.8303 76.9346 78.8272 77.2162C78.8256 77.357 78.824 77.5065 78.8372 77.65C78.4179 77.4429 78.2006 77.6852 77.9822 77.9287C77.7747 78.16 77.5663 78.3924 77.1829 78.2419C77.11 78.3607 77.0798 78.5085 77.0489 78.6595C76.9773 79.0098 76.9023 79.3768 76.2836 79.4365L75.835 78.6665L75.6627 79.0296L75.4836 79.4064C75.0094 79.5191 74.7811 79.1318 74.6198 78.8582L74.5975 78.8205C74.0745 77.9302 73.3346 77.1887 72.4476 76.666C71.889 76.3305 71.5831 75.7837 71.9506 74.9722ZM63.0077 37.4603L64.8579 36.0011C64.8242 35.8543 64.8013 35.6908 64.7776 35.5213C64.7222 35.1255 64.6622 34.6968 64.4488 34.3696C63.9204 33.5235 63.2646 32.7651 62.505 32.1215C61.6129 31.4032 60.5593 30.811 59.4403 31.8642C59.3685 31.9317 59.2533 31.9525 59.1233 31.9759C59.0557 31.9881 58.9841 32.001 58.9124 32.0216C58.9381 32.1528 58.951 32.285 58.9633 32.4109C58.9885 32.668 59.0111 32.899 59.1343 33.0429C59.2172 33.1397 59.3019 33.235 59.3864 33.33C59.8897 33.8961 60.3857 34.454 60.4487 35.2811C60.8879 35.639 61.1133 36.1299 61.3369 36.617C61.4711 36.9093 61.6046 37.2002 61.7834 37.4603H63.0077Z" fill="#171B1B"/>
</svg>
